{
copyright = "Copyright (c) 2015, Cadson Demak (info@cadsondemak.com)";
customParameters = (
{
name = vendorID;
value = CDK;
},
{
name = description;
value = "Copyright (c) 2015, Cadson Demak (info@cadsondemak.com)";
},
{
name = license;

glyphs = (
{
glyphname = A;
lastChange = "2015-10-20 06:42:37 +0000";
layers = (
{
layerId = "308F4333-E380-49B7-B07F-C4D22ACB9582";
name = "Bold Italic";
paths = (
{
closed = 1;
nodes = (
"215 0 LINE",
"224 46 LINE",
"202 46 LINE SMOOTH",
"186 46 OFFCURVE",
"169 52 OFFCURVE",
"169 71 CURVE SMOOTH",
"169 77 OFFCURVE",
"171 86 OFFCURVE",
"177 96 CURVE SMOOTH",
"416 517 LINE",
"478 92 LINE SMOOTH",
"478 89 OFFCURVE",
"479 85 OFFCURVE",
"479 82 CURVE SMOOTH",
"479 58 OFFCURVE",
"465 46 OFFCURVE",
"437 46 CURVE SMOOTH",
"415 46 LINE",
"406 0 LINE",
"742 0 LINE",
"751 46 LINE",
"729 46 LINE SMOOTH",
"708 46 OFFCURVE",
"691 54 OFFCURVE",
"686 81 CURVE SMOOTH",
"564 726 LINE",
"413 677 LINE",
"63 84 LINE SMOOTH",
"48 57 OFFCURVE",
"15 46 OFFCURVE",
"-10 46 CURVE SMOOTH",
"-26 46 LINE",
"-35 0 LINE"
);
},
{
closed = 1;
nodes = (
"520 177 LINE",
"534 243 LINE",
"205 243 LINE",
"192 177 LINE"
);
}
);
width = 784;
}
);
leftKerningGroup = A;
note = A;
rightKerningGroup = A;
unicode = 0041;
},
{
glyphname = Aacute;
lastChange = "2015-10-20 06:42:37 +0000";
layers = (
{
layerId = "308F4333-E380-49B7-B07F-C4D22ACB9582";
name = "Bold Italic";
paths = (
{
closed = 1;
nodes = (
"215 0 LINE",
"224 46 LINE",
"202 46 LINE SMOOTH",
"186 46 OFFCURVE",
"169 52 OFFCURVE",
"169 71 CURVE SMOOTH",
"169 77 OFFCURVE",
"171 86 OFFCURVE",
"177 96 CURVE SMOOTH",
"416 517 LINE",
"478 92 LINE SMOOTH",
"478 89 OFFCURVE",
"479 85 OFFCURVE",
"479 82 CURVE SMOOTH",
"479 58 OFFCURVE",
"465 46 OFFCURVE",
"437 46 CURVE SMOOTH",
"415 46 LINE",
"406 0 LINE",
"742 0 LINE",
"751 46 LINE",
"729 46 LINE SMOOTH",
"708 46 OFFCURVE",
"691 54 OFFCURVE",
"686 81 CURVE SMOOTH",
"564 726 LINE",
"413 677 LINE",
"63 84 LINE SMOOTH",
"48 57 OFFCURVE",
"15 46 OFFCURVE",
"-10 46 CURVE SMOOTH",
"-26 46 LINE",
"-35 0 LINE"
);
},
{
closed = 1;
nodes = (
"520 177 LINE",
"534 243 LINE",
"205 243 LINE",
"192 177 LINE"
);
},
{
closed = 1;
nodes = (
"604 873 LINE SMOOTH",
"650 898 OFFCURVE",
"676 923 OFFCURVE",
"676 957 CURVE SMOOTH",
"676 978 OFFCURVE",
"662 998 OFFCURVE",
"627 998 CURVE SMOOTH",
"589 998 OFFCURVE",
"554 964 OFFCURVE",
"547 957 CURVE",
"398 821 LINE",
"421 774 LINE"
);
}
);
width = 784;
}
);
leftKerningGroup = A;
note = Aacute;
rightKerningGroup = A;
unicode = 00C1;
},
{
glyphname = Abreve;
lastChange = "2015-10-20 06:42:37 +0000";
layers = (
{
layerId = "308F4333-E380-49B7-B07F-C4D22ACB9582";
name = "Bold Italic";
paths = (
{
closed = 1;
nodes = (
"215 0 LINE",
"224 46 LINE",
"202 46 LINE SMOOTH",
"186 46 OFFCURVE",
"169 52 OFFCURVE",
"169 71 CURVE SMOOTH",
"169 77 OFFCURVE",
"171 86 OFFCURVE",
"177 96 CURVE SMOOTH",
"416 517 LINE",
"478 92 LINE SMOOTH",
"478 89 OFFCURVE",
"479 85 OFFCURVE",
"479 82 CURVE SMOOTH",
"479 58 OFFCURVE",
"465 46 OFFCURVE",
"437 46 CURVE SMOOTH",
"415 46 LINE",
"406 0 LINE",
"742 0 LINE",
"751 46 LINE",
"729 46 LINE SMOOTH",
"708 46 OFFCURVE",
"691 54 OFFCURVE",
"686 81 CURVE SMOOTH",
"564 726 LINE",
"413 677 LINE",
"63 84 LINE SMOOTH",
"48 57 OFFCURVE",
"15 46 OFFCURVE",
"-10 46 CURVE SMOOTH",
"-26 46 LINE",
"-35 0 LINE"
);
},
{
closed = 1;
nodes = (
"520 177 LINE",
"534 243 LINE",
"205 243 LINE",
"192 177 LINE"
);
},
{
closed = 1;
nodes = (
"651 777 OFFCURVE",
"694 863 OFFCURVE",
"708 934 CURVE",
"665 934 LINE",
"658 906 OFFCURVE",
"627 856 OFFCURVE",
"529 856 CURVE SMOOTH",
"432 856 OFFCURVE",
"420 906 OFFCURVE",
"422 934 CURVE",
"381 934 LINE",
"378 918 OFFCURVE",
"376 902 OFFCURVE",
"376 887 CURVE SMOOTH",
"376 828 OFFCURVE",
"405 777 OFFCURVE",
"514 777 CURVE SMOOTH"
);
}
);
width = 784;
}
);
leftKerningGroup = A;
note = Abreve;
rightKerningGroup = A;
unicode = 0102;
},
{
glyphname = Abreveacute;
lastChange = "2015-10-20 06:42:37 +0000";
layers = (
{
layerId = "308F4333-E380-49B7-B07F-C4D22ACB9582";
name = "Bold Italic";
paths = (
{
closed = 1;
nodes = (
"215 0 LINE",
"224 46 LINE",
"202 46 LINE SMOOTH",
"186 46 OFFCURVE",
"169 52 OFFCURVE",
"169 71 CURVE SMOOTH",
"169 77 OFFCURVE",
"171 86 OFFCURVE",
"177 96 CURVE SMOOTH",
"416 517 LINE",
"478 92 LINE SMOOTH",
"478 89 OFFCURVE",
"479 85 OFFCURVE",
"479 82 CURVE SMOOTH",
"479 58 OFFCURVE",
"465 46 OFFCURVE",
"437 46 CURVE SMOOTH",
"415 46 LINE",
"406 0 LINE",
"742 0 LINE",
"751 46 LINE",
"729 46 LINE SMOOTH",
"708 46 OFFCURVE",
"691 54 OFFCURVE",
"686 81 CURVE SMOOTH",
"564 726 LINE",
"413 677 LINE",
"63 84 LINE SMOOTH",
"48 57 OFFCURVE",
"15 46 OFFCURVE",
"-10 46 CURVE SMOOTH",
"-26 46 LINE",
"-35 0 LINE"
);
},
{
closed = 1;
nodes = (
"520 177 LINE",
"534 243 LINE",
"205 243 LINE",
"192 177 LINE"
);
},
{
closed = 1;
nodes = (
"650 775 OFFCURVE",
"693 862 OFFCURVE",
"708 932 CURVE",
"665 932 LINE",
"657 905 OFFCURVE",
"626 854 OFFCURVE",
"528 854 CURVE SMOOTH",
"441 854 OFFCURVE",
"422 895 OFFCURVE",
"422 923 CURVE SMOOTH",
"422 926 OFFCURVE",
"423 929 OFFCURVE",
"423 932 CURVE",
"381 932 LINE",
"377 915 OFFCURVE",
"375 898 OFFCURVE",
"375 882 CURVE SMOOTH",
"375 824 OFFCURVE",
"405 775 OFFCURVE",
"513 775 CURVE SMOOTH"
);
},
{
closed = 1;
nodes = (
"650 976 LINE SMOOTH",
"696 997 OFFCURVE",
"732 1029 OFFCURVE",
"732 1062 CURVE SMOOTH",
"732 1084 OFFCURVE",
"719 1107 OFFCURVE",
"684 1107 CURVE SMOOTH",
"650 1107 OFFCURVE",
"617 1077 OFFCURVE",
"599 1058 CURVE SMOOTH",
"505 961 LINE",
"527 920 LINE"
);
}
);
width = 784;
}
);
leftKerningGroup = A;
note = Abreveacute;
rightKerningGroup = A;
unicode = 1EAE;
},
{
glyphname = Abrevedotbelow;
lastChange = "2015-10-20 06:42:37 +0000";
layers = (
{
layerId = "308F4333-E380-49B7-B07F-C4D22ACB9582";
name = "Bold Italic";
paths = (
{
closed = 1;
nodes = (
"215 0 LINE",
"224 46 LINE",
"202 46 LINE SMOOTH",
"186 46 OFFCURVE",
"169 52 OFFCURVE",
"169 71 CURVE SMOOTH",
"169 77 OFFCURVE",
"171 86 OFFCURVE",
"177 96 CURVE SMOOTH",
"416 517 LINE",
"478 92 LINE SMOOTH",
"478 89 OFFCURVE",
"479 85 OFFCURVE",
"479 82 CURVE SMOOTH",
"479 58 OFFCURVE",
"465 46 OFFCURVE",
"437 46 CURVE SMOOTH",
"415 46 LINE",
"406 0 LINE",
"742 0 LINE",
"751 46 LINE",
"729 46 LINE SMOOTH",
"708 46 OFFCURVE",
"691 54 OFFCURVE",
"686 81 CURVE SMOOTH",
"564 726 LINE",
"413 677 LINE",
"63 84 LINE SMOOTH",
"48 57 OFFCURVE",
"15 46 OFFCURVE",
"-10 46 CURVE SMOOTH",
"-26 46 LINE",
"-35 0 LINE"
);
},
{
closed = 1;
nodes = (
"358 -211 OFFCURVE",
"396 -169 OFFCURVE",
"396 -120 CURVE SMOOTH",
"396 -88 OFFCURVE",
"375 -64 OFFCURVE",
"339 -64 CURVE SMOOTH",
"290 -64 OFFCURVE",
"252 -108 OFFCURVE",
"252 -156 CURVE SMOOTH",
"252 -188 OFFCURVE",
"273 -211 OFFCURVE",
"309 -211 CURVE SMOOTH"
);
},
{
closed = 1;
nodes = (
"520 177 LINE",
"534 243 LINE",
"205 243 LINE",
"192 177 LINE"
);
},
{
closed = 1;
nodes = (
"650 775 OFFCURVE",
"693 861 OFFCURVE",
"708 932 CURVE",
"664 932 LINE",
"657 904 OFFCURVE",
"626 854 OFFCURVE",
"528 854 CURVE SMOOTH",
"431 854 OFFCURVE",
"419 904 OFFCURVE",
"421 932 CURVE",
"380 932 LINE",
"377 916 OFFCURVE",
"375 900 OFFCURVE",
"375 885 CURVE SMOOTH",
"375 826 OFFCURVE",
"404 775 OFFCURVE",
"513 775 CURVE SMOOTH"
);
}
);
width = 784;
}
);
leftKerningGroup = A;
note = Abrevedotbelow;
rightKerningGroup = A;
unicode = 1EB6;
},
{
glyphname = Abrevegrave;
lastChange = "2015-10-20 06:42:37 +0000";
layers = (
{
layerId = "308F4333-E380-49B7-B07F-C4D22ACB9582";
name = "Bold Italic";
paths = (
{
closed = 1;
nodes = (
"215 0 LINE",
"224 46 LINE",
"202 46 LINE SMOOTH",
"186 46 OFFCURVE",
"169 52 OFFCURVE",
"169 71 CURVE SMOOTH",
"169 77 OFFCURVE",
"171 86 OFFCURVE",
"177 96 CURVE SMOOTH",
"416 517 LINE",
"478 92 LINE SMOOTH",
"478 89 OFFCURVE",
"479 85 OFFCURVE",
"479 82 CURVE SMOOTH",
"479 58 OFFCURVE",
"465 46 OFFCURVE",
"437 46 CURVE SMOOTH",
"415 46 LINE",
"406 0 LINE",
"742 0 LINE",
"751 46 LINE",
"729 46 LINE SMOOTH",
"708 46 OFFCURVE",
"691 54 OFFCURVE",
"686 81 CURVE SMOOTH",
"564 726 LINE",
"413 677 LINE",
"63 84 LINE SMOOTH",
"48 57 OFFCURVE",
"15 46 OFFCURVE",
"-10 46 CURVE SMOOTH",
"-26 46 LINE",
"-35 0 LINE"
);
},
{
closed = 1;
nodes = (
"520 177 LINE",
"534 243 LINE",
"205 243 LINE",
"192 177 LINE"
);
},
{
closed = 1;
nodes = (
"650 775 OFFCURVE",
"693 862 OFFCURVE",
"708 932 CURVE",
"665 932 LINE",
"657 905 OFFCURVE",
"626 854 OFFCURVE",
"528 854 CURVE SMOOTH",
"441 854 OFFCURVE",
"422 895 OFFCURVE",
"422 923 CURVE SMOOTH",
"422 926 OFFCURVE",
"423 929 OFFCURVE",
"423 932 CURVE",
"381 932 LINE",
"377 915 OFFCURVE",
"375 898 OFFCURVE",
"375 882 CURVE SMOOTH",
"375 824 OFFCURVE",
"405 775 OFFCURVE",
"513 775 CURVE SMOOTH"
);
},
{
closed = 1;
nodes = (
"598 960 LINE",
"540 1059 LINE",
"529 1077 OFFCURVE",
"511 1107 OFFCURVE",
"478 1107 CURVE SMOOTH",
"427 1107 OFFCURVE",
"406 1060 OFFCURVE",
"406 1041 CURVE SMOOTH",
"406 1016 OFFCURVE",
"424 995 OFFCURVE",
"456 977 CURVE SMOOTH",
"558 919 LINE"
);
}
);
width = 784;
}
);
leftKerningGroup = A;
note = Abrevegrave;
rightKerningGroup = A;
unicode = 1EB0;
},
{
glyphname = Abrevehookabove;
lastChange = "2015-10-20 06:42:37 +0000";
layers = (
{
layerId = "308F4333-E380-49B7-B07F-C4D22ACB9582";
name = "Bold Italic";
paths = (
{
closed = 1;
nodes = (
"215 0 LINE",
"224 46 LINE",
"202 46 LINE SMOOTH",
"186 46 OFFCURVE",
"169 52 OFFCURVE",
"169 71 CURVE SMOOTH",
"169 77 OFFCURVE",
"171 86 OFFCURVE",
"177 96 CURVE SMOOTH",
"416 517 LINE",
"478 92 LINE SMOOTH",
"478 89 OFFCURVE",
"479 85 OFFCURVE",
"479 82 CURVE SMOOTH",
"479 58 OFFCURVE",
"465 46 OFFCURVE",
"437 46 CURVE SMOOTH",
"415 46 LINE",
"406 0 LINE",
"742 0 LINE",
"751 46 LINE",
"729 46 LINE SMOOTH",
"708 46 OFFCURVE",
"691 54 OFFCURVE",
"686 81 CURVE SMOOTH",
"564 726 LINE",
"413 677 LINE",
"63 84 LINE SMOOTH",
"48 57 OFFCURVE",
"15 46 OFFCURVE",
"-10 46 CURVE SMOOTH",
"-26 46 LINE",
"-35 0 LINE"
);
},
{
closed = 1;
nodes = (
"520 177 LINE",
"534 243 LINE",
"205 243 LINE",
"192 177 LINE"
);
},
{
closed = 1;
nodes = (
"650 775 OFFCURVE",
"693 862 OFFCURVE",
"708 932 CURVE",
"665 932 LINE",
"657 905 OFFCURVE",
"626 854 OFFCURVE",
"528 854 CURVE SMOOTH",
"441 854 OFFCURVE",
"422 895 OFFCURVE",
"422 923 CURVE SMOOTH",
"422 926 OFFCURVE",
"423 929 OFFCURVE",
"423 932 CURVE",
"381 932 LINE",
"377 915 OFFCURVE",
"375 898 OFFCURVE",
"375 882 CURVE SMOOTH",
"375 824 OFFCURVE",
"405 775 OFFCURVE",
"513 775 CURVE SMOOTH"
);
},
{
closed = 1;
nodes = (
"584 945 LINE",
"574 946 OFFCURVE",
"563 948 OFFCURVE",
"563 963 CURVE SMOOTH",
"563 964 OFFCURVE",
"564 967 OFFCURVE",
"564 969 CURVE SMOOTH",
"573 1013 OFFCURVE",
"684 1017 OFFCURVE",
"684 1088 CURVE SMOOTH",
"684 1125 OFFCURVE",
"644 1142 OFFCURVE",
"596 1142 CURVE SMOOTH",
"521 1142 OFFCURVE",
"490 1108 OFFCURVE",
"486 1087 CURVE SMOOTH",
"485 1084 OFFCURVE",
"485 1081 OFFCURVE",
"485 1079 CURVE SMOOTH",
"485 1062 OFFCURVE",
"498 1055 OFFCURVE",
"512 1055 CURVE SMOOTH",
"527 1055 OFFCURVE",
"544 1064 OFFCURVE",
"547 1080 CURVE",
"553 1105 OFFCURVE",
"574 1113 OFFCURVE",
"589 1113 CURVE SMOOTH",
"609 1113 OFFCURVE",
"614 1097 OFFCURVE",
"612 1083 CURVE SMOOTH",
"600 1027 OFFCURVE",
"517 1017 OFFCURVE",
"507 969 CURVE SMOOTH",
"501 939 OFFCURVE",
"532 922 OFFCURVE",
"571 922 CURVE"
);
}
);
width = 784;
}
);
leftKerningGroup = A;
note = Abrevehookabove;
rightKerningGroup = A;
unicode = 1EB2;
},
{
glyphname = Abrevetilde;
lastChange = "2015-10-20 06:42:37 +0000";
layers = (
{
layerId = "308F4333-E380-49B7-B07F-C4D22ACB9582";
name = "Bold Italic";
paths = (
{
closed = 1;
nodes = (
"215 0 LINE",
"224 46 LINE",
"202 46 LINE SMOOTH",
"186 46 OFFCURVE",
"169 52 OFFCURVE",
"169 71 CURVE SMOOTH",
"169 77 OFFCURVE",
"171 86 OFFCURVE",
"177 96 CURVE SMOOTH",
"416 517 LINE",
"478 92 LINE SMOOTH",
"478 89 OFFCURVE",
"479 85 OFFCURVE",
"479 82 CURVE SMOOTH",
"479 58 OFFCURVE",
"465 46 OFFCURVE",
"437 46 CURVE SMOOTH",
"415 46 LINE",
"406 0 LINE",
"742 0 LINE",
"751 46 LINE",
"729 46 LINE SMOOTH",
"708 46 OFFCURVE",
"691 54 OFFCURVE",
"686 81 CURVE SMOOTH",
"564 726 LINE",
"413 677 LINE",
"63 84 LINE SMOOTH",
"48 57 OFFCURVE",
"15 46 OFFCURVE",
"-10 46 CURVE SMOOTH",
"-26 46 LINE",
"-35 0 LINE"
);
},
{
closed = 1;
nodes = (
"520 177 LINE",
"534 243 LINE",
"205 243 LINE",
"192 177 LINE"
);
},
{
closed = 1;
nodes = (
"650 775 OFFCURVE",
"693 862 OFFCURVE",
"708 932 CURVE",
"665 932 LINE",
"657 905 OFFCURVE",
"626 854 OFFCURVE",
"528 854 CURVE SMOOTH",
"441 854 OFFCURVE",
"422 895 OFFCURVE",
"422 923 CURVE SMOOTH",
"422 926 OFFCURVE",
"423 929 OFFCURVE",
"423 932 CURVE",
"381 932 LINE",
"377 915 OFFCURVE",
"375 898 OFFCURVE",
"375 882 CURVE SMOOTH",
"375 824 OFFCURVE",
"405 775 OFFCURVE",
"513 775 CURVE SMOOTH"
);
},
{
closed = 1;
nodes = (
"431 1022 OFFCURVE",
"446 1039 OFFCURVE",
"477 1039 CURVE SMOOTH",
"529 1039 OFFCURVE",
"565 994 OFFCURVE",
"616 994 CURVE SMOOTH",
"680 994 OFFCURVE",
"725 1074 OFFCURVE",
"747 1119 CURVE",
"726 1137 LINE",
"699 1096 OFFCURVE",
"684 1079 OFFCURVE",
"655 1079 CURVE SMOOTH",
"603 1079 OFFCURVE",
"565 1124 OFFCURVE",
"516 1124 CURVE SMOOTH",
"451 1124 OFFCURVE",
"407 1045 OFFCURVE",
"383 1000 CURVE",
"405 982 LINE"
);
}
);
width = 784;
}
);
leftKerningGroup = A;
note = Abrevetilde;
rightKerningGroup = A;
unicode = 1EB4;
},
{
glyphname = Acaron;
lastChange = "2015-10-20 06:42:37 +0000";
layers = (
{
layerId = "308F4333-E380-49B7-B07F-C4D22ACB9582";
name = "Bold Italic";
paths = (
{
closed = 1;
nodes = (
"215 0 LINE",
"224 46 LINE",
"202 46 LINE SMOOTH",
"186 46 OFFCURVE",
"169 52 OFFCURVE",
"169 71 CURVE SMOOTH",
"169 77 OFFCURVE",
"171 86 OFFCURVE",
"177 96 CURVE SMOOTH",
"416 517 LINE",
"478 92 LINE SMOOTH",
"478 89 OFFCURVE",
"479 85 OFFCURVE",
"479 82 CURVE SMOOTH",
"479 58 OFFCURVE",
"465 46 OFFCURVE",
"437 46 CURVE SMOOTH",
"415 46 LINE",
"406 0 LINE",
"742 0 LINE",
"751 46 LINE",
"729 46 LINE SMOOTH",
"708 46 OFFCURVE",
"691 54 OFFCURVE",
"686 81 CURVE SMOOTH",
"564 726 LINE",
"413 677 LINE",
"63 84 LINE SMOOTH",
"48 57 OFFCURVE",
"15 46 OFFCURVE",
"-10 46 CURVE SMOOTH",
"-26 46 LINE",
"-35 0 LINE"
);
},
{
closed = 1;
nodes = (
"520 177 LINE",
"534 243 LINE",
"205 243 LINE",
"192 177 LINE"
);
},
{
closed = 1;
nodes = (
"559 775 LINE",
"750 955 LINE",
"730 984 LINE",
"576 882 LINE SMOOTH",
"558 870 OFFCURVE",
"542 862 OFFCURVE",
"532 862 CURVE SMOOTH",
"521 862 OFFCURVE",
"508 870 OFFCURVE",
"495 882 CURVE SMOOTH",
"384 984 LINE",
"352 955 LINE",
"468 775 LINE"
);
}
);
width = 784;
}
);
leftKerningGroup = A;
note = Acaron;
rightKerningGroup = A;
unicode = 01CD;
},
{
glyphname = Acircumflex;
lastChange = "2015-10-20 06:42:37 +0000";
layers = (
{
layerId = "308F4333-E380-49B7-B07F-C4D22ACB9582";
name = "Bold Italic";
paths = (
{
closed = 1;
nodes = (
"215 0 LINE",
"224 46 LINE",
"202 46 LINE SMOOTH",
"186 46 OFFCURVE",
"169 52 OFFCURVE",
"169 71 CURVE SMOOTH",
"169 77 OFFCURVE",
"171 86 OFFCURVE",
"177 96 CURVE SMOOTH",
"416 517 LINE",
"478 92 LINE SMOOTH",
"478 89 OFFCURVE",
"479 85 OFFCURVE",
"479 82 CURVE SMOOTH",
"479 58 OFFCURVE",
"465 46 OFFCURVE",
"437 46 CURVE SMOOTH",
"415 46 LINE",
"406 0 LINE",
"742 0 LINE",
"751 46 LINE",
"729 46 LINE SMOOTH",
"708 46 OFFCURVE",
"691 54 OFFCURVE",
"686 81 CURVE SMOOTH",
"564 726 LINE",
"413 677 LINE",
"63 84 LINE SMOOTH",
"48 57 OFFCURVE",
"15 46 OFFCURVE",
"-10 46 CURVE SMOOTH",
"-26 46 LINE",
"-35 0 LINE"
);
},
{
closed = 1;
nodes = (
"520 177 LINE",
"534 243 LINE",
"205 243 LINE",
"192 177 LINE"
);
},
{
closed = 1;
nodes = (
"494 877 LINE SMOOTH",
"513 889 OFFCURVE",
"528 897 OFFCURVE",
"539 897 CURVE SMOOTH",
"549 897 OFFCURVE",
"563 889 OFFCURVE",
"575 877 CURVE SMOOTH",
"686 775 LINE",
"718 804 LINE",
"602 984 LINE",
"512 984 LINE",
"321 804 LINE",
"341 775 LINE"
);
}
);
width = 784;
}
);
leftKerningGroup = A;
note = Acircumflex;
rightKerningGroup = A;
unicode = 00C2;
},
{
glyphname = Acircumflexacute;
lastChange = "2015-10-20 06:42:37 +0000";
layers = (
{
layerId = "308F4333-E380-49B7-B07F-C4D22ACB9582";
name = "Bold Italic";
paths = (
{
closed = 1;
nodes = (
"215 0 LINE",
"224 46 LINE",
"202 46 LINE SMOOTH",
"186 46 OFFCURVE",
"169 52 OFFCURVE",
"169 71 CURVE SMOOTH",
"169 77 OFFCURVE",
"171 86 OFFCURVE",
"177 96 CURVE SMOOTH",
"416 517 LINE",
"478 92 LINE SMOOTH",
"478 89 OFFCURVE",
"479 85 OFFCURVE",
"479 82 CURVE SMOOTH",
"479 58 OFFCURVE",
"465 46 OFFCURVE",
"437 46 CURVE SMOOTH",
"415 46 LINE",
"406 0 LINE",
"742 0 LINE",
"751 46 LINE",
"729 46 LINE SMOOTH",
"708 46 OFFCURVE",
"691 54 OFFCURVE",
"686 81 CURVE SMOOTH",
"564 726 LINE",
"413 677 LINE",
"63 84 LINE SMOOTH",
"48 57 OFFCURVE",
"15 46 OFFCURVE",
"-10 46 CURVE SMOOTH",
"-26 46 LINE",
"-35 0 LINE"
);
},
{
closed = 1;
nodes = (
"520 177 LINE",
"534 243 LINE",
"205 243 LINE",
"192 177 LINE"
);
},
{
closed = 1;
nodes = (
"500 875 LINE",
"516 887 OFFCURVE",
"533 896 OFFCURVE",
"543 896 CURVE SMOOTH",
"554 896 OFFCURVE",
"565 887 OFFCURVE",
"579 875 CURVE SMOOTH",
"684 774 LINE",
"714 804 LINE",
"606 983 LINE",
"517 983 LINE",
"332 804 LINE",
"351 774 LINE"
);
},
{
closed = 1;
nodes = (
"813 972 LINE SMOOTH",
"860 994 OFFCURVE",
"896 1024 OFFCURVE",
"896 1058 CURVE SMOOTH",
"896 1080 OFFCURVE",
"883 1103 OFFCURVE",
"848 1103 CURVE SMOOTH",
"813 1103 OFFCURVE",
"781 1073 OFFCURVE",
"763 1054 CURVE SMOOTH",
"669 957 LINE",
"690 916 LINE"
);
}
);
width = 784;
}
);
leftKerningGroup = A;
note = Acircumflexacute;
rightKerningGroup = A;
unicode = 1EA4;
},
{
glyphname = Acircumflexdotbelow;
lastChange = "2015-10-20 06:42:37 +0000";
layers = (
{
layerId = "308F4333-E380-49B7-B07F-C4D22ACB9582";
name = "Bold Italic";
paths = (
{
closed = 1;
nodes = (
"215 0 LINE",
"224 46 LINE",
"202 46 LINE SMOOTH",
"186 46 OFFCURVE",
"169 52 OFFCURVE",
"169 71 CURVE SMOOTH",
"169 77 OFFCURVE",
"171 86 OFFCURVE",
"177 96 CURVE SMOOTH",
"416 517 LINE",
"478 92 LINE SMOOTH",
"478 89 OFFCURVE",
"479 85 OFFCURVE",
"479 82 CURVE SMOOTH",
"479 58 OFFCURVE",
"465 46 OFFCURVE",
"437 46 CURVE SMOOTH",
"415 46 LINE",
"406 0 LINE",
"742 0 LINE",
"751 46 LINE",
"729 46 LINE SMOOTH",
"708 46 OFFCURVE",
"691 54 OFFCURVE",
"686 81 CURVE SMOOTH",
"564 726 LINE",
"413 677 LINE",
"63 84 LINE SMOOTH",
"48 57 OFFCURVE",
"15 46 OFFCURVE",
"-10 46 CURVE SMOOTH",
"-26 46 LINE",
"-35 0 LINE"
);
},
{
closed = 1;
nodes = (
"368 -211 OFFCURVE",
"405 -169 OFFCURVE",
"405 -120 CURVE SMOOTH",
"405 -88 OFFCURVE",
"385 -64 OFFCURVE",
"348 -64 CURVE SMOOTH",
"300 -64 OFFCURVE",
"261 -108 OFFCURVE",
"261 -156 CURVE SMOOTH",
"261 -188 OFFCURVE",
"282 -211 OFFCURVE",
"319 -211 CURVE SMOOTH"
);
},
{
closed = 1;
nodes = (
"520 177 LINE",
"534 243 LINE",
"205 243 LINE",
"192 177 LINE"
);
},
{
closed = 1;
nodes = (
"496 876 LINE SMOOTH",
"515 888 OFFCURVE",
"530 896 OFFCURVE",
"540 896 CURVE SMOOTH",
"551 896 OFFCURVE",
"564 888 OFFCURVE",
"577 876 CURVE SMOOTH",
"688 774 LINE",
"720 803 LINE",
"604 983 LINE",
"514 983 LINE",
"323 803 LINE",
"343 774 LINE"
);
}
);
width = 784;
}
);
leftKerningGroup = A;
note = Acircumflexdotbelow;
rightKerningGroup = A;
unicode = 1EAC;
},
{
glyphname = Acircumflexgrave;
lastChange = "2015-10-20 06:42:37 +0000";
layers = (
{
layerId = "308F4333-E380-49B7-B07F-C4D22ACB9582";
name = "Bold Italic";
paths = (
{
closed = 1;
nodes = (
"215 0 LINE",
"224 46 LINE",
"202 46 LINE SMOOTH",
"186 46 OFFCURVE",
"169 52 OFFCURVE",
"169 71 CURVE SMOOTH",
"169 77 OFFCURVE",
"171 86 OFFCURVE",
"177 96 CURVE SMOOTH",
"416 517 LINE",
"478 92 LINE SMOOTH",
"478 89 OFFCURVE",
"479 85 OFFCURVE",
"479 82 CURVE SMOOTH",
"479 58 OFFCURVE",
"465 46 OFFCURVE",
"437 46 CURVE SMOOTH",
"415 46 LINE",
"406 0 LINE",
"742 0 LINE",
"751 46 LINE",
"729 46 LINE SMOOTH",
"708 46 OFFCURVE",
"691 54 OFFCURVE",
"686 81 CURVE SMOOTH",
"564 726 LINE",
"413 677 LINE",
"63 84 LINE SMOOTH",
"48 57 OFFCURVE",
"15 46 OFFCURVE",
"-10 46 CURVE SMOOTH",
"-26 46 LINE",
"-35 0 LINE"
);
},
{
closed = 1;
nodes = (
"520 177 LINE",
"534 243 LINE",
"205 243 LINE",
"192 177 LINE"
);
},
{
closed = 1;
nodes = (
"443 957 LINE",
"386 1056 LINE SMOOTH",
"375 1074 OFFCURVE",
"356 1104 OFFCURVE",
"324 1104 CURVE SMOOTH",
"273 1104 OFFCURVE",
"252 1058 OFFCURVE",
"252 1038 CURVE SMOOTH",
"252 1013 OFFCURVE",
"271 992 OFFCURVE",
"302 974 CURVE SMOOTH",
"403 916 LINE"
);
},
{
closed = 1;
nodes = (
"500 875 LINE",
"516 887 OFFCURVE",
"533 896 OFFCURVE",
"543 896 CURVE SMOOTH",
"554 896 OFFCURVE",
"565 887 OFFCURVE",
"579 875 CURVE SMOOTH",
"684 774 LINE",
"714 804 LINE",
"606 983 LINE",
"517 983 LINE",
"332 804 LINE",
"351 774 LINE"
);
}
);
width = 784;
}
);
leftKerningGroup = A;
note = Acircumflexgrave;
rightKerningGroup = A;
unicode = 1EA6;
},
{
glyphname = Acircumflexhookabove;
lastChange = "2015-10-20 06:42:37 +0000";
layers = (
{
layerId = "308F4333-E380-49B7-B07F-C4D22ACB9582";
name = "Bold Italic";
paths = (
{
closed = 1;
nodes = (
"215 0 LINE",
"224 46 LINE",
"202 46 LINE SMOOTH",
"186 46 OFFCURVE",
"169 52 OFFCURVE",
"169 71 CURVE SMOOTH",
"169 77 OFFCURVE",
"171 86 OFFCURVE",
"177 96 CURVE SMOOTH",
"416 517 LINE",
"478 92 LINE SMOOTH",
"478 89 OFFCURVE",
"479 85 OFFCURVE",
"479 82 CURVE SMOOTH",
"479 58 OFFCURVE",
"465 46 OFFCURVE",
"437 46 CURVE SMOOTH",
"415 46 LINE",
"406 0 LINE",
"742 0 LINE",
"751 46 LINE",
"729 46 LINE SMOOTH",
"708 46 OFFCURVE",
"691 54 OFFCURVE",
"686 81 CURVE SMOOTH",
"564 726 LINE",
"413 677 LINE",
"63 84 LINE SMOOTH",
"48 57 OFFCURVE",
"15 46 OFFCURVE",
"-10 46 CURVE SMOOTH",
"-26 46 LINE",
"-35 0 LINE"
);
},
{
closed = 1;
nodes = (
"520 177 LINE",
"534 243 LINE",
"205 243 LINE",
"192 177 LINE"
);
},
{
closed = 1;
nodes = (
"499 874 LINE SMOOTH",
"516 886 OFFCURVE",
"533 895 OFFCURVE",
"543 895 CURVE SMOOTH",
"554 895 OFFCURVE",
"565 886 OFFCURVE",
"578 874 CURVE SMOOTH",
"684 774 LINE",
"714 803 LINE",
"606 983 LINE",
"517 983 LINE",
"332 803 LINE",
"351 774 LINE"
);
},
{
closed = 1;
nodes = (
"753 941 LINE",
"743 942 OFFCURVE",
"732 944 OFFCURVE",
"732 958 CURVE SMOOTH",
"732 959 OFFCURVE",
"732 962 OFFCURVE",
"732 964 CURVE SMOOTH",
"742 1009 OFFCURVE",
"854 1013 OFFCURVE",
"854 1084 CURVE SMOOTH",
"854 1121 OFFCURVE",
"813 1138 OFFCURVE",
"764 1138 CURVE SMOOTH",
"690 1138 OFFCURVE",
"660 1104 OFFCURVE",
"656 1083 CURVE SMOOTH",
"655 1080 OFFCURVE",
"655 1077 OFFCURVE",
"655 1074 CURVE SMOOTH",
"655 1057 OFFCURVE",
"667 1050 OFFCURVE",
"680 1050 CURVE SMOOTH",
"722 1050 OFFCURVE",
"714 1109 OFFCURVE",
"757 1109 CURVE SMOOTH",
"777 1109 OFFCURVE",
"782 1092 OFFCURVE",
"780 1079 CURVE SMOOTH",
"768 1023 OFFCURVE",
"685 1012 OFFCURVE",
"676 965 CURVE SMOOTH",
"670 935 OFFCURVE",
"701 918 OFFCURVE",
"741 918 CURVE"
);
}
);
width = 784;
}
);
leftKerningGroup = A;
note = Acircumflexhookabove;
rightKerningGroup = A;
unicode = 1EA8;
},
{
glyphname = Acircumflextilde;
lastChange = "2015-10-20 06:42:37 +0000";
layers = (
{
layerId = "308F4333-E380-49B7-B07F-C4D22ACB9582";
name = "Bold Italic";
paths = (
{
closed = 1;
nodes = (
"215 0 LINE",
"224 46 LINE",
"202 46 LINE SMOOTH",
"186 46 OFFCURVE",
"169 52 OFFCURVE",
"169 71 CURVE SMOOTH",
"169 77 OFFCURVE",
"171 86 OFFCURVE",
"177 96 CURVE SMOOTH",
"416 517 LINE",
"478 92 LINE SMOOTH",
"478 89 OFFCURVE",
"479 85 OFFCURVE",
"479 82 CURVE SMOOTH",
"479 58 OFFCURVE",
"465 46 OFFCURVE",
"437 46 CURVE SMOOTH",
"415 46 LINE",
"406 0 LINE",
"742 0 LINE",
"751 46 LINE",
"729 46 LINE SMOOTH",
"708 46 OFFCURVE",
"691 54 OFFCURVE",
"686 81 CURVE SMOOTH",
"564 726 LINE",
"413 677 LINE",
"63 84 LINE SMOOTH",
"48 57 OFFCURVE",
"15 46 OFFCURVE",
"-10 46 CURVE SMOOTH",
"-26 46 LINE",
"-35 0 LINE"
);
},
{
closed = 1;
nodes = (
"520 177 LINE",
"534 243 LINE",
"205 243 LINE",
"192 177 LINE"
);
},
{
closed = 1;
nodes = (
"499 874 LINE SMOOTH",
"516 886 OFFCURVE",
"533 895 OFFCURVE",
"543 895 CURVE SMOOTH",
"554 895 OFFCURVE",
"565 886 OFFCURVE",
"578 874 CURVE SMOOTH",
"684 774 LINE",
"714 803 LINE",
"606 983 LINE",
"517 983 LINE",
"332 803 LINE",
"351 774 LINE"
);
},
{
closed = 1;
nodes = (
"431 1037 OFFCURVE",
"449 1055 OFFCURVE",
"483 1055 CURVE SMOOTH",
"540 1055 OFFCURVE",
"580 1010 OFFCURVE",
"635 1010 CURVE SMOOTH",
"705 1010 OFFCURVE",
"753 1089 OFFCURVE",
"778 1134 CURVE",
"753 1152 LINE",
"726 1111 OFFCURVE",
"708 1095 OFFCURVE",
"675 1095 CURVE SMOOTH",
"619 1095 OFFCURVE",
"578 1139 OFFCURVE",
"523 1139 CURVE SMOOTH",
"452 1139 OFFCURVE",
"404 1060 OFFCURVE",
"380 1016 CURVE",
"404 997 LINE"
);
}
);
width = 784;
}
);
leftKerningGroup = A;
note = Acircumflextilde;
rightKerningGroup = A;
unicode = 1EAA;
},
{
glyphname = Adieresis;
lastChange = "2015-10-20 06:42:37 +0000";
layers = (
{
layerId = "308F4333-E380-49B7-B07F-C4D22ACB9582";
name = "Bold Italic";
paths = (
{
closed = 1;
nodes = (
"215 0 LINE",
"224 46 LINE",
"202 46 LINE SMOOTH",
"186 46 OFFCURVE",
"169 52 OFFCURVE",
"169 71 CURVE SMOOTH",
"169 77 OFFCURVE",
"171 86 OFFCURVE",
"177 96 CURVE SMOOTH",
"416 517 LINE",
"478 92 LINE SMOOTH",
"478 89 OFFCURVE",
"479 85 OFFCURVE",
"479 82 CURVE SMOOTH",
"479 58 OFFCURVE",
"465 46 OFFCURVE",
"437 46 CURVE SMOOTH",
"415 46 LINE",
"406 0 LINE",
"742 0 LINE",
"751 46 LINE",
"729 46 LINE SMOOTH",
"708 46 OFFCURVE",
"691 54 OFFCURVE",
"686 81 CURVE SMOOTH",
"564 726 LINE",
"413 677 LINE",
"63 84 LINE SMOOTH",
"48 57 OFFCURVE",
"15 46 OFFCURVE",
"-10 46 CURVE SMOOTH",
"-26 46 LINE",
"-35 0 LINE"
);
},
{
closed = 1;
nodes = (
"520 177 LINE",
"534 243 LINE",
"205 243 LINE",
"192 177 LINE"
);
},
{
closed = 1;
nodes = (
"425 775 OFFCURVE",
"464 816 OFFCURVE",
"464 864 CURVE SMOOTH",
"464 897 OFFCURVE",
"444 921 OFFCURVE",
"405 921 CURVE SMOOTH",
"357 921 OFFCURVE",
"321 878 OFFCURVE",
"321 829 CURVE SMOOTH",
"321 798 OFFCURVE",
"340 775 OFFCURVE",
"376 775 CURVE SMOOTH"
);
},
{
closed = 1;
nodes = (
"660 775 OFFCURVE",
"699 816 OFFCURVE",
"699 864 CURVE SMOOTH",
"699 897 OFFCURVE",
"679 921 OFFCURVE",
"641 921 CURVE SMOOTH",
"590 921 OFFCURVE",
"555 878 OFFCURVE",
"555 829 CURVE SMOOTH",
"555 798 OFFCURVE",
"574 775 OFFCURVE",
"612 775 CURVE SMOOTH"
);
}
);
width = 784;
}
);
leftKerningGroup = A;
note = Adieresis;
rightKerningGroup = A;
unicode = 00C4;
},
{
glyphname = Adotbelow;
lastChange = "2015-10-20 06:42:37 +0000";
layers = (
{
layerId = "308F4333-E380-49B7-B07F-C4D22ACB9582";
name = "Bold Italic";
paths = (
{
closed = 1;
nodes = (
"215 0 LINE",
"224 46 LINE",
"202 46 LINE SMOOTH",
"186 46 OFFCURVE",
"169 52 OFFCURVE",
"169 71 CURVE SMOOTH",
"169 77 OFFCURVE",
"171 86 OFFCURVE",
"177 96 CURVE SMOOTH",
"416 517 LINE",
"478 92 LINE SMOOTH",
"478 89 OFFCURVE",
"479 85 OFFCURVE",
"479 82 CURVE SMOOTH",
"479 58 OFFCURVE",
"465 46 OFFCURVE",
"437 46 CURVE SMOOTH",
"415 46 LINE",
"406 0 LINE",
"742 0 LINE",
"751 46 LINE",
"729 46 LINE SMOOTH",
"708 46 OFFCURVE",
"691 54 OFFCURVE",
"686 81 CURVE SMOOTH",
"564 726 LINE",
"413 677 LINE",
"63 84 LINE SMOOTH",
"48 57 OFFCURVE",
"15 46 OFFCURVE",
"-10 46 CURVE SMOOTH",
"-26 46 LINE",
"-35 0 LINE"
);
},
{
closed = 1;
nodes = (
"365 -211 OFFCURVE",
"402 -169 OFFCURVE",
"402 -120 CURVE SMOOTH",
"402 -88 OFFCURVE",
"382 -64 OFFCURVE",
"346 -64 CURVE SMOOTH",
"297 -64 OFFCURVE",
"258 -108 OFFCURVE",
"258 -156 CURVE SMOOTH",
"258 -188 OFFCURVE",
"279 -211 OFFCURVE",
"316 -211 CURVE SMOOTH"
);
},
{
closed = 1;
nodes = (
"520 177 LINE",
"534 243 LINE",
"205 243 LINE",
"192 177 LINE"
);
}
);
width = 784;
}
);
leftKerningGroup = A;
note = Adotbelow;
rightKerningGroup = A;
unicode = 1EA0;
},
{
glyphname = Agrave;
lastChange = "2015-10-20 06:42:38 +0000";
layers = (
{
layerId = "308F4333-E380-49B7-B07F-C4D22ACB9582";
name = "Bold Italic";
paths = (
{
closed = 1;
nodes = (
"215 0 LINE",
"224 46 LINE",
"202 46 LINE SMOOTH",
"186 46 OFFCURVE",
"169 52 OFFCURVE",
"169 71 CURVE SMOOTH",
"169 77 OFFCURVE",
"171 86 OFFCURVE",
"177 96 CURVE SMOOTH",
"416 517 LINE",
"478 92 LINE SMOOTH",
"478 89 OFFCURVE",
"479 85 OFFCURVE",
"479 82 CURVE SMOOTH",
"479 58 OFFCURVE",
"465 46 OFFCURVE",
"437 46 CURVE SMOOTH",
"415 46 LINE",
"406 0 LINE",
"742 0 LINE",
"751 46 LINE",
"729 46 LINE SMOOTH",
"708 46 OFFCURVE",
"691 54 OFFCURVE",
"686 81 CURVE SMOOTH",
"564 726 LINE",
"413 677 LINE",
"63 84 LINE SMOOTH",
"48 57 OFFCURVE",
"15 46 OFFCURVE",
"-10 46 CURVE SMOOTH",
"-26 46 LINE",
"-35 0 LINE"
);
},
{
closed = 1;
nodes = (
"520 177 LINE",
"534 243 LINE",
"205 243 LINE",
"192 177 LINE"
);
},
{
closed = 1;
nodes = (
"652 821 LINE",
"560 957 LINE",
"554 964 OFFCURVE",
"533 998 OFFCURVE",
"495 998 CURVE SMOOTH",
"444 998 OFFCURVE",
"424 956 OFFCURVE",
"424 933 CURVE SMOOTH",
"424 910 OFFCURVE",
"441 892 OFFCURVE",
"467 873 CURVE SMOOTH",
"610 774 LINE"
);
}
);
width = 784;
}
);
leftKerningGroup = A;
note = Agrave;
rightKerningGroup = A;
unicode = 00C0;
},
{
glyphname = Ahookabove;
lastChange = "2015-10-20 06:42:37 +0000";
layers = (
{
layerId = "308F4333-E380-49B7-B07F-C4D22ACB9582";
name = "Bold Italic";
paths = (
{
closed = 1;
nodes = (
"215 0 LINE",
"224 46 LINE",
"202 46 LINE SMOOTH",
"186 46 OFFCURVE",
"169 52 OFFCURVE",
"169 71 CURVE SMOOTH",
"169 77 OFFCURVE",
"171 86 OFFCURVE",
"177 96 CURVE SMOOTH",
"416 517 LINE",
"478 92 LINE SMOOTH",
"478 89 OFFCURVE",
"479 85 OFFCURVE",
"479 82 CURVE SMOOTH",
"479 58 OFFCURVE",
"465 46 OFFCURVE",
"437 46 CURVE SMOOTH",
"415 46 LINE",
"406 0 LINE",
"742 0 LINE",
"751 46 LINE",
"729 46 LINE SMOOTH",
"708 46 OFFCURVE",
"691 54 OFFCURVE",
"686 81 CURVE SMOOTH",
"564 726 LINE",
"413 677 LINE",
"63 84 LINE SMOOTH",
"48 57 OFFCURVE",
"15 46 OFFCURVE",
"-10 46 CURVE SMOOTH",
"-26 46 LINE",
"-35 0 LINE"
);
},
{
closed = 1;
nodes = (
"520 177 LINE",
"534 243 LINE",
"205 243 LINE",
"192 177 LINE"
);
},
{
closed = 1;
nodes = (
"574 801 LINE",
"564 802 OFFCURVE",
"551 804 OFFCURVE",
"551 819 CURVE SMOOTH",
"551 878 OFFCURVE",
"691 879 OFFCURVE",
"691 966 CURVE SMOOTH",
"691 1009 OFFCURVE",
"646 1030 OFFCURVE",
"590 1030 CURVE SMOOTH",
"502 1030 OFFCURVE",
"467 989 OFFCURVE",
"462 964 CURVE SMOOTH",
"461 960 OFFCURVE",
"461 957 OFFCURVE",
"461 954 CURVE SMOOTH",
"461 935 OFFCURVE",
"475 927 OFFCURVE",
"491 927 CURVE SMOOTH",
"511 927 OFFCURVE",
"529 940 OFFCURVE",
"533 958 CURVE SMOOTH",
"540 987 OFFCURVE",
"564 994 OFFCURVE",
"581 994 CURVE SMOOTH",
"603 994 OFFCURVE",
"609 977 OFFCURVE",
"606 960 CURVE",
"592 896 OFFCURVE",
"497 883 OFFCURVE",
"487 829 CURVE SMOOTH",
"486 826 OFFCURVE",
"486 823 OFFCURVE",
"486 821 CURVE SMOOTH",
"486 791 OFFCURVE",
"519 775 OFFCURVE",
"562 775 CURVE"
);
}
);
width = 784;
}
);
leftKerningGroup = A;
note = Ahookabove;
rightKerningGroup = A;
unicode = 1EA2;
},
{
glyphname = Amacron;
lastChange = "2015-10-20 06:42:37 +0000";
layers = (
{
layerId = "308F4333-E380-49B7-B07F-C4D22ACB9582";
name = "Bold Italic";
paths = (
{
closed = 1;
nodes = (
"215 0 LINE",
"224 46 LINE",
"202 46 LINE SMOOTH",
"186 46 OFFCURVE",
"169 52 OFFCURVE",
"169 71 CURVE SMOOTH",
"169 77 OFFCURVE",
"171 86 OFFCURVE",
"177 96 CURVE SMOOTH",
"416 517 LINE",
"478 92 LINE SMOOTH",
"478 89 OFFCURVE",
"479 85 OFFCURVE",
"479 82 CURVE SMOOTH",
"479 58 OFFCURVE",
"465 46 OFFCURVE",
"437 46 CURVE SMOOTH",
"415 46 LINE",
"406 0 LINE",
"742 0 LINE",
"751 46 LINE",
"729 46 LINE SMOOTH",
"708 46 OFFCURVE",
"691 54 OFFCURVE",
"686 81 CURVE SMOOTH",
"564 726 LINE",
"413 677 LINE",
"63 84 LINE SMOOTH",
"48 57 OFFCURVE",
"15 46 OFFCURVE",
"-10 46 CURVE SMOOTH",
"-26 46 LINE",
"-35 0 LINE"
);
},
{
closed = 1;
nodes = (
"520 177 LINE",
"534 243 LINE",
"205 243 LINE",
"192 177 LINE"
);
},
{
closed = 1;
nodes = (
"718 775 LINE",
"733 847 LINE",
"331 847 LINE",
"316 775 LINE"
);
}
);
width = 784;
}
);
leftKerningGroup = A;
note = Amacron;
rightKerningGroup = A;
unicode = 0100;
},
{
glyphname = Aogonek;
lastChange = "2015-10-20 06:42:37 +0000";
layers = (
{
layerId = "308F4333-E380-49B7-B07F-C4D22ACB9582";
name = "Bold Italic";
paths = (
{
closed = 1;
nodes = (
"215 0 LINE",
"224 46 LINE",
"202 46 LINE SMOOTH",
"186 46 OFFCURVE",
"169 52 OFFCURVE",
"169 71 CURVE SMOOTH",
"169 77 OFFCURVE",
"171 86 OFFCURVE",
"177 96 CURVE SMOOTH",
"416 517 LINE",
"478 92 LINE SMOOTH",
"478 89 OFFCURVE",
"479 85 OFFCURVE",
"479 82 CURVE SMOOTH",
"479 58 OFFCURVE",
"465 46 OFFCURVE",
"437 46 CURVE SMOOTH",
"415 46 LINE",
"406 0 LINE",
"742 0 LINE",
"751 46 LINE",
"729 46 LINE SMOOTH",
"708 46 OFFCURVE",
"691 54 OFFCURVE",
"686 81 CURVE SMOOTH",
"564 726 LINE",
"413 677 LINE",
"63 84 LINE SMOOTH",
"48 57 OFFCURVE",
"15 46 OFFCURVE",
"-10 46 CURVE SMOOTH",
"-26 46 LINE",
"-35 0 LINE"
);
},
{
closed = 1;
nodes = (
"658 -239 OFFCURVE",
"701 -225 OFFCURVE",
"742 -195 CURVE",
"733 -168 LINE",
"719 -175 OFFCURVE",
"697 -181 OFFCURVE",
"683 -181 CURVE SMOOTH",
"656 -181 OFFCURVE",
"636 -166 OFFCURVE",
"636 -136 CURVE SMOOTH",
"636 -131 OFFCURVE",
"637 -125 OFFCURVE",
"638 -119 CURVE SMOOTH",
"647 -78 OFFCURVE",
"677 -33 OFFCURVE",
"738 12 CURVE",
"678 12 LINE",
"598 -27 OFFCURVE",
"526 -91 OFFCURVE",
"526 -159 CURVE SMOOTH",
"526 -195 OFFCURVE",
"545 -239 OFFCURVE",
"628 -239 CURVE SMOOTH"
);
},
{
closed = 1;
nodes = (
"520 177 LINE",
"534 243 LINE",
"205 243 LINE",
"192 177 LINE"
);
}
);
width = 784;
}
);
leftKerningGroup = A;
note = Aogonek;
rightKerningGroup = A;
unicode = 0104;
},
{
glyphname = Aring;
lastChange = "2015-10-20 06:42:37 +0000";
layers = (
{
layerId = "308F4333-E380-49B7-B07F-C4D22ACB9582";
name = "Bold Italic";
paths = (
{
closed = 1;
nodes = (
"215 0 LINE",
"224 46 LINE",
"202 46 LINE SMOOTH",
"186 46 OFFCURVE",
"169 52 OFFCURVE",
"169 71 CURVE SMOOTH",
"169 77 OFFCURVE",
"171 86 OFFCURVE",
"177 96 CURVE SMOOTH",
"416 517 LINE",
"478 92 LINE SMOOTH",
"478 89 OFFCURVE",
"479 85 OFFCURVE",
"479 82 CURVE SMOOTH",
"479 58 OFFCURVE",
"465 46 OFFCURVE",
"437 46 CURVE SMOOTH",
"415 46 LINE",
"406 0 LINE",
"742 0 LINE",
"751 46 LINE",
"729 46 LINE SMOOTH",
"708 46 OFFCURVE",
"691 54 OFFCURVE",
"686 81 CURVE SMOOTH",
"564 726 LINE",
"413 677 LINE",
"63 84 LINE SMOOTH",
"48 57 OFFCURVE",
"15 46 OFFCURVE",
"-10 46 CURVE SMOOTH",
"-26 46 LINE",
"-35 0 LINE"
);
},
{
closed = 1;
nodes = (
"520 177 LINE",
"534 243 LINE",
"205 243 LINE",
"192 177 LINE"
);
},
{
closed = 1;
nodes = (
"574 740 OFFCURVE",
"629 785 OFFCURVE",
"642 851 CURVE SMOOTH",
"644 860 OFFCURVE",
"645 869 OFFCURVE",
"645 877 CURVE SMOOTH",
"645 929 OFFCURVE",
"610 962 OFFCURVE",
"550 962 CURVE SMOOTH",
"481 962 OFFCURVE",
"426 917 OFFCURVE",
"413 851 CURVE SMOOTH",
"411 842 OFFCURVE",
"410 833 OFFCURVE",
"410 825 CURVE SMOOTH",
"410 773 OFFCURVE",
"445 740 OFFCURVE",
"505 740 CURVE SMOOTH"
);
},
{
closed = 1;
nodes = (
"493 799 OFFCURVE",
"476 815 OFFCURVE",
"476 839 CURVE SMOOTH",
"476 877 OFFCURVE",
"507 902 OFFCURVE",
"539 902 CURVE SMOOTH",
"563 902 OFFCURVE",
"580 887 OFFCURVE",
"580 862 CURVE SMOOTH",
"580 859 OFFCURVE",
"580 855 OFFCURVE",
"579 851 CURVE SMOOTH",
"572 820 OFFCURVE",
"545 799 OFFCURVE",
"517 799 CURVE SMOOTH"
);
}
);
width = 784;
}
);
leftKerningGroup = A;
note = Aring;
rightKerningGroup = A;
unicode = 00C5;
},
{
glyphname = Aringacute;
lastChange = "2015-10-20 06:42:37 +0000";
layers = (
{
layerId = "308F4333-E380-49B7-B07F-C4D22ACB9582";
name = "Bold Italic";
paths = (
{
closed = 1;
nodes = (
"215 0 LINE",
"224 46 LINE",
"202 46 LINE SMOOTH",
"186 46 OFFCURVE",
"169 52 OFFCURVE",
"169 71 CURVE SMOOTH",
"169 77 OFFCURVE",
"171 86 OFFCURVE",
"177 96 CURVE SMOOTH",
"416 517 LINE",
"478 92 LINE SMOOTH",
"478 89 OFFCURVE",
"479 85 OFFCURVE",
"479 82 CURVE SMOOTH",
"479 58 OFFCURVE",
"465 46 OFFCURVE",
"437 46 CURVE SMOOTH",
"415 46 LINE",
"406 0 LINE",
"742 0 LINE",
"751 46 LINE",
"729 46 LINE SMOOTH",
"708 46 OFFCURVE",
"691 54 OFFCURVE",
"686 81 CURVE SMOOTH",
"564 726 LINE",
"413 677 LINE",
"63 84 LINE SMOOTH",
"48 57 OFFCURVE",
"15 46 OFFCURVE",
"-10 46 CURVE SMOOTH",
"-26 46 LINE",
"-35 0 LINE"
);
},
{
closed = 1;
nodes = (
"520 177 LINE",
"534 243 LINE",
"205 243 LINE",
"192 177 LINE"
);
},
{
closed = 1;
nodes = (
"574 740 OFFCURVE",
"629 785 OFFCURVE",
"642 851 CURVE SMOOTH",
"644 860 OFFCURVE",
"645 869 OFFCURVE",
"645 877 CURVE SMOOTH",
"645 929 OFFCURVE",
"610 962 OFFCURVE",
"550 962 CURVE SMOOTH",
"481 962 OFFCURVE",
"426 917 OFFCURVE",
"413 851 CURVE SMOOTH",
"411 842 OFFCURVE",
"410 833 OFFCURVE",
"410 825 CURVE SMOOTH",
"410 773 OFFCURVE",
"445 740 OFFCURVE",
"505 740 CURVE SMOOTH"
);
},
{
closed = 1;
nodes = (
"493 799 OFFCURVE",
"476 815 OFFCURVE",
"476 839 CURVE SMOOTH",
"476 877 OFFCURVE",
"507 902 OFFCURVE",
"539 902 CURVE SMOOTH",
"563 902 OFFCURVE",
"580 887 OFFCURVE",
"580 862 CURVE SMOOTH",
"580 859 OFFCURVE",
"580 855 OFFCURVE",
"579 851 CURVE SMOOTH",
"572 820 OFFCURVE",
"545 799 OFFCURVE",
"517 799 CURVE SMOOTH"
);
},
{
closed = 1;
nodes = (
"646 1078 LINE SMOOTH",
"692 1103 OFFCURVE",
"718 1128 OFFCURVE",
"718 1162 CURVE SMOOTH",
"718 1183 OFFCURVE",
"705 1203 OFFCURVE",
"669 1203 CURVE SMOOTH",
"632 1203 OFFCURVE",
"596 1169 OFFCURVE",
"589 1162 CURVE",
"441 1026 LINE",
"464 979 LINE"
);
}
);
width = 784;
}
);
leftKerningGroup = A;
note = Aringacute;
rightKerningGroup = A;
unicode = 01FA;
},
{
glyphname = Atilde;
lastChange = "2015-10-20 06:42:37 +0000";
layers = (
{
layerId = "308F4333-E380-49B7-B07F-C4D22ACB9582";
name = "Bold Italic";
paths = (
{
closed = 1;
nodes = (
"215 0 LINE",
"224 46 LINE",
"202 46 LINE SMOOTH",
"186 46 OFFCURVE",
"169 52 OFFCURVE",
"169 71 CURVE SMOOTH",
"169 77 OFFCURVE",
"171 86 OFFCURVE",
"177 96 CURVE SMOOTH",
"416 517 LINE",
"478 92 LINE SMOOTH",
"478 89 OFFCURVE",
"479 85 OFFCURVE",
"479 82 CURVE SMOOTH",
"479 58 OFFCURVE",
"465 46 OFFCURVE",
"437 46 CURVE SMOOTH",
"415 46 LINE",
"406 0 LINE",
"742 0 LINE",
"751 46 LINE",
"729 46 LINE SMOOTH",
"708 46 OFFCURVE",
"691 54 OFFCURVE",
"686 81 CURVE SMOOTH",
"564 726 LINE",
"413 677 LINE",
"63 84 LINE SMOOTH",
"48 57 OFFCURVE",
"15 46 OFFCURVE",
"-10 46 CURVE SMOOTH",
"-26 46 LINE",
"-35 0 LINE"
);
},
{
closed = 1;
nodes = (
"520 177 LINE",
"534 243 LINE",
"205 243 LINE",
"192 177 LINE"
);
},
{
closed = 1;
nodes = (
"376 811 OFFCURVE",
"396 828 OFFCURVE",
"433 828 CURVE SMOOTH",
"495 828 OFFCURVE",
"541 783 OFFCURVE",
"602 783 CURVE SMOOTH",
"681 783 OFFCURVE",
"732 862 OFFCURVE",
"756 907 CURVE",
"730 925 LINE",
"701 885 OFFCURVE",
"683 868 OFFCURVE",
"645 868 CURVE SMOOTH",
"583 868 OFFCURVE",
"538 913 OFFCURVE",
"476 913 CURVE SMOOTH",
"397 913 OFFCURVE",
"347 834 OFFCURVE",
"319 789 CURVE",
"347 771 LINE"
);
}
);
width = 784;
}
);
leftKerningGroup = A;
note = Atilde;
rightKerningGroup = A;
unicode = 00C3;
},
{
glyphname = AE;
lastChange = "2015-10-20 06:42:37 +0000";
layers = (
{
layerId = "308F4333-E380-49B7-B07F-C4D22ACB9582";
name = "Bold Italic";
paths = (
{
closed = 1;
nodes = (
"227 0 LINE",
"235 46 LINE",
"213 46 LINE SMOOTH",
"202 46 OFFCURVE",
"180 53 OFFCURVE",
"180 71 CURVE SMOOTH",
"180 76 OFFCURVE",
"180 80 OFFCURVE",
"183 86 CURVE",
"193 108 OFFCURVE",
"227 149 OFFCURVE",
"248 177 CURVE",
"451 177 LINE",
"433 85 LINE SMOOTH",
"427 59 OFFCURVE",
"408 46 OFFCURVE",
"372 46 CURVE SMOOTH",
"343 46 LINE",
"334 0 LINE",
"926 0 LINE",
"987 200 LINE",
"943 200 LINE",
"916 127 OFFCURVE",
"883 65 OFFCURVE",
"813 65 CURVE SMOOTH",
"617 65 LINE",
"671 329 LINE",
"790 329 LINE SMOOTH",
"821 329 OFFCURVE",
"828 306 OFFCURVE",
"828 278 CURVE SMOOTH",
"828 266 OFFCURVE",
"827 253 OFFCURVE",
"826 241 CURVE",
"861 241 LINE",
"910 482 LINE",
"875 482 LINE",
"862 439 OFFCURVE",
"847 394 OFFCURVE",
"804 394 CURVE SMOOTH",
"684 394 LINE",
"733 634 LINE",
"900 634 LINE SMOOTH",
"973 634 OFFCURVE",
"986 576 OFFCURVE",
"986 532 CURVE SMOOTH",
"986 519 OFFCURVE",
"985 508 OFFCURVE",
"984 499 CURVE",
"1029 499 LINE",
"1069 700 LINE",
"460 700 LINE",
"451 654 LINE",
"483 654 LINE SMOOTH",
"492 654 OFFCURVE",
"494 649 OFFCURVE",
"494 643 CURVE SMOOTH",
"494 639 OFFCURVE",
"493 635 OFFCURVE",
"492 631 CURVE",
"491 628 OFFCURVE",
"489 625 OFFCURVE",
"488 623 CURVE",
"77 87 LINE SMOOTH",
"57 61 OFFCURVE",
"29 46 OFFCURVE",
"2 46 CURVE SMOOTH",
"-14 46 LINE",
"-23 0 LINE"
);
},
{
closed = 1;
nodes = (
"527 548 LINE",
"465 243 LINE",
"297 243 LINE"
);
}
);
width = 1015;
}
);
leftKerningGroup = A;
note = AE;
rightKerningGroup = E;
unicode = 00C6;
},
{
glyphname = AEacute;
lastChange = "2015-10-20 06:42:37 +0000";
layers = (
{
layerId = "308F4333-E380-49B7-B07F-C4D22ACB9582";
name = "Bold Italic";
paths = (
{
closed = 1;
nodes = (
"227 0 LINE",
"235 46 LINE",
"213 46 LINE SMOOTH",
"202 46 OFFCURVE",
"180 53 OFFCURVE",
"180 71 CURVE SMOOTH",
"180 76 OFFCURVE",
"180 80 OFFCURVE",
"183 86 CURVE",
"193 108 OFFCURVE",
"227 149 OFFCURVE",
"248 177 CURVE",
"451 177 LINE",
"433 85 LINE SMOOTH",
"427 59 OFFCURVE",
"408 46 OFFCURVE",
"372 46 CURVE SMOOTH",
"343 46 LINE",
"334 0 LINE",
"926 0 LINE",
"987 200 LINE",
"943 200 LINE",
"916 127 OFFCURVE",
"883 65 OFFCURVE",
"813 65 CURVE SMOOTH",
"617 65 LINE",
"671 329 LINE",
"790 329 LINE SMOOTH",
"821 329 OFFCURVE",
"828 306 OFFCURVE",
"828 278 CURVE SMOOTH",
"828 266 OFFCURVE",
"827 253 OFFCURVE",
"826 241 CURVE",
"861 241 LINE",
"910 482 LINE",
"875 482 LINE",
"862 439 OFFCURVE",
"847 394 OFFCURVE",
"804 394 CURVE SMOOTH",
"684 394 LINE",
"733 634 LINE",
"900 634 LINE SMOOTH",
"973 634 OFFCURVE",
"986 576 OFFCURVE",
"986 532 CURVE SMOOTH",
"986 519 OFFCURVE",
"985 508 OFFCURVE",
"984 499 CURVE",
"1029 499 LINE",
"1069 700 LINE",
"460 700 LINE",
"451 654 LINE",
"483 654 LINE SMOOTH",
"492 654 OFFCURVE",
"494 649 OFFCURVE",
"494 643 CURVE SMOOTH",
"494 639 OFFCURVE",
"493 635 OFFCURVE",
"492 631 CURVE",
"491 628 OFFCURVE",
"489 625 OFFCURVE",
"488 623 CURVE",
"77 87 LINE SMOOTH",
"57 61 OFFCURVE",
"29 46 OFFCURVE",
"2 46 CURVE SMOOTH",
"-14 46 LINE",
"-23 0 LINE"
);
},
{
closed = 1;
nodes = (
"527 548 LINE",
"465 243 LINE",
"297 243 LINE"
);
},
{
closed = 1;
nodes = (
"892 873 LINE SMOOTH",
"938 898 OFFCURVE",
"964 923 OFFCURVE",
"964 957 CURVE SMOOTH",
"964 978 OFFCURVE",
"950 998 OFFCURVE",
"915 998 CURVE SMOOTH",
"877 998 OFFCURVE",
"842 964 OFFCURVE",
"835 957 CURVE",
"686 821 LINE",
"709 774 LINE"
);
}
);
width = 1015;
}
);
leftKerningGroup = A;
note = AEacute;
rightKerningGroup = E;
unicode = 01FC;
},
{
glyphname = B;
lastChange = "2015-10-20 06:42:37 +0000";
layers = (
{
layerId = "308F4333-E380-49B7-B07F-C4D22ACB9582";
name = "Bold Italic";
paths = (
{
closed = 1;
nodes = (
"366 0 LINE SMOOTH",
"544 0 OFFCURVE",
"623 78 OFFCURVE",
"647 194 CURVE SMOOTH",
"649 205 OFFCURVE",
"651 217 OFFCURVE",
"651 229 CURVE SMOOTH",
"651 287 OFFCURVE",
"619 350 OFFCURVE",
"514 370 CURVE",
"606 391 OFFCURVE",
"663 461 OFFCURVE",
"679 535 CURVE SMOOTH",
"682 550 OFFCURVE",
"684 564 OFFCURVE",
"684 578 CURVE SMOOTH",
"684 657 OFFCURVE",
"624 700 OFFCURVE",
"470 700 CURVE SMOOTH",
"114 700 LINE",
"106 654 LINE",
"136 654 LINE SMOOTH",
"167 654 OFFCURVE",
"181 644 OFFCURVE",
"181 625 CURVE SMOOTH",
"181 621 OFFCURVE",
"181 618 OFFCURVE",
"180 614 CURVE SMOOTH",
"73 85 LINE SMOOTH",
"67 59 OFFCURVE",
"48 46 OFFCURVE",
"12 46 CURVE SMOOTH",
"-19 46 LINE",
"-28 0 LINE"
);
},
{
closed = 1;
nodes = (
"313 335 LINE",
"369 335 LINE SMOOTH",
"430 335 OFFCURVE",
"466 306 OFFCURVE",
"466 246 CURVE SMOOTH",
"466 233 OFFCURVE",
"464 219 OFFCURVE",
"461 204 CURVE SMOOTH",
"443 115 OFFCURVE",
"395 65 OFFCURVE",
"325 65 CURVE SMOOTH",
"257 65 LINE"
);
},
{
closed = 1;
nodes = (
"373 634 LINE",
"415 634 LINE SMOOTH",
"465 634 OFFCURVE",
"492 612 OFFCURVE",
"492 563 CURVE SMOOTH",
"492 551 OFFCURVE",
"490 538 OFFCURVE",
"487 524 CURVE SMOOTH",
"471 449 OFFCURVE",
"434 399 OFFCURVE",
"373 399 CURVE SMOOTH",
"325 399 LINE"
);
}
);
width = 666;
}
);
note = B;
unicode = 0042;
},
{
glyphname = C;
lastChange = "2015-10-20 06:42:37 +0000";
layers = (
{
layerId = "308F4333-E380-49B7-B07F-C4D22ACB9582";
name = "Bold Italic";
paths = (
{
closed = 1;
nodes = (
"510 -10 OFFCURVE",
"626 75 OFFCURVE",
"669 175 CURVE",
"608 175 LINE",
"545 82 OFFCURVE",
"458 58 OFFCURVE",
"380 58 CURVE SMOOTH",
"290 58 OFFCURVE",
"242 120 OFFCURVE",
"242 233 CURVE SMOOTH",
"242 268 OFFCURVE",
"247 307 OFFCURVE",
"255 350 CURVE SMOOTH",
"293 534 OFFCURVE",
"395 642 OFFCURVE",
"516 642 CURVE SMOOTH",
"594 642 OFFCURVE",
"677 605 OFFCURVE",
"668 488 CURVE",
"720 488 LINE",
"764 705 LINE",
"705 705 LINE",
"696 659 LINE",
"694 652 OFFCURVE",
"690 650 OFFCURVE",
"686 650 CURVE SMOOTH",
"683 650 OFFCURVE",
"679 652 OFFCURVE",
"678 653 CURVE",
"642 681 OFFCURVE",
"583 710 OFFCURVE",
"486 710 CURVE SMOOTH",
"251 710 OFFCURVE",
"107 563 OFFCURVE",
"63 350 CURVE SMOOTH",
"56 314 OFFCURVE",
"52 279 OFFCURVE",
"52 247 CURVE SMOOTH",
"52 91 OFFCURVE",
"143 -10 OFFCURVE",
"343 -10 CURVE SMOOTH"
);
}
);
width = 704;
}
);
leftKerningGroup = C;
note = C;
rightKerningGroup = C;
unicode = 0043;
},
{
glyphname = Cacute;
lastChange = "2015-10-20 06:42:37 +0000";
layers = (
{
layerId = "308F4333-E380-49B7-B07F-C4D22ACB9582";
name = "Bold Italic";
paths = (
{
closed = 1;
nodes = (
"510 -10 OFFCURVE",
"626 75 OFFCURVE",
"669 175 CURVE",
"608 175 LINE",
"545 82 OFFCURVE",
"458 58 OFFCURVE",
"380 58 CURVE SMOOTH",
"290 58 OFFCURVE",
"242 120 OFFCURVE",
"242 233 CURVE SMOOTH",
"242 268 OFFCURVE",
"247 307 OFFCURVE",
"255 350 CURVE SMOOTH",
"293 534 OFFCURVE",
"395 642 OFFCURVE",
"516 642 CURVE SMOOTH",
"594 642 OFFCURVE",
"677 605 OFFCURVE",
"668 488 CURVE",
"720 488 LINE",
"764 705 LINE",
"705 705 LINE",
"696 659 LINE",
"694 652 OFFCURVE",
"690 650 OFFCURVE",
"686 650 CURVE SMOOTH",
"683 650 OFFCURVE",
"679 652 OFFCURVE",
"678 653 CURVE",
"642 681 OFFCURVE",
"583 710 OFFCURVE",
"486 710 CURVE SMOOTH",
"251 710 OFFCURVE",
"107 563 OFFCURVE",
"63 350 CURVE SMOOTH",
"56 314 OFFCURVE",
"52 279 OFFCURVE",
"52 247 CURVE SMOOTH",
"52 91 OFFCURVE",
"143 -10 OFFCURVE",
"343 -10 CURVE SMOOTH"
);
},
{
closed = 1;
nodes = (
"644 873 LINE SMOOTH",
"690 898 OFFCURVE",
"716 923 OFFCURVE",
"716 957 CURVE SMOOTH",
"716 978 OFFCURVE",
"703 998 OFFCURVE",
"667 998 CURVE SMOOTH",
"630 998 OFFCURVE",
"594 964 OFFCURVE",
"588 957 CURVE",
"439 821 LINE",
"462 774 LINE"
);
}
);
width = 704;
}
);
leftKerningGroup = C;
note = Cacute;
rightKerningGroup = C;
unicode = 0106;
},
{
glyphname = Ccaron;
lastChange = "2015-10-20 06:42:37 +0000";
layers = (
{
layerId = "308F4333-E380-49B7-B07F-C4D22ACB9582";
name = "Bold Italic";
paths = (
{
closed = 1;
nodes = (
"510 -10 OFFCURVE",
"626 75 OFFCURVE",
"669 175 CURVE",
"608 175 LINE",
"545 82 OFFCURVE",
"458 58 OFFCURVE",
"380 58 CURVE SMOOTH",
"290 58 OFFCURVE",
"242 120 OFFCURVE",
"242 233 CURVE SMOOTH",
"242 268 OFFCURVE",
"247 307 OFFCURVE",
"255 350 CURVE SMOOTH",
"293 534 OFFCURVE",
"395 642 OFFCURVE",
"516 642 CURVE SMOOTH",
"594 642 OFFCURVE",
"677 605 OFFCURVE",
"668 488 CURVE",
"720 488 LINE",
"764 705 LINE",
"705 705 LINE",
"696 659 LINE",
"694 652 OFFCURVE",
"690 650 OFFCURVE",
"686 650 CURVE SMOOTH",
"683 650 OFFCURVE",
"679 652 OFFCURVE",
"678 653 CURVE",
"642 681 OFFCURVE",
"583 710 OFFCURVE",
"486 710 CURVE SMOOTH",
"251 710 OFFCURVE",
"107 563 OFFCURVE",
"63 350 CURVE SMOOTH",
"56 314 OFFCURVE",
"52 279 OFFCURVE",
"52 247 CURVE SMOOTH",
"52 91 OFFCURVE",
"143 -10 OFFCURVE",
"343 -10 CURVE SMOOTH"
);
},
{
closed = 1;
nodes = (
"569 775 LINE",
"760 955 LINE",
"740 984 LINE",
"587 882 LINE SMOOTH",
"568 870 OFFCURVE",
"553 862 OFFCURVE",
"542 862 CURVE SMOOTH",
"532 862 OFFCURVE",
"518 870 OFFCURVE",
"506 882 CURVE SMOOTH",
"395 984 LINE",
"363 955 LINE",
"479 775 LINE"
);
}
);
width = 704;
}
);
leftKerningGroup = C;
note = Ccaron;
rightKerningGroup = C;
unicode = 010C;
},
{
glyphname = Ccedilla;
lastChange = "2015-10-20 06:42:37 +0000";
layers = (
{
layerId = "308F4333-E380-49B7-B07F-C4D22ACB9582";
name = "Bold Italic";
paths = (
{
closed = 1;
nodes = (
"510 -10 OFFCURVE",
"626 75 OFFCURVE",
"669 175 CURVE",
"608 175 LINE",
"545 82 OFFCURVE",
"458 58 OFFCURVE",
"380 58 CURVE SMOOTH",
"290 58 OFFCURVE",
"242 120 OFFCURVE",
"242 233 CURVE SMOOTH",
"242 268 OFFCURVE",
"247 307 OFFCURVE",
"255 350 CURVE SMOOTH",
"293 534 OFFCURVE",
"395 642 OFFCURVE",
"516 642 CURVE SMOOTH",
"594 642 OFFCURVE",
"677 605 OFFCURVE",
"668 488 CURVE",
"720 488 LINE",
"764 705 LINE",
"705 705 LINE",
"696 659 LINE",
"694 652 OFFCURVE",
"690 650 OFFCURVE",
"686 650 CURVE SMOOTH",
"683 650 OFFCURVE",
"679 652 OFFCURVE",
"678 653 CURVE",
"642 681 OFFCURVE",
"583 710 OFFCURVE",
"486 710 CURVE SMOOTH",
"251 710 OFFCURVE",
"107 563 OFFCURVE",
"63 350 CURVE SMOOTH",
"56 314 OFFCURVE",
"52 279 OFFCURVE",
"52 247 CURVE SMOOTH",
"52 91 OFFCURVE",
"143 -10 OFFCURVE",
"343 -10 CURVE SMOOTH"
);
},
{
closed = 1;
nodes = (
"268 -262 OFFCURVE",
"390 -252 OFFCURVE",
"413 -141 CURVE SMOOTH",
"414 -134 OFFCURVE",
"415 -128 OFFCURVE",
"415 -122 CURVE SMOOTH",
"415 -63 OFFCURVE",
"349 -46 OFFCURVE",
"319 -41 CURVE",
"376 27 LINE",
"313 27 LINE",
"224 -81 LINE",
"228 -93 LINE",
"250 -94 OFFCURVE",
"300 -105 OFFCURVE",
"300 -143 CURVE SMOOTH",
"300 -145 OFFCURVE",
"300 -148 OFFCURVE",
"300 -151 CURVE",
"288 -206 OFFCURVE",
"229 -218 OFFCURVE",
"163 -218 CURVE",
"155 -258 LINE",
"175 -261 OFFCURVE",
"187 -262 OFFCURVE",
"211 -262 CURVE SMOOTH"
);
}
);
width = 704;
}
);
leftKerningGroup = C;
note = Ccedilla;
rightKerningGroup = C;
unicode = 00C7;
},
{
glyphname = Ccircumflex;
lastChange = "2015-10-20 06:42:37 +0000";
layers = (
{
layerId = "308F4333-E380-49B7-B07F-C4D22ACB9582";
name = "Bold Italic";
paths = (
{
closed = 1;
nodes = (
"510 -10 OFFCURVE",
"626 75 OFFCURVE",
"669 175 CURVE",
"608 175 LINE",
"545 82 OFFCURVE",
"458 58 OFFCURVE",
"380 58 CURVE SMOOTH",
"290 58 OFFCURVE",
"242 120 OFFCURVE",
"242 233 CURVE SMOOTH",
"242 268 OFFCURVE",
"247 307 OFFCURVE",
"255 350 CURVE SMOOTH",
"293 534 OFFCURVE",
"395 642 OFFCURVE",
"516 642 CURVE SMOOTH",
"594 642 OFFCURVE",
"677 605 OFFCURVE",
"668 488 CURVE",
"720 488 LINE",
"764 705 LINE",
"705 705 LINE",
"696 659 LINE",
"694 652 OFFCURVE",
"690 650 OFFCURVE",
"686 650 CURVE SMOOTH",
"683 650 OFFCURVE",
"679 652 OFFCURVE",
"678 653 CURVE",
"642 681 OFFCURVE",
"583 710 OFFCURVE",
"486 710 CURVE SMOOTH",
"251 710 OFFCURVE",
"107 563 OFFCURVE",
"63 350 CURVE SMOOTH",
"56 314 OFFCURVE",
"52 279 OFFCURVE",
"52 247 CURVE SMOOTH",
"52 91 OFFCURVE",
"143 -10 OFFCURVE",
"343 -10 CURVE SMOOTH"
);
},
{
closed = 1;
nodes = (
"494 877 LINE SMOOTH",
"513 889 OFFCURVE",
"528 897 OFFCURVE",
"539 897 CURVE SMOOTH",
"549 897 OFFCURVE",
"563 889 OFFCURVE",
"575 877 CURVE SMOOTH",
"686 775 LINE",
"718 804 LINE",
"602 984 LINE",
"512 984 LINE",
"321 804 LINE",
"341 775 LINE"
);
}
);
width = 704;
}
);
leftKerningGroup = C;
note = Ccircumflex;
rightKerningGroup = C;
unicode = 0108;
},
{
glyphname = Cdotaccent;
lastChange = "2015-10-20 06:42:38 +0000";
layers = (
{
layerId = "308F4333-E380-49B7-B07F-C4D22ACB9582";
name = "Bold Italic";
paths = (
{
closed = 1;
nodes = (
"510 -10 OFFCURVE",
"626 75 OFFCURVE",
"669 175 CURVE",
"608 175 LINE",
"545 82 OFFCURVE",
"458 58 OFFCURVE",
"380 58 CURVE SMOOTH",
"290 58 OFFCURVE",
"242 120 OFFCURVE",
"242 233 CURVE SMOOTH",
"242 268 OFFCURVE",
"247 307 OFFCURVE",
"255 350 CURVE SMOOTH",
"293 534 OFFCURVE",
"395 642 OFFCURVE",
"516 642 CURVE SMOOTH",
"594 642 OFFCURVE",
"677 605 OFFCURVE",
"668 488 CURVE",
"720 488 LINE",
"764 705 LINE",
"705 705 LINE",
"696 659 LINE",
"694 652 OFFCURVE",
"690 650 OFFCURVE",
"686 650 CURVE SMOOTH",
"683 650 OFFCURVE",
"679 652 OFFCURVE",
"678 653 CURVE",
"642 681 OFFCURVE",
"583 710 OFFCURVE",
"486 710 CURVE SMOOTH",
"251 710 OFFCURVE",
"107 563 OFFCURVE",
"63 350 CURVE SMOOTH",
"56 314 OFFCURVE",
"52 279 OFFCURVE",
"52 247 CURVE SMOOTH",
"52 91 OFFCURVE",
"143 -10 OFFCURVE",
"343 -10 CURVE SMOOTH"
);
},
{
closed = 1;
nodes = (
"580 774 OFFCURVE",
"617 814 OFFCURVE",
"617 864 CURVE SMOOTH",
"617 895 OFFCURVE",
"597 919 OFFCURVE",
"561 919 CURVE SMOOTH",
"512 919 OFFCURVE",
"474 876 OFFCURVE",
"474 829 CURVE SMOOTH",
"474 797 OFFCURVE",
"493 774 OFFCURVE",
"531 774 CURVE SMOOTH"
);
}
);
width = 704;
}
);
leftKerningGroup = C;
note = Cdotaccent;
rightKerningGroup = C;
unicode = 010A;
},
{
glyphname = D;
lastChange = "2015-10-20 06:42:37 +0000";
layers = (
{
layerId = "308F4333-E380-49B7-B07F-C4D22ACB9582";
name = "Bold Italic";
paths = (
{
closed = 1;
nodes = (
"321 0 LINE SMOOTH",
"564 0 OFFCURVE",
"693 114 OFFCURVE",
"741 350 CURVE SMOOTH",
"750 392 OFFCURVE",
"754 430 OFFCURVE",
"754 464 CURVE SMOOTH",
"754 621 OFFCURVE",
"663 700 OFFCURVE",
"464 700 CURVE SMOOTH",
"113 700 LINE",
"105 654 LINE",
"135 654 LINE SMOOTH",
"166 654 OFFCURVE",
"180 644 OFFCURVE",
"180 625 CURVE SMOOTH",
"180 621 OFFCURVE",
"180 618 OFFCURVE",
"180 614 CURVE SMOOTH",
"72 85 LINE SMOOTH",
"66 59 OFFCURVE",
"47 46 OFFCURVE",
"11 46 CURVE SMOOTH",
"-20 46 LINE",
"-29 0 LINE"
);
},
{
closed = 1;
nodes = (
"372 635 LINE",
"449 635 LINE SMOOTH",
"524 635 OFFCURVE",
"564 582 OFFCURVE",
"564 478 CURVE SMOOTH",
"564 441 OFFCURVE",
"559 399 OFFCURVE",
"549 350 CURVE SMOOTH",
"510 158 OFFCURVE",
"431 65 OFFCURVE",
"332 65 CURVE SMOOTH",
"256 65 LINE"
);
}
);
width = 748;
}
);
note = D;
rightKerningGroup = D;
unicode = 0044;
},
{
glyphname = Eth;
lastChange = "2015-10-20 06:42:37 +0000";
layers = (
{
layerId = "308F4333-E380-49B7-B07F-C4D22ACB9582";
name = "Bold Italic";
paths = (
{
closed = 1;
nodes = (
"321 0 LINE SMOOTH",
"564 0 OFFCURVE",
"693 114 OFFCURVE",
"741 350 CURVE SMOOTH",
"750 392 OFFCURVE",
"754 430 OFFCURVE",
"754 464 CURVE SMOOTH",
"754 621 OFFCURVE",
"663 700 OFFCURVE",
"464 700 CURVE SMOOTH",
"113 700 LINE",
"105 654 LINE",
"135 654 LINE SMOOTH",
"166 654 OFFCURVE",
"180 644 OFFCURVE",
"180 625 CURVE SMOOTH",
"180 621 OFFCURVE",
"180 618 OFFCURVE",
"180 614 CURVE SMOOTH",
"72 85 LINE SMOOTH",
"66 59 OFFCURVE",
"47 46 OFFCURVE",
"11 46 CURVE SMOOTH",
"-20 46 LINE",
"-29 0 LINE"
);
},
{
closed = 1;
nodes = (
"481 294 LINE",
"498 377 LINE",
"50 377 LINE",
"33 294 LINE"
);
},
{
closed = 1;
nodes = (
"372 635 LINE",
"449 635 LINE SMOOTH",
"524 635 OFFCURVE",
"564 582 OFFCURVE",
"564 478 CURVE SMOOTH",
"564 441 OFFCURVE",
"559 399 OFFCURVE",
"549 350 CURVE SMOOTH",
"510 158 OFFCURVE",
"431 65 OFFCURVE",
"332 65 CURVE SMOOTH",
"256 65 LINE"
);
}
);
width = 748;
}
);
note = Eth;
rightKerningGroup = D;
unicode = 00D0;
},
{
glyphname = Dcaron;
lastChange = "2015-10-20 06:42:37 +0000";
layers = (
{
layerId = "308F4333-E380-49B7-B07F-C4D22ACB9582";
name = "Bold Italic";
paths = (
{
closed = 1;
nodes = (
"321 0 LINE SMOOTH",
"564 0 OFFCURVE",
"693 114 OFFCURVE",
"741 350 CURVE SMOOTH",
"750 392 OFFCURVE",
"754 430 OFFCURVE",
"754 464 CURVE SMOOTH",
"754 621 OFFCURVE",
"663 700 OFFCURVE",
"464 700 CURVE SMOOTH",
"113 700 LINE",
"105 654 LINE",
"135 654 LINE SMOOTH",
"166 654 OFFCURVE",
"180 644 OFFCURVE",
"180 625 CURVE SMOOTH",
"180 621 OFFCURVE",
"180 618 OFFCURVE",
"180 614 CURVE SMOOTH",
"72 85 LINE SMOOTH",
"66 59 OFFCURVE",
"47 46 OFFCURVE",
"11 46 CURVE SMOOTH",
"-20 46 LINE",
"-29 0 LINE"
);
},
{
closed = 1;
nodes = (
"372 635 LINE",
"449 635 LINE SMOOTH",
"524 635 OFFCURVE",
"564 582 OFFCURVE",
"564 478 CURVE SMOOTH",
"564 441 OFFCURVE",
"559 399 OFFCURVE",
"549 350 CURVE SMOOTH",
"510 158 OFFCURVE",
"431 65 OFFCURVE",
"332 65 CURVE SMOOTH",
"256 65 LINE"
);
},
{
closed = 1;
nodes = (
"502 776 LINE",
"693 956 LINE",
"673 985 LINE",
"519 883 LINE SMOOTH",
"501 871 OFFCURVE",
"486 863 OFFCURVE",
"475 863 CURVE SMOOTH",
"465 863 OFFCURVE",
"451 871 OFFCURVE",
"439 883 CURVE SMOOTH",
"327 985 LINE",
"296 956 LINE",
"412 776 LINE"
);
}
);
width = 748;
}
);
note = Dcaron;
rightKerningGroup = D;
unicode = 010E;
},
{
glyphname = Dcroat;
lastChange = "2015-10-20 06:42:37 +0000";
layers = (
{
layerId = "308F4333-E380-49B7-B07F-C4D22ACB9582";
name = "Bold Italic";
paths = (
{
closed = 1;
nodes = (
"321 0 LINE SMOOTH",
"564 0 OFFCURVE",
"693 114 OFFCURVE",
"741 350 CURVE SMOOTH",
"750 392 OFFCURVE",
"754 430 OFFCURVE",
"754 464 CURVE SMOOTH",
"754 621 OFFCURVE",
"663 700 OFFCURVE",
"464 700 CURVE SMOOTH",
"113 700 LINE",
"105 654 LINE",
"135 654 LINE SMOOTH",
"166 654 OFFCURVE",
"180 644 OFFCURVE",
"180 625 CURVE SMOOTH",
"180 621 OFFCURVE",
"180 618 OFFCURVE",
"180 614 CURVE SMOOTH",
"72 85 LINE SMOOTH",
"66 59 OFFCURVE",
"47 46 OFFCURVE",
"11 46 CURVE SMOOTH",
"-20 46 LINE",
"-29 0 LINE"
);
},
{
closed = 1;
nodes = (
"481 294 LINE",
"498 377 LINE",
"50 377 LINE",
"33 294 LINE"
);
},
{
closed = 1;
nodes = (
"372 635 LINE",
"449 635 LINE SMOOTH",
"524 635 OFFCURVE",
"564 582 OFFCURVE",
"564 478 CURVE SMOOTH",
"564 441 OFFCURVE",
"559 399 OFFCURVE",
"549 350 CURVE SMOOTH",
"510 158 OFFCURVE",
"431 65 OFFCURVE",
"332 65 CURVE SMOOTH",
"256 65 LINE"
);
}
);
width = 748;
}
);
note = Dcroat;
rightKerningGroup = D;
unicode = 0110;
},
{
glyphname = Ddotbelow;
lastChange = "2015-10-20 06:42:37 +0000";
layers = (
{
layerId = "308F4333-E380-49B7-B07F-C4D22ACB9582";
name = "Bold Italic";
paths = (
{
closed = 1;
nodes = (
"321 0 LINE SMOOTH",
"564 0 OFFCURVE",
"693 114 OFFCURVE",
"741 350 CURVE SMOOTH",
"750 392 OFFCURVE",
"754 430 OFFCURVE",
"754 464 CURVE SMOOTH",
"754 621 OFFCURVE",
"663 700 OFFCURVE",
"464 700 CURVE SMOOTH",
"113 700 LINE",
"105 654 LINE",
"135 654 LINE SMOOTH",
"166 654 OFFCURVE",
"180 644 OFFCURVE",
"180 625 CURVE SMOOTH",
"180 621 OFFCURVE",
"180 618 OFFCURVE",
"180 614 CURVE SMOOTH",
"72 85 LINE SMOOTH",
"66 59 OFFCURVE",
"47 46 OFFCURVE",
"11 46 CURVE SMOOTH",
"-20 46 LINE",
"-29 0 LINE"
);
},
{
closed = 1;
nodes = (
"339 -211 OFFCURVE",
"376 -169 OFFCURVE",
"376 -120 CURVE SMOOTH",
"376 -88 OFFCURVE",
"356 -64 OFFCURVE",
"320 -64 CURVE SMOOTH",
"271 -64 OFFCURVE",
"232 -108 OFFCURVE",
"232 -156 CURVE SMOOTH",
"232 -188 OFFCURVE",
"253 -211 OFFCURVE",
"290 -211 CURVE SMOOTH"
);
},
{
closed = 1;
nodes = (
"372 635 LINE",
"449 635 LINE SMOOTH",
"524 635 OFFCURVE",
"564 582 OFFCURVE",
"564 478 CURVE SMOOTH",
"564 441 OFFCURVE",
"559 399 OFFCURVE",
"549 350 CURVE SMOOTH",
"510 158 OFFCURVE",
"431 65 OFFCURVE",
"332 65 CURVE SMOOTH",
"256 65 LINE"
);
}
);
width = 748;
}
);
note = Ddotbelow;
rightKerningGroup = D;
unicode = 1E0C;
},
{
glyphname = Dlinebelow;
lastChange = "2015-10-20 06:42:37 +0000";
layers = (
{
layerId = "308F4333-E380-49B7-B07F-C4D22ACB9582";
name = "Bold Italic";
paths = (
{
closed = 1;
nodes = (
"321 0 LINE SMOOTH",
"564 0 OFFCURVE",
"693 114 OFFCURVE",
"741 350 CURVE SMOOTH",
"750 392 OFFCURVE",
"754 430 OFFCURVE",
"754 464 CURVE SMOOTH",
"754 621 OFFCURVE",
"663 700 OFFCURVE",
"464 700 CURVE SMOOTH",
"113 700 LINE",
"105 654 LINE",
"135 654 LINE SMOOTH",
"166 654 OFFCURVE",
"180 644 OFFCURVE",
"180 625 CURVE SMOOTH",
"180 621 OFFCURVE",
"180 618 OFFCURVE",
"180 614 CURVE SMOOTH",
"72 85 LINE SMOOTH",
"66 59 OFFCURVE",
"47 46 OFFCURVE",
"11 46 CURVE SMOOTH",
"-20 46 LINE",
"-29 0 LINE"
);
},
{
closed = 1;
nodes = (
"489 -128 LINE",
"502 -65 LINE",
"100 -65 LINE",
"86 -128 LINE"
);
},
{
closed = 1;
nodes = (
"372 635 LINE",
"449 635 LINE SMOOTH",
"524 635 OFFCURVE",
"564 582 OFFCURVE",
"564 478 CURVE SMOOTH",
"564 441 OFFCURVE",
"559 399 OFFCURVE",
"549 350 CURVE SMOOTH",
"510 158 OFFCURVE",
"431 65 OFFCURVE",
"332 65 CURVE SMOOTH",
"256 65 LINE"
);
}
);
width = 748;
}
);
note = Dlinebelow;
rightKerningGroup = D;
unicode = 1E0E;
},
{
glyphname = E;
lastChange = "2015-10-20 06:42:38 +0000";
layers = (
{
layerId = "308F4333-E380-49B7-B07F-C4D22ACB9582";
name = "Bold Italic";
paths = (
{
closed = 1;
nodes = (
"566 0 LINE",
"628 200 LINE",
"583 200 LINE",
"557 127 OFFCURVE",
"524 65 OFFCURVE",
"454 65 CURVE SMOOTH",
"255 65 LINE",
"372 634 LINE",
"542 634 LINE SMOOTH",
"614 634 OFFCURVE",
"626 576 OFFCURVE",
"626 532 CURVE SMOOTH",
"626 519 OFFCURVE",
"625 507 OFFCURVE",
"624 499 CURVE",
"669 499 LINE",
"709 700 LINE",
"113 700 LINE",
"105 654 LINE",
"135 654 LINE SMOOTH",
"166 654 OFFCURVE",
"180 644 OFFCURVE",
"180 625 CURVE SMOOTH",
"180 622 OFFCURVE",
"180 618 OFFCURVE",
"179 614 CURVE SMOOTH",
"71 85 LINE SMOOTH",
"65 59 OFFCURVE",
"47 46 OFFCURVE",
"11 46 CURVE SMOOTH",
"-20 46 LINE",
"-29 0 LINE"
);
},
{
closed = 1;
nodes = (
"501 241 LINE",
"550 482 LINE",
"515 482 LINE",
"502 439 OFFCURVE",
"487 394 OFFCURVE",
"444 394 CURVE SMOOTH",
"248 394 LINE",
"234 329 LINE",
"430 329 LINE SMOOTH",
"461 329 OFFCURVE",
"468 306 OFFCURVE",
"468 278 CURVE SMOOTH",
"468 266 OFFCURVE",
"467 253 OFFCURVE",
"466 241 CURVE"
);
}
);
width = 655;
}
);
note = E;
rightKerningGroup = E;
unicode = 0045;
},
{
glyphname = Eacute;
lastChange = "2015-10-20 06:42:38 +0000";
layers = (
{
layerId = "308F4333-E380-49B7-B07F-C4D22ACB9582";
name = "Bold Italic";
paths = (
{
closed = 1;
nodes = (
"566 0 LINE",
"628 200 LINE",
"583 200 LINE",
"557 127 OFFCURVE",
"524 65 OFFCURVE",
"454 65 CURVE SMOOTH",
"255 65 LINE",
"372 634 LINE",
"542 634 LINE SMOOTH",
"614 634 OFFCURVE",
"626 576 OFFCURVE",
"626 532 CURVE SMOOTH",
"626 519 OFFCURVE",
"625 507 OFFCURVE",
"624 499 CURVE",
"669 499 LINE",
"709 700 LINE",
"113 700 LINE",
"105 654 LINE",
"135 654 LINE SMOOTH",
"166 654 OFFCURVE",
"180 644 OFFCURVE",
"180 625 CURVE SMOOTH",
"180 622 OFFCURVE",
"180 618 OFFCURVE",
"179 614 CURVE SMOOTH",
"71 85 LINE SMOOTH",
"65 59 OFFCURVE",
"47 46 OFFCURVE",
"11 46 CURVE SMOOTH",
"-20 46 LINE",
"-29 0 LINE"
);
},
{
closed = 1;
nodes = (
"501 241 LINE",
"550 482 LINE",
"515 482 LINE",
"502 439 OFFCURVE",
"487 394 OFFCURVE",
"444 394 CURVE SMOOTH",
"248 394 LINE",
"234 329 LINE",
"430 329 LINE SMOOTH",
"461 329 OFFCURVE",
"468 306 OFFCURVE",
"468 278 CURVE SMOOTH",
"468 266 OFFCURVE",
"467 253 OFFCURVE",
"466 241 CURVE"
);
},
{
closed = 1;
nodes = (
"590 873 LINE SMOOTH",
"636 898 OFFCURVE",
"662 923 OFFCURVE",
"662 957 CURVE SMOOTH",
"662 978 OFFCURVE",
"649 998 OFFCURVE",
"613 998 CURVE SMOOTH",
"576 998 OFFCURVE",
"540 964 OFFCURVE",
"534 957 CURVE",
"385 821 LINE",
"408 774 LINE"
);
}
);
width = 655;
}
);
note = Eacute;
rightKerningGroup = E;
unicode = 00C9;
},
{
glyphname = Ebreve;
lastChange = "2015-10-20 06:42:37 +0000";
layers = (
{
layerId = "308F4333-E380-49B7-B07F-C4D22ACB9582";
name = "Bold Italic";
paths = (
{
closed = 1;
nodes = (
"566 0 LINE",
"628 200 LINE",
"583 200 LINE",
"557 127 OFFCURVE",
"524 65 OFFCURVE",
"454 65 CURVE SMOOTH",
"255 65 LINE",
"372 634 LINE",
"542 634 LINE SMOOTH",
"614 634 OFFCURVE",
"626 576 OFFCURVE",
"626 532 CURVE SMOOTH",
"626 519 OFFCURVE",
"625 507 OFFCURVE",
"624 499 CURVE",
"669 499 LINE",
"709 700 LINE",
"113 700 LINE",
"105 654 LINE",
"135 654 LINE SMOOTH",
"166 654 OFFCURVE",
"180 644 OFFCURVE",
"180 625 CURVE SMOOTH",
"180 622 OFFCURVE",
"180 618 OFFCURVE",
"179 614 CURVE SMOOTH",
"71 85 LINE SMOOTH",
"65 59 OFFCURVE",
"47 46 OFFCURVE",
"11 46 CURVE SMOOTH",
"-20 46 LINE",
"-29 0 LINE"
);
},
{
closed = 1;
nodes = (
"501 241 LINE",
"550 482 LINE",
"515 482 LINE",
"502 439 OFFCURVE",
"487 394 OFFCURVE",
"444 394 CURVE SMOOTH",
"248 394 LINE",
"234 329 LINE",
"430 329 LINE SMOOTH",
"461 329 OFFCURVE",
"468 306 OFFCURVE",
"468 278 CURVE SMOOTH",
"468 266 OFFCURVE",
"467 253 OFFCURVE",
"466 241 CURVE"
);
},
{
closed = 1;
nodes = (
"632 777 OFFCURVE",
"675 863 OFFCURVE",
"689 934 CURVE",
"646 934 LINE",
"638 906 OFFCURVE",
"608 856 OFFCURVE",
"510 856 CURVE SMOOTH",
"413 856 OFFCURVE",
"400 906 OFFCURVE",
"403 934 CURVE",
"362 934 LINE",
"359 918 OFFCURVE",
"357 902 OFFCURVE",
"357 887 CURVE SMOOTH",
"357 828 OFFCURVE",
"386 777 OFFCURVE",
"494 777 CURVE SMOOTH"
);
}
);
width = 655;
}
);
note = Ebreve;
rightKerningGroup = E;
unicode = 0114;
},
{
glyphname = Ecaron;
lastChange = "2015-10-20 06:42:37 +0000";
layers = (
{
layerId = "308F4333-E380-49B7-B07F-C4D22ACB9582";
name = "Bold Italic";
paths = (
{
closed = 1;
nodes = (
"566 0 LINE",
"628 200 LINE",
"583 200 LINE",
"557 127 OFFCURVE",
"524 65 OFFCURVE",
"454 65 CURVE SMOOTH",
"255 65 LINE",
"372 634 LINE",
"542 634 LINE SMOOTH",
"614 634 OFFCURVE",
"626 576 OFFCURVE",
"626 532 CURVE SMOOTH",
"626 519 OFFCURVE",
"625 507 OFFCURVE",
"624 499 CURVE",
"669 499 LINE",
"709 700 LINE",
"113 700 LINE",
"105 654 LINE",
"135 654 LINE SMOOTH",
"166 654 OFFCURVE",
"180 644 OFFCURVE",
"180 625 CURVE SMOOTH",
"180 622 OFFCURVE",
"180 618 OFFCURVE",
"179 614 CURVE SMOOTH",
"71 85 LINE SMOOTH",
"65 59 OFFCURVE",
"47 46 OFFCURVE",
"11 46 CURVE SMOOTH",
"-20 46 LINE",
"-29 0 LINE"
);
},
{
closed = 1;
nodes = (
"501 241 LINE",
"550 482 LINE",
"515 482 LINE",
"502 439 OFFCURVE",
"487 394 OFFCURVE",
"444 394 CURVE SMOOTH",
"248 394 LINE",
"234 329 LINE",
"430 329 LINE SMOOTH",
"461 329 OFFCURVE",
"468 306 OFFCURVE",
"468 278 CURVE SMOOTH",
"468 266 OFFCURVE",
"467 253 OFFCURVE",
"466 241 CURVE"
);
},
{
closed = 1;
nodes = (
"535 775 LINE",
"726 955 LINE",
"706 984 LINE",
"552 882 LINE SMOOTH",
"534 870 OFFCURVE",
"518 862 OFFCURVE",
"508 862 CURVE SMOOTH",
"497 862 OFFCURVE",
"484 870 OFFCURVE",
"471 882 CURVE SMOOTH",
"360 984 LINE",
"328 955 LINE",
"444 775 LINE"
);
}
);
width = 655;
}
);
note = Ecaron;
rightKerningGroup = E;
unicode = 011A;
},
{
glyphname = Ecircumflex;
lastChange = "2015-10-20 06:42:37 +0000";
layers = (
{
layerId = "308F4333-E380-49B7-B07F-C4D22ACB9582";
name = "Bold Italic";
paths = (
{
closed = 1;
nodes = (
"566 0 LINE",
"628 200 LINE",
"583 200 LINE",
"557 127 OFFCURVE",
"524 65 OFFCURVE",
"454 65 CURVE SMOOTH",
"255 65 LINE",
"372 634 LINE",
"542 634 LINE SMOOTH",
"614 634 OFFCURVE",
"626 576 OFFCURVE",
"626 532 CURVE SMOOTH",
"626 519 OFFCURVE",
"625 507 OFFCURVE",
"624 499 CURVE",
"669 499 LINE",
"709 700 LINE",
"113 700 LINE",
"105 654 LINE",
"135 654 LINE SMOOTH",
"166 654 OFFCURVE",
"180 644 OFFCURVE",
"180 625 CURVE SMOOTH",
"180 622 OFFCURVE",
"180 618 OFFCURVE",
"179 614 CURVE SMOOTH",
"71 85 LINE SMOOTH",
"65 59 OFFCURVE",
"47 46 OFFCURVE",
"11 46 CURVE SMOOTH",
"-20 46 LINE",
"-29 0 LINE"
);
},
{
closed = 1;
nodes = (
"501 241 LINE",
"550 482 LINE",
"515 482 LINE",
"502 439 OFFCURVE",
"487 394 OFFCURVE",
"444 394 CURVE SMOOTH",
"248 394 LINE",
"234 329 LINE",
"430 329 LINE SMOOTH",
"461 329 OFFCURVE",
"468 306 OFFCURVE",
"468 278 CURVE SMOOTH",
"468 266 OFFCURVE",
"467 253 OFFCURVE",
"466 241 CURVE"
);
},
{
closed = 1;
nodes = (
"465 877 LINE SMOOTH",
"483 889 OFFCURVE",
"498 897 OFFCURVE",
"509 897 CURVE SMOOTH",
"519 897 OFFCURVE",
"533 889 OFFCURVE",
"545 877 CURVE SMOOTH",
"657 775 LINE",
"688 804 LINE",
"572 984 LINE",
"482 984 LINE",
"291 804 LINE",
"311 775 LINE"
);
}
);
width = 655;
}
);
note = Ecircumflex;
rightKerningGroup = E;
unicode = 00CA;
},
{
glyphname = Ecircumflexacute;
lastChange = "2015-10-20 06:42:37 +0000";
layers = (
{
layerId = "308F4333-E380-49B7-B07F-C4D22ACB9582";
name = "Bold Italic";
paths = (
{
closed = 1;
nodes = (
"566 0 LINE",
"628 200 LINE",
"583 200 LINE",
"557 127 OFFCURVE",
"524 65 OFFCURVE",
"454 65 CURVE SMOOTH",
"255 65 LINE",
"372 634 LINE",
"542 634 LINE SMOOTH",
"614 634 OFFCURVE",
"626 576 OFFCURVE",
"626 532 CURVE SMOOTH",
"626 519 OFFCURVE",
"625 507 OFFCURVE",
"624 499 CURVE",
"669 499 LINE",
"709 700 LINE",
"113 700 LINE",
"105 654 LINE",
"135 654 LINE SMOOTH",
"166 654 OFFCURVE",
"180 644 OFFCURVE",
"180 625 CURVE SMOOTH",
"180 622 OFFCURVE",
"180 618 OFFCURVE",
"179 614 CURVE SMOOTH",
"71 85 LINE SMOOTH",
"65 59 OFFCURVE",
"47 46 OFFCURVE",
"11 46 CURVE SMOOTH",
"-20 46 LINE",
"-29 0 LINE"
);
},
{
closed = 1;
nodes = (
"501 241 LINE",
"550 482 LINE",
"515 482 LINE",
"502 439 OFFCURVE",
"487 394 OFFCURVE",
"444 394 CURVE SMOOTH",
"248 394 LINE",
"234 329 LINE",
"430 329 LINE SMOOTH",
"461 329 OFFCURVE",
"468 306 OFFCURVE",
"468 278 CURVE SMOOTH",
"468 266 OFFCURVE",
"467 253 OFFCURVE",
"466 241 CURVE"
);
},
{
closed = 1;
nodes = (
"443 875 LINE",
"459 887 OFFCURVE",
"475 896 OFFCURVE",
"486 896 CURVE SMOOTH",
"496 896 OFFCURVE",
"508 887 OFFCURVE",
"521 875 CURVE SMOOTH",
"627 774 LINE",
"657 804 LINE",
"548 983 LINE",
"460 983 LINE",
"275 804 LINE",
"294 774 LINE"
);
},
{
closed = 1;
nodes = (
"756 972 LINE SMOOTH",
"803 994 OFFCURVE",
"838 1024 OFFCURVE",
"838 1058 CURVE SMOOTH",
"838 1080 OFFCURVE",
"826 1103 OFFCURVE",
"790 1103 CURVE SMOOTH",
"756 1103 OFFCURVE",
"724 1073 OFFCURVE",
"706 1054 CURVE SMOOTH",
"612 957 LINE",
"633 916 LINE"
);
}
);
width = 655;
}
);
note = Ecircumflexacute;
rightKerningGroup = E;
unicode = 1EBE;
},
{
glyphname = Ecircumflexdotbelow;
lastChange = "2015-10-20 06:42:37 +0000";
layers = (
{
layerId = "308F4333-E380-49B7-B07F-C4D22ACB9582";
name = "Bold Italic";
paths = (
{
closed = 1;
nodes = (
"566 0 LINE",
"628 200 LINE",
"583 200 LINE",
"557 127 OFFCURVE",
"524 65 OFFCURVE",
"454 65 CURVE SMOOTH",
"255 65 LINE",
"372 634 LINE",
"542 634 LINE SMOOTH",
"614 634 OFFCURVE",
"626 576 OFFCURVE",
"626 532 CURVE SMOOTH",
"626 519 OFFCURVE",
"625 507 OFFCURVE",
"624 499 CURVE",
"669 499 LINE",
"709 700 LINE",
"113 700 LINE",
"105 654 LINE",
"135 654 LINE SMOOTH",
"166 654 OFFCURVE",
"180 644 OFFCURVE",
"180 625 CURVE SMOOTH",
"180 622 OFFCURVE",
"180 618 OFFCURVE",
"179 614 CURVE SMOOTH",
"71 85 LINE SMOOTH",
"65 59 OFFCURVE",
"47 46 OFFCURVE",
"11 46 CURVE SMOOTH",
"-20 46 LINE",
"-29 0 LINE"
);
},
{
closed = 1;
nodes = (
"313 -211 OFFCURVE",
"350 -169 OFFCURVE",
"350 -120 CURVE SMOOTH",
"350 -88 OFFCURVE",
"330 -64 OFFCURVE",
"294 -64 CURVE SMOOTH",
"245 -64 OFFCURVE",
"206 -108 OFFCURVE",
"206 -156 CURVE SMOOTH",
"206 -188 OFFCURVE",
"228 -211 OFFCURVE",
"264 -211 CURVE SMOOTH"
);
},
{
closed = 1;
nodes = (
"501 241 LINE",
"550 482 LINE",
"515 482 LINE",
"502 439 OFFCURVE",
"487 394 OFFCURVE",
"444 394 CURVE SMOOTH",
"248 394 LINE",
"234 329 LINE",
"430 329 LINE SMOOTH",
"461 329 OFFCURVE",
"468 306 OFFCURVE",
"468 278 CURVE SMOOTH",
"468 266 OFFCURVE",
"467 253 OFFCURVE",
"466 241 CURVE"
);
},
{
closed = 1;
nodes = (
"439 877 LINE SMOOTH",
"457 889 OFFCURVE",
"472 897 OFFCURVE",
"483 897 CURVE SMOOTH",
"493 897 OFFCURVE",
"507 889 OFFCURVE",
"519 877 CURVE SMOOTH",
"631 775 LINE",
"662 804 LINE",
"546 984 LINE",
"456 984 LINE",
"265 804 LINE",
"285 775 LINE"
);
}
);
width = 655;
}
);
note = Ecircumflexdotbelow;
rightKerningGroup = E;
unicode = 1EC6;
},
{
glyphname = Ecircumflexgrave;
lastChange = "2015-10-20 06:42:37 +0000";
layers = (
{
layerId = "308F4333-E380-49B7-B07F-C4D22ACB9582";
name = "Bold Italic";
paths = (
{
closed = 1;
nodes = (
"566 0 LINE",
"628 200 LINE",
"583 200 LINE",
"557 127 OFFCURVE",
"524 65 OFFCURVE",
"454 65 CURVE SMOOTH",
"255 65 LINE",
"372 634 LINE",
"542 634 LINE SMOOTH",
"614 634 OFFCURVE",
"626 576 OFFCURVE",
"626 532 CURVE SMOOTH",
"626 519 OFFCURVE",
"625 507 OFFCURVE",
"624 499 CURVE",
"669 499 LINE",
"709 700 LINE",
"113 700 LINE",
"105 654 LINE",
"135 654 LINE SMOOTH",
"166 654 OFFCURVE",
"180 644 OFFCURVE",
"180 625 CURVE SMOOTH",
"180 622 OFFCURVE",
"180 618 OFFCURVE",
"179 614 CURVE SMOOTH",
"71 85 LINE SMOOTH",
"65 59 OFFCURVE",
"47 46 OFFCURVE",
"11 46 CURVE SMOOTH",
"-20 46 LINE",
"-29 0 LINE"
);
},
{
closed = 1;
nodes = (
"501 241 LINE",
"550 482 LINE",
"515 482 LINE",
"502 439 OFFCURVE",
"487 394 OFFCURVE",
"444 394 CURVE SMOOTH",
"248 394 LINE",
"234 329 LINE",
"430 329 LINE SMOOTH",
"461 329 OFFCURVE",
"468 306 OFFCURVE",
"468 278 CURVE SMOOTH",
"468 266 OFFCURVE",
"467 253 OFFCURVE",
"466 241 CURVE"
);
},
{
closed = 1;
nodes = (
"385 957 LINE",
"328 1056 LINE SMOOTH",
"318 1074 OFFCURVE",
"299 1104 OFFCURVE",
"266 1104 CURVE SMOOTH",
"215 1104 OFFCURVE",
"194 1058 OFFCURVE",
"194 1038 CURVE SMOOTH",
"194 1013 OFFCURVE",
"213 992 OFFCURVE",
"245 974 CURVE SMOOTH",
"346 916 LINE"
);
},
{
closed = 1;
nodes = (
"443 875 LINE",
"459 887 OFFCURVE",
"475 896 OFFCURVE",
"486 896 CURVE SMOOTH",
"496 896 OFFCURVE",
"508 887 OFFCURVE",
"521 875 CURVE SMOOTH",
"627 774 LINE",
"657 804 LINE",
"548 983 LINE",
"460 983 LINE",
"275 804 LINE",
"294 774 LINE"
);
}
);
width = 655;
}
);
note = Ecircumflexgrave;
rightKerningGroup = E;
unicode = 1EC0;
},
{
glyphname = Ecircumflexhookabove;
lastChange = "2015-10-20 06:42:37 +0000";
layers = (
{
layerId = "308F4333-E380-49B7-B07F-C4D22ACB9582";
name = "Bold Italic";
paths = (
{
closed = 1;
nodes = (
"566 0 LINE",
"628 200 LINE",
"583 200 LINE",
"557 127 OFFCURVE",
"524 65 OFFCURVE",
"454 65 CURVE SMOOTH",
"255 65 LINE",
"372 634 LINE",
"542 634 LINE SMOOTH",
"614 634 OFFCURVE",
"626 576 OFFCURVE",
"626 532 CURVE SMOOTH",
"626 519 OFFCURVE",
"625 507 OFFCURVE",
"624 499 CURVE",
"669 499 LINE",
"709 700 LINE",
"113 700 LINE",
"105 654 LINE",
"135 654 LINE SMOOTH",
"166 654 OFFCURVE",
"180 644 OFFCURVE",
"180 625 CURVE SMOOTH",
"180 622 OFFCURVE",
"180 618 OFFCURVE",
"179 614 CURVE SMOOTH",
"71 85 LINE SMOOTH",
"65 59 OFFCURVE",
"47 46 OFFCURVE",
"11 46 CURVE SMOOTH",
"-20 46 LINE",
"-29 0 LINE"
);
},
{
closed = 1;
nodes = (
"501 241 LINE",
"550 482 LINE",
"515 482 LINE",
"502 439 OFFCURVE",
"487 394 OFFCURVE",
"444 394 CURVE SMOOTH",
"248 394 LINE",
"234 329 LINE",
"430 329 LINE SMOOTH",
"461 329 OFFCURVE",
"468 306 OFFCURVE",
"468 278 CURVE SMOOTH",
"468 266 OFFCURVE",
"467 253 OFFCURVE",
"466 241 CURVE"
);
},
{
closed = 1;
nodes = (
"443 875 LINE SMOOTH",
"460 887 OFFCURVE",
"476 896 OFFCURVE",
"487 896 CURVE SMOOTH",
"497 896 OFFCURVE",
"509 887 OFFCURVE",
"521 875 CURVE SMOOTH",
"628 775 LINE",
"658 804 LINE",
"549 984 LINE",
"461 984 LINE",
"276 804 LINE",
"295 775 LINE"
);
},
{
closed = 1;
nodes = (
"696 942 LINE",
"686 943 OFFCURVE",
"675 945 OFFCURVE",
"675 959 CURVE SMOOTH",
"675 960 OFFCURVE",
"675 963 OFFCURVE",
"676 965 CURVE SMOOTH",
"685 1010 OFFCURVE",
"798 1014 OFFCURVE",
"798 1085 CURVE SMOOTH",
"798 1122 OFFCURVE",
"756 1139 OFFCURVE",
"708 1139 CURVE SMOOTH",
"634 1139 OFFCURVE",
"603 1105 OFFCURVE",
"599 1084 CURVE SMOOTH",
"598 1081 OFFCURVE",
"598 1078 OFFCURVE",
"598 1075 CURVE SMOOTH",
"598 1058 OFFCURVE",
"611 1051 OFFCURVE",
"623 1051 CURVE SMOOTH",
"665 1051 OFFCURVE",
"658 1110 OFFCURVE",
"701 1110 CURVE SMOOTH",
"720 1110 OFFCURVE",
"726 1093 OFFCURVE",
"723 1080 CURVE SMOOTH",
"711 1024 OFFCURVE",
"629 1013 OFFCURVE",
"619 966 CURVE SMOOTH",
"613 936 OFFCURVE",
"644 919 OFFCURVE",
"684 919 CURVE"
);
}
);
width = 655;
}
);
note = Ecircumflexhookabove;
rightKerningGroup = E;
unicode = 1EC2;
},
{
glyphname = Ecircumflextilde;
lastChange = "2015-10-20 06:42:37 +0000";
layers = (
{
layerId = "308F4333-E380-49B7-B07F-C4D22ACB9582";
name = "Bold Italic";
paths = (
{
closed = 1;
nodes = (
"566 0 LINE",
"628 200 LINE",
"583 200 LINE",
"557 127 OFFCURVE",
"524 65 OFFCURVE",
"454 65 CURVE SMOOTH",
"255 65 LINE",
"372 634 LINE",
"542 634 LINE SMOOTH",
"614 634 OFFCURVE",
"626 576 OFFCURVE",
"626 532 CURVE SMOOTH",
"626 519 OFFCURVE",
"625 507 OFFCURVE",
"624 499 CURVE",
"669 499 LINE",
"709 700 LINE",
"113 700 LINE",
"105 654 LINE",
"135 654 LINE SMOOTH",
"166 654 OFFCURVE",
"180 644 OFFCURVE",
"180 625 CURVE SMOOTH",
"180 622 OFFCURVE",
"180 618 OFFCURVE",
"179 614 CURVE SMOOTH",
"71 85 LINE SMOOTH",
"65 59 OFFCURVE",
"47 46 OFFCURVE",
"11 46 CURVE SMOOTH",
"-20 46 LINE",
"-29 0 LINE"
);
},
{
closed = 1;
nodes = (
"501 241 LINE",
"550 482 LINE",
"515 482 LINE",
"502 439 OFFCURVE",
"487 394 OFFCURVE",
"444 394 CURVE SMOOTH",
"248 394 LINE",
"234 329 LINE",
"430 329 LINE SMOOTH",
"461 329 OFFCURVE",
"468 306 OFFCURVE",
"468 278 CURVE SMOOTH",
"468 266 OFFCURVE",
"467 253 OFFCURVE",
"466 241 CURVE"
);
},
{
closed = 1;
nodes = (
"443 875 LINE SMOOTH",
"460 887 OFFCURVE",
"476 896 OFFCURVE",
"487 896 CURVE SMOOTH",
"497 896 OFFCURVE",
"509 887 OFFCURVE",
"521 875 CURVE SMOOTH",
"628 775 LINE",
"658 804 LINE",
"549 984 LINE",
"461 984 LINE",
"276 804 LINE",
"295 775 LINE"
);
},
{
closed = 1;
nodes = (
"374 1038 OFFCURVE",
"393 1056 OFFCURVE",
"426 1056 CURVE SMOOTH",
"483 1056 OFFCURVE",
"523 1011 OFFCURVE",
"578 1011 CURVE SMOOTH",
"648 1011 OFFCURVE",
"696 1090 OFFCURVE",
"721 1135 CURVE",
"696 1153 LINE",
"669 1112 OFFCURVE",
"652 1096 OFFCURVE",
"618 1096 CURVE SMOOTH",
"563 1096 OFFCURVE",
"521 1140 OFFCURVE",
"467 1140 CURVE SMOOTH",
"396 1140 OFFCURVE",
"348 1061 OFFCURVE",
"324 1017 CURVE",
"348 998 LINE"
);
}
);
width = 655;
}
);
note = Ecircumflextilde;
rightKerningGroup = E;
unicode = 1EC4;
},
{
glyphname = Edieresis;
lastChange = "2015-10-20 06:42:37 +0000";
layers = (
{
layerId = "308F4333-E380-49B7-B07F-C4D22ACB9582";
name = "Bold Italic";
paths = (
{
closed = 1;
nodes = (
"566 0 LINE",
"628 200 LINE",
"583 200 LINE",
"557 127 OFFCURVE",
"524 65 OFFCURVE",
"454 65 CURVE SMOOTH",
"255 65 LINE",
"372 634 LINE",
"542 634 LINE SMOOTH",
"614 634 OFFCURVE",
"626 576 OFFCURVE",
"626 532 CURVE SMOOTH",
"626 519 OFFCURVE",
"625 507 OFFCURVE",
"624 499 CURVE",
"669 499 LINE",
"709 700 LINE",
"113 700 LINE",
"105 654 LINE",
"135 654 LINE SMOOTH",
"166 654 OFFCURVE",
"180 644 OFFCURVE",
"180 625 CURVE SMOOTH",
"180 622 OFFCURVE",
"180 618 OFFCURVE",
"179 614 CURVE SMOOTH",
"71 85 LINE SMOOTH",
"65 59 OFFCURVE",
"47 46 OFFCURVE",
"11 46 CURVE SMOOTH",
"-20 46 LINE",
"-29 0 LINE"
);
},
{
closed = 1;
nodes = (
"501 241 LINE",
"550 482 LINE",
"515 482 LINE",
"502 439 OFFCURVE",
"487 394 OFFCURVE",
"444 394 CURVE SMOOTH",
"248 394 LINE",
"234 329 LINE",
"430 329 LINE SMOOTH",
"461 329 OFFCURVE",
"468 306 OFFCURVE",
"468 278 CURVE SMOOTH",
"468 266 OFFCURVE",
"467 253 OFFCURVE",
"466 241 CURVE"
);
},
{
closed = 1;
nodes = (
"429 775 OFFCURVE",
"468 816 OFFCURVE",
"468 864 CURVE SMOOTH",
"468 897 OFFCURVE",
"447 921 OFFCURVE",
"409 921 CURVE SMOOTH",
"361 921 OFFCURVE",
"324 878 OFFCURVE",
"324 829 CURVE SMOOTH",
"324 798 OFFCURVE",
"344 775 OFFCURVE",
"380 775 CURVE SMOOTH"
);
},
{
closed = 1;
nodes = (
"664 775 OFFCURVE",
"703 816 OFFCURVE",
"703 864 CURVE SMOOTH",
"703 897 OFFCURVE",
"683 921 OFFCURVE",
"645 921 CURVE SMOOTH",
"594 921 OFFCURVE",
"559 878 OFFCURVE",
"559 829 CURVE SMOOTH",
"559 798 OFFCURVE",
"578 775 OFFCURVE",
"615 775 CURVE SMOOTH"
);
}
);
width = 655;
}
);
note = Edieresis;
rightKerningGroup = E;
unicode = 00CB;
},
{
glyphname = Edotaccent;
lastChange = "2015-10-20 06:42:37 +0000";
layers = (
{
layerId = "308F4333-E380-49B7-B07F-C4D22ACB9582";
name = "Bold Italic";
paths = (
{
closed = 1;
nodes = (
"566 0 LINE",
"628 200 LINE",
"583 200 LINE",
"557 127 OFFCURVE",
"524 65 OFFCURVE",
"454 65 CURVE SMOOTH",
"255 65 LINE",
"372 634 LINE",
"542 634 LINE SMOOTH",
"614 634 OFFCURVE",
"626 576 OFFCURVE",
"626 532 CURVE SMOOTH",
"626 519 OFFCURVE",
"625 507 OFFCURVE",
"624 499 CURVE",
"669 499 LINE",
"709 700 LINE",
"113 700 LINE",
"105 654 LINE",
"135 654 LINE SMOOTH",
"166 654 OFFCURVE",
"180 644 OFFCURVE",
"180 625 CURVE SMOOTH",
"180 622 OFFCURVE",
"180 618 OFFCURVE",
"179 614 CURVE SMOOTH",
"71 85 LINE SMOOTH",
"65 59 OFFCURVE",
"47 46 OFFCURVE",
"11 46 CURVE SMOOTH",
"-20 46 LINE",
"-29 0 LINE"
);
},
{
closed = 1;
nodes = (
"501 241 LINE",
"550 482 LINE",
"515 482 LINE",
"502 439 OFFCURVE",
"487 394 OFFCURVE",
"444 394 CURVE SMOOTH",
"248 394 LINE",
"234 329 LINE",
"430 329 LINE SMOOTH",
"461 329 OFFCURVE",
"468 306 OFFCURVE",
"468 278 CURVE SMOOTH",
"468 266 OFFCURVE",
"467 253 OFFCURVE",
"466 241 CURVE"
);
},
{
closed = 1;
nodes = (
"546 774 OFFCURVE",
"584 814 OFFCURVE",
"584 864 CURVE SMOOTH",
"584 895 OFFCURVE",
"564 919 OFFCURVE",
"527 919 CURVE SMOOTH",
"478 919 OFFCURVE",
"441 876 OFFCURVE",
"441 829 CURVE SMOOTH",
"441 797 OFFCURVE",
"460 774 OFFCURVE",
"497 774 CURVE SMOOTH"
);
}
);
width = 655;
}
);
note = Edotaccent;
rightKerningGroup = E;
unicode = 0116;
},
{
glyphname = Edotbelow;
lastChange = "2015-10-20 06:42:37 +0000";
layers = (
{
layerId = "308F4333-E380-49B7-B07F-C4D22ACB9582";
name = "Bold Italic";
paths = (
{
closed = 1;
nodes = (
"566 0 LINE",
"628 200 LINE",
"583 200 LINE",
"557 127 OFFCURVE",
"524 65 OFFCURVE",
"454 65 CURVE SMOOTH",
"255 65 LINE",
"372 634 LINE",
"542 634 LINE SMOOTH",
"614 634 OFFCURVE",
"626 576 OFFCURVE",
"626 532 CURVE SMOOTH",
"626 519 OFFCURVE",
"625 507 OFFCURVE",
"624 499 CURVE",
"669 499 LINE",
"709 700 LINE",
"113 700 LINE",
"105 654 LINE",
"135 654 LINE SMOOTH",
"166 654 OFFCURVE",
"180 644 OFFCURVE",
"180 625 CURVE SMOOTH",
"180 622 OFFCURVE",
"180 618 OFFCURVE",
"179 614 CURVE SMOOTH",
"71 85 LINE SMOOTH",
"65 59 OFFCURVE",
"47 46 OFFCURVE",
"11 46 CURVE SMOOTH",
"-20 46 LINE",
"-29 0 LINE"
);
},
{
closed = 1;
nodes = (
"298 -211 OFFCURVE",
"335 -169 OFFCURVE",
"335 -120 CURVE SMOOTH",
"335 -88 OFFCURVE",
"315 -64 OFFCURVE",
"278 -64 CURVE SMOOTH",
"229 -64 OFFCURVE",
"191 -108 OFFCURVE",
"191 -156 CURVE SMOOTH",
"191 -188 OFFCURVE",
"212 -211 OFFCURVE",
"249 -211 CURVE SMOOTH"
);
},
{
closed = 1;
nodes = (
"501 241 LINE",
"550 482 LINE",
"515 482 LINE",
"502 439 OFFCURVE",
"487 394 OFFCURVE",
"444 394 CURVE SMOOTH",
"248 394 LINE",
"234 329 LINE",
"430 329 LINE SMOOTH",
"461 329 OFFCURVE",
"468 306 OFFCURVE",
"468 278 CURVE SMOOTH",
"468 266 OFFCURVE",
"467 253 OFFCURVE",
"466 241 CURVE"
);
}
);
width = 655;
}
);
note = Edotbelow;
rightKerningGroup = E;
unicode = 1EB8;
},
{
glyphname = Egrave;
lastChange = "2015-10-20 06:42:37 +0000";
layers = (
{
layerId = "308F4333-E380-49B7-B07F-C4D22ACB9582";
name = "Bold Italic";
paths = (
{
closed = 1;
nodes = (
"566 0 LINE",
"628 200 LINE",
"583 200 LINE",
"557 127 OFFCURVE",
"524 65 OFFCURVE",
"454 65 CURVE SMOOTH",
"255 65 LINE",
"372 634 LINE",
"542 634 LINE SMOOTH",
"614 634 OFFCURVE",
"626 576 OFFCURVE",
"626 532 CURVE SMOOTH",
"626 519 OFFCURVE",
"625 507 OFFCURVE",
"624 499 CURVE",
"669 499 LINE",
"709 700 LINE",
"113 700 LINE",
"105 654 LINE",
"135 654 LINE SMOOTH",
"166 654 OFFCURVE",
"180 644 OFFCURVE",
"180 625 CURVE SMOOTH",
"180 622 OFFCURVE",
"180 618 OFFCURVE",
"179 614 CURVE SMOOTH",
"71 85 LINE SMOOTH",
"65 59 OFFCURVE",
"47 46 OFFCURVE",
"11 46 CURVE SMOOTH",
"-20 46 LINE",
"-29 0 LINE"
);
},
{
closed = 1;
nodes = (
"501 241 LINE",
"550 482 LINE",
"515 482 LINE",
"502 439 OFFCURVE",
"487 394 OFFCURVE",
"444 394 CURVE SMOOTH",
"248 394 LINE",
"234 329 LINE",
"430 329 LINE SMOOTH",
"461 329 OFFCURVE",
"468 306 OFFCURVE",
"468 278 CURVE SMOOTH",
"468 266 OFFCURVE",
"467 253 OFFCURVE",
"466 241 CURVE"
);
},
{
closed = 1;
nodes = (
"622 821 LINE",
"530 957 LINE",
"524 964 OFFCURVE",
"503 998 OFFCURVE",
"466 998 CURVE SMOOTH",
"415 998 OFFCURVE",
"395 956 OFFCURVE",
"395 933 CURVE SMOOTH",
"395 910 OFFCURVE",
"411 892 OFFCURVE",
"437 873 CURVE SMOOTH",
"580 774 LINE"
);
}
);
width = 655;
}
);
note = Egrave;
rightKerningGroup = E;
unicode = 00C8;
},
{
glyphname = Ehookabove;
lastChange = "2015-10-20 06:42:37 +0000";
layers = (
{
layerId = "308F4333-E380-49B7-B07F-C4D22ACB9582";
name = "Bold Italic";
paths = (
{
closed = 1;
nodes = (
"566 0 LINE",
"628 200 LINE",
"583 200 LINE",
"557 127 OFFCURVE",
"524 65 OFFCURVE",
"454 65 CURVE SMOOTH",
"255 65 LINE",
"372 634 LINE",
"542 634 LINE SMOOTH",
"614 634 OFFCURVE",
"626 576 OFFCURVE",
"626 532 CURVE SMOOTH",
"626 519 OFFCURVE",
"625 507 OFFCURVE",
"624 499 CURVE",
"669 499 LINE",
"709 700 LINE",
"113 700 LINE",
"105 654 LINE",
"135 654 LINE SMOOTH",
"166 654 OFFCURVE",
"180 644 OFFCURVE",
"180 625 CURVE SMOOTH",
"180 622 OFFCURVE",
"180 618 OFFCURVE",
"179 614 CURVE SMOOTH",
"71 85 LINE SMOOTH",
"65 59 OFFCURVE",
"47 46 OFFCURVE",
"11 46 CURVE SMOOTH",
"-20 46 LINE",
"-29 0 LINE"
);
},
{
closed = 1;
nodes = (
"501 241 LINE",
"550 482 LINE",
"515 482 LINE",
"502 439 OFFCURVE",
"487 394 OFFCURVE",
"444 394 CURVE SMOOTH",
"248 394 LINE",
"234 329 LINE",
"430 329 LINE SMOOTH",
"461 329 OFFCURVE",
"468 306 OFFCURVE",
"468 278 CURVE SMOOTH",
"468 266 OFFCURVE",
"467 253 OFFCURVE",
"466 241 CURVE"
);
},
{
closed = 1;
nodes = (
"526 801 LINE",
"516 802 OFFCURVE",
"503 804 OFFCURVE",
"503 819 CURVE SMOOTH",
"503 878 OFFCURVE",
"643 879 OFFCURVE",
"643 966 CURVE SMOOTH",
"643 1009 OFFCURVE",
"598 1030 OFFCURVE",
"542 1030 CURVE SMOOTH",
"454 1030 OFFCURVE",
"419 989 OFFCURVE",
"414 964 CURVE SMOOTH",
"413 960 OFFCURVE",
"413 957 OFFCURVE",
"413 954 CURVE SMOOTH",
"413 935 OFFCURVE",
"427 927 OFFCURVE",
"443 927 CURVE SMOOTH",
"463 927 OFFCURVE",
"481 940 OFFCURVE",
"485 958 CURVE SMOOTH",
"492 987 OFFCURVE",
"516 994 OFFCURVE",
"533 994 CURVE SMOOTH",
"555 994 OFFCURVE",
"561 977 OFFCURVE",
"558 960 CURVE",
"544 896 OFFCURVE",
"449 883 OFFCURVE",
"439 829 CURVE SMOOTH",
"438 826 OFFCURVE",
"438 823 OFFCURVE",
"438 821 CURVE SMOOTH",
"438 791 OFFCURVE",
"471 775 OFFCURVE",
"514 775 CURVE"
);
}
);
width = 655;
}
);
note = Ehookabove;
rightKerningGroup = E;
unicode = 1EBA;
},
{
glyphname = Emacron;
lastChange = "2015-10-20 06:42:38 +0000";
layers = (
{
layerId = "308F4333-E380-49B7-B07F-C4D22ACB9582";
name = "Bold Italic";
paths = (
{
closed = 1;
nodes = (
"566 0 LINE",
"628 200 LINE",
"583 200 LINE",
"557 127 OFFCURVE",
"524 65 OFFCURVE",
"454 65 CURVE SMOOTH",
"255 65 LINE",
"372 634 LINE",
"542 634 LINE SMOOTH",
"614 634 OFFCURVE",
"626 576 OFFCURVE",
"626 532 CURVE SMOOTH",
"626 519 OFFCURVE",
"625 507 OFFCURVE",
"624 499 CURVE",
"669 499 LINE",
"709 700 LINE",
"113 700 LINE",
"105 654 LINE",
"135 654 LINE SMOOTH",
"166 654 OFFCURVE",
"180 644 OFFCURVE",
"180 625 CURVE SMOOTH",
"180 622 OFFCURVE",
"180 618 OFFCURVE",
"179 614 CURVE SMOOTH",
"71 85 LINE SMOOTH",
"65 59 OFFCURVE",
"47 46 OFFCURVE",
"11 46 CURVE SMOOTH",
"-20 46 LINE",
"-29 0 LINE"
);
},
{
closed = 1;
nodes = (
"501 241 LINE",
"550 482 LINE",
"515 482 LINE",
"502 439 OFFCURVE",
"487 394 OFFCURVE",
"444 394 CURVE SMOOTH",
"248 394 LINE",
"234 329 LINE",
"430 329 LINE SMOOTH",
"461 329 OFFCURVE",
"468 306 OFFCURVE",
"468 278 CURVE SMOOTH",
"468 266 OFFCURVE",
"467 253 OFFCURVE",
"466 241 CURVE"
);
},
{
closed = 1;
nodes = (
"687 775 LINE",
"703 847 LINE",
"300 847 LINE",
"285 775 LINE"
);
}
);
width = 655;
}
);
note = Emacron;
rightKerningGroup = E;
unicode = 0112;
},
{
glyphname = Eogonek;
lastChange = "2015-10-20 06:42:37 +0000";
layers = (
{
layerId = "308F4333-E380-49B7-B07F-C4D22ACB9582";
name = "Bold Italic";
paths = (
{
closed = 1;
nodes = (
"566 0 LINE",
"628 200 LINE",
"583 200 LINE",
"557 127 OFFCURVE",
"524 65 OFFCURVE",
"454 65 CURVE SMOOTH",
"255 65 LINE",
"372 634 LINE",
"542 634 LINE SMOOTH",
"614 634 OFFCURVE",
"626 576 OFFCURVE",
"626 532 CURVE SMOOTH",
"626 519 OFFCURVE",
"625 507 OFFCURVE",
"624 499 CURVE",
"669 499 LINE",
"709 700 LINE",
"113 700 LINE",
"105 654 LINE",
"135 654 LINE SMOOTH",
"166 654 OFFCURVE",
"180 644 OFFCURVE",
"180 625 CURVE SMOOTH",
"180 622 OFFCURVE",
"180 618 OFFCURVE",
"179 614 CURVE SMOOTH",
"71 85 LINE SMOOTH",
"65 59 OFFCURVE",
"47 46 OFFCURVE",
"11 46 CURVE SMOOTH",
"-20 46 LINE",
"-29 0 LINE"
);
},
{
closed = 1;
nodes = (
"460 -239 OFFCURVE",
"503 -225 OFFCURVE",
"544 -195 CURVE",
"536 -168 LINE",
"521 -175 OFFCURVE",
"499 -181 OFFCURVE",
"485 -181 CURVE SMOOTH",
"458 -181 OFFCURVE",
"439 -166 OFFCURVE",
"439 -136 CURVE SMOOTH",
"439 -131 OFFCURVE",
"440 -125 OFFCURVE",
"441 -119 CURVE SMOOTH",
"449 -78 OFFCURVE",
"479 -33 OFFCURVE",
"540 12 CURVE",
"480 12 LINE",
"400 -27 OFFCURVE",
"328 -91 OFFCURVE",
"328 -159 CURVE SMOOTH",
"328 -195 OFFCURVE",
"348 -239 OFFCURVE",
"430 -239 CURVE SMOOTH"
);
},
{
closed = 1;
nodes = (
"501 241 LINE",
"550 482 LINE",
"515 482 LINE",
"502 439 OFFCURVE",
"487 394 OFFCURVE",
"444 394 CURVE SMOOTH",
"248 394 LINE",
"234 329 LINE",
"430 329 LINE SMOOTH",
"461 329 OFFCURVE",
"468 306 OFFCURVE",
"468 278 CURVE SMOOTH",
"468 266 OFFCURVE",
"467 253 OFFCURVE",
"466 241 CURVE"
);
}
);
width = 655;
}
);
note = Eogonek;
rightKerningGroup = E;
unicode = 0118;
},
{
glyphname = Etilde;
lastChange = "2015-10-20 06:42:37 +0000";
layers = (
{
layerId = "308F4333-E380-49B7-B07F-C4D22ACB9582";
name = "Bold Italic";
paths = (
{
closed = 1;
nodes = (
"566 0 LINE",
"628 200 LINE",
"583 200 LINE",
"557 127 OFFCURVE",
"524 65 OFFCURVE",
"454 65 CURVE SMOOTH",
"255 65 LINE",
"372 634 LINE",
"542 634 LINE SMOOTH",
"614 634 OFFCURVE",
"626 576 OFFCURVE",
"626 532 CURVE SMOOTH",
"626 519 OFFCURVE",
"625 507 OFFCURVE",
"624 499 CURVE",
"669 499 LINE",
"709 700 LINE",
"113 700 LINE",
"105 654 LINE",
"135 654 LINE SMOOTH",
"166 654 OFFCURVE",
"180 644 OFFCURVE",
"180 625 CURVE SMOOTH",
"180 622 OFFCURVE",
"180 618 OFFCURVE",
"179 614 CURVE SMOOTH",
"71 85 LINE SMOOTH",
"65 59 OFFCURVE",
"47 46 OFFCURVE",
"11 46 CURVE SMOOTH",
"-20 46 LINE",
"-29 0 LINE"
);
},
{
closed = 1;
nodes = (
"501 241 LINE",
"550 482 LINE",
"515 482 LINE",
"502 439 OFFCURVE",
"487 394 OFFCURVE",
"444 394 CURVE SMOOTH",
"248 394 LINE",
"234 329 LINE",
"430 329 LINE SMOOTH",
"461 329 OFFCURVE",
"468 306 OFFCURVE",
"468 278 CURVE SMOOTH",
"468 266 OFFCURVE",
"467 253 OFFCURVE",
"466 241 CURVE"
);
},
{
closed = 1;
nodes = (
"336 811 OFFCURVE",
"356 828 OFFCURVE",
"393 828 CURVE SMOOTH",
"455 828 OFFCURVE",
"501 783 OFFCURVE",
"562 783 CURVE SMOOTH",
"640 783 OFFCURVE",
"691 862 OFFCURVE",
"716 907 CURVE",
"689 925 LINE",
"660 885 OFFCURVE",
"642 868 OFFCURVE",
"605 868 CURVE SMOOTH",
"542 868 OFFCURVE",
"497 913 OFFCURVE",
"436 913 CURVE SMOOTH",
"357 913 OFFCURVE",
"306 834 OFFCURVE",
"278 789 CURVE",
"306 771 LINE"
);
}
);
width = 655;
}
);
note = Etilde;
rightKerningGroup = E;
unicode = 1EBC;
},
{
glyphname = F;
lastChange = "2015-10-20 06:42:37 +0000";
layers = (
{
layerId = "308F4333-E380-49B7-B07F-C4D22ACB9582";
name = "Bold Italic";
paths = (
{
closed = 1;
nodes = (
"325 0 LINE",
"334 46 LINE",
"304 46 LINE SMOOTH",
"274 46 OFFCURVE",
"259 55 OFFCURVE",
"259 74 CURVE SMOOTH",
"259 78 OFFCURVE",
"259 81 OFFCURVE",
"260 85 CURVE SMOOTH",
"372 634 LINE",
"542 634 LINE SMOOTH",
"614 634 OFFCURVE",
"626 575 OFFCURVE",
"626 531 CURVE SMOOTH",
"626 518 OFFCURVE",
"625 507 OFFCURVE",
"624 499 CURVE",
"669 499 LINE",
"709 700 LINE",
"113 700 LINE",
"105 654 LINE",
"135 654 LINE SMOOTH",
"166 654 OFFCURVE",
"180 644 OFFCURVE",
"180 625 CURVE SMOOTH",
"180 622 OFFCURVE",
"180 618 OFFCURVE",
"179 614 CURVE SMOOTH",
"71 85 LINE SMOOTH",
"65 59 OFFCURVE",
"47 46 OFFCURVE",
"11 46 CURVE SMOOTH",
"-20 46 LINE",
"-29 0 LINE"
);
},
{
closed = 1;
nodes = (
"494 205 LINE",
"543 446 LINE",
"507 446 LINE",
"494 403 OFFCURVE",
"480 358 OFFCURVE",
"437 358 CURVE SMOOTH",
"243 358 LINE",
"229 293 LINE",
"423 293 LINE SMOOTH",
"453 293 OFFCURVE",
"461 271 OFFCURVE",
"461 243 CURVE SMOOTH",
"461 231 OFFCURVE",
"460 218 OFFCURVE",
"458 205 CURVE"
);
}
);
width = 647;
}
);
note = F;
unicode = 0046;
},
{
glyphname = G;
lastChange = "2015-10-20 06:42:38 +0000";
layers = (
{
layerId = "308F4333-E380-49B7-B07F-C4D22ACB9582";
name = "Bold Italic";
paths = (
{
closed = 1;
nodes = (
"444 -10 OFFCURVE",
"534 -1 OFFCURVE",
"655 64 CURVE",
"691 242 LINE SMOOTH",
"703 301 OFFCURVE",
"718 318 OFFCURVE",
"772 318 CURVE",
"778 348 LINE",
"454 348 LINE",
"447 311 LINE",
"462 311 LINE SMOOTH",
"503 311 OFFCURVE",
"515 293 OFFCURVE",
"515 274 CURVE SMOOTH",
"515 270 OFFCURVE",
"514 265 OFFCURVE",
"513 261 CURVE SMOOTH",
"474 72 LINE",
"443 61 OFFCURVE",
"410 58 OFFCURVE",
"380 58 CURVE SMOOTH",
"290 58 OFFCURVE",
"242 120 OFFCURVE",
"242 233 CURVE SMOOTH",
"242 268 OFFCURVE",
"247 307 OFFCURVE",
"255 350 CURVE SMOOTH",
"293 534 OFFCURVE",
"399 642 OFFCURVE",
"520 642 CURVE SMOOTH",
"595 642 OFFCURVE",
"678 609 OFFCURVE",
"678 505 CURVE SMOOTH",
"678 500 OFFCURVE",
"678 494 OFFCURVE",
"677 488 CURVE",
"729 488 LINE",
"773 705 LINE",
"713 705 LINE",
"705 659 LINE",
"703 653 OFFCURVE",
"699 650 OFFCURVE",
"695 650 CURVE SMOOTH",
"691 650 OFFCURVE",
"687 652 OFFCURVE",
"686 653 CURVE",
"651 683 OFFCURVE",
"584 710 OFFCURVE",
"490 710 CURVE SMOOTH",
"255 710 OFFCURVE",
"107 563 OFFCURVE",
"63 350 CURVE SMOOTH",
"56 314 OFFCURVE",
"52 279 OFFCURVE",
"52 247 CURVE SMOOTH",
"52 91 OFFCURVE",
"143 -10 OFFCURVE",
"343 -10 CURVE SMOOTH"
);
}
);
width = 752;
}
);
leftKerningGroup = G;
note = G;
rightKerningGroup = G;
unicode = 0047;
},
{
glyphname = Gbreve;
lastChange = "2015-10-20 06:42:37 +0000";
layers = (
{
layerId = "308F4333-E380-49B7-B07F-C4D22ACB9582";
name = "Bold Italic";
paths = (
{
closed = 1;
nodes = (
"444 -10 OFFCURVE",
"534 -1 OFFCURVE",
"655 64 CURVE",
"691 242 LINE SMOOTH",
"703 301 OFFCURVE",
"718 318 OFFCURVE",
"772 318 CURVE",
"778 348 LINE",
"454 348 LINE",
"447 311 LINE",
"462 311 LINE SMOOTH",
"503 311 OFFCURVE",
"515 293 OFFCURVE",
"515 274 CURVE SMOOTH",
"515 270 OFFCURVE",
"514 265 OFFCURVE",
"513 261 CURVE SMOOTH",
"474 72 LINE",
"443 61 OFFCURVE",
"410 58 OFFCURVE",
"380 58 CURVE SMOOTH",
"290 58 OFFCURVE",
"242 120 OFFCURVE",
"242 233 CURVE SMOOTH",
"242 268 OFFCURVE",
"247 307 OFFCURVE",
"255 350 CURVE SMOOTH",
"293 534 OFFCURVE",
"399 642 OFFCURVE",
"520 642 CURVE SMOOTH",
"595 642 OFFCURVE",
"678 609 OFFCURVE",
"678 505 CURVE SMOOTH",
"678 500 OFFCURVE",
"678 494 OFFCURVE",
"677 488 CURVE",
"729 488 LINE",
"773 705 LINE",
"713 705 LINE",
"705 659 LINE",
"703 653 OFFCURVE",
"699 650 OFFCURVE",
"695 650 CURVE SMOOTH",
"691 650 OFFCURVE",
"687 652 OFFCURVE",
"686 653 CURVE",
"651 683 OFFCURVE",
"584 710 OFFCURVE",
"490 710 CURVE SMOOTH",
"255 710 OFFCURVE",
"107 563 OFFCURVE",
"63 350 CURVE SMOOTH",
"56 314 OFFCURVE",
"52 279 OFFCURVE",
"52 247 CURVE SMOOTH",
"52 91 OFFCURVE",
"143 -10 OFFCURVE",
"343 -10 CURVE SMOOTH"
);
},
{
closed = 1;
nodes = (
"650 778 OFFCURVE",
"693 864 OFFCURVE",
"708 935 CURVE",
"664 935 LINE",
"657 907 OFFCURVE",
"626 857 OFFCURVE",
"528 857 CURVE SMOOTH",
"431 857 OFFCURVE",
"419 907 OFFCURVE",
"421 935 CURVE",
"380 935 LINE",
"377 919 OFFCURVE",
"375 903 OFFCURVE",
"375 888 CURVE SMOOTH",
"375 829 OFFCURVE",
"404 778 OFFCURVE",
"513 778 CURVE SMOOTH"
);
}
);
width = 752;
}
);
leftKerningGroup = G;
note = Gbreve;
rightKerningGroup = G;
unicode = 011E;
},
{
glyphname = Gcaron;
lastChange = "2015-10-20 06:42:37 +0000";
layers = (
{
layerId = "308F4333-E380-49B7-B07F-C4D22ACB9582";
name = "Bold Italic";
paths = (
{
closed = 1;
nodes = (
"444 -10 OFFCURVE",
"534 -1 OFFCURVE",
"655 64 CURVE",
"691 242 LINE SMOOTH",
"703 301 OFFCURVE",
"718 318 OFFCURVE",
"772 318 CURVE",
"778 348 LINE",
"454 348 LINE",
"447 311 LINE",
"462 311 LINE SMOOTH",
"503 311 OFFCURVE",
"515 293 OFFCURVE",
"515 274 CURVE SMOOTH",
"515 270 OFFCURVE",
"514 265 OFFCURVE",
"513 261 CURVE SMOOTH",
"474 72 LINE",
"443 61 OFFCURVE",
"410 58 OFFCURVE",
"380 58 CURVE SMOOTH",
"290 58 OFFCURVE",
"242 120 OFFCURVE",
"242 233 CURVE SMOOTH",
"242 268 OFFCURVE",
"247 307 OFFCURVE",
"255 350 CURVE SMOOTH",
"293 534 OFFCURVE",
"399 642 OFFCURVE",
"520 642 CURVE SMOOTH",
"595 642 OFFCURVE",
"678 609 OFFCURVE",
"678 505 CURVE SMOOTH",
"678 500 OFFCURVE",
"678 494 OFFCURVE",
"677 488 CURVE",
"729 488 LINE",
"773 705 LINE",
"713 705 LINE",
"705 659 LINE",
"703 653 OFFCURVE",
"699 650 OFFCURVE",
"695 650 CURVE SMOOTH",
"691 650 OFFCURVE",
"687 652 OFFCURVE",
"686 653 CURVE",
"651 683 OFFCURVE",
"584 710 OFFCURVE",
"490 710 CURVE SMOOTH",
"255 710 OFFCURVE",
"107 563 OFFCURVE",
"63 350 CURVE SMOOTH",
"56 314 OFFCURVE",
"52 279 OFFCURVE",
"52 247 CURVE SMOOTH",
"52 91 OFFCURVE",
"143 -10 OFFCURVE",
"343 -10 CURVE SMOOTH"
);
},
{
closed = 1;
nodes = (
"574 775 LINE",
"765 955 LINE",
"745 984 LINE",
"591 882 LINE SMOOTH",
"573 870 OFFCURVE",
"558 862 OFFCURVE",
"547 862 CURVE SMOOTH",
"537 862 OFFCURVE",
"523 870 OFFCURVE",
"511 882 CURVE SMOOTH",
"399 984 LINE",
"368 955 LINE",
"484 775 LINE"
);
}
);
width = 752;
}
);
leftKerningGroup = G;
note = Gcaron;
rightKerningGroup = G;
unicode = 01E6;
},
{
glyphname = Gcircumflex;
lastChange = "2015-10-20 06:42:37 +0000";
layers = (
{
layerId = "308F4333-E380-49B7-B07F-C4D22ACB9582";
name = "Bold Italic";
paths = (
{
closed = 1;
nodes = (
"444 -10 OFFCURVE",
"534 -1 OFFCURVE",
"655 64 CURVE",
"691 242 LINE SMOOTH",
"703 301 OFFCURVE",
"718 318 OFFCURVE",
"772 318 CURVE",
"778 348 LINE",
"454 348 LINE",
"447 311 LINE",
"462 311 LINE SMOOTH",
"503 311 OFFCURVE",
"515 293 OFFCURVE",
"515 274 CURVE SMOOTH",
"515 270 OFFCURVE",
"514 265 OFFCURVE",
"513 261 CURVE SMOOTH",
"474 72 LINE",
"443 61 OFFCURVE",
"410 58 OFFCURVE",
"380 58 CURVE SMOOTH",
"290 58 OFFCURVE",
"242 120 OFFCURVE",
"242 233 CURVE SMOOTH",
"242 268 OFFCURVE",
"247 307 OFFCURVE",
"255 350 CURVE SMOOTH",
"293 534 OFFCURVE",
"399 642 OFFCURVE",
"520 642 CURVE SMOOTH",
"595 642 OFFCURVE",
"678 609 OFFCURVE",
"678 505 CURVE SMOOTH",
"678 500 OFFCURVE",
"678 494 OFFCURVE",
"677 488 CURVE",
"729 488 LINE",
"773 705 LINE",
"713 705 LINE",
"705 659 LINE",
"703 653 OFFCURVE",
"699 650 OFFCURVE",
"695 650 CURVE SMOOTH",
"691 650 OFFCURVE",
"687 652 OFFCURVE",
"686 653 CURVE",
"651 683 OFFCURVE",
"584 710 OFFCURVE",
"490 710 CURVE SMOOTH",
"255 710 OFFCURVE",
"107 563 OFFCURVE",
"63 350 CURVE SMOOTH",
"56 314 OFFCURVE",
"52 279 OFFCURVE",
"52 247 CURVE SMOOTH",
"52 91 OFFCURVE",
"143 -10 OFFCURVE",
"343 -10 CURVE SMOOTH"
);
},
{
closed = 1;
nodes = (
"504 878 LINE SMOOTH",
"522 890 OFFCURVE",
"538 898 OFFCURVE",
"548 898 CURVE SMOOTH",
"559 898 OFFCURVE",
"572 890 OFFCURVE",
"585 878 CURVE SMOOTH",
"696 776 LINE",
"728 805 LINE",
"612 985 LINE",
"521 985 LINE",
"330 805 LINE",
"350 776 LINE"
);
}
);
width = 752;
}
);
leftKerningGroup = G;
note = Gcircumflex;
rightKerningGroup = G;
unicode = 011C;
},
{
glyphname = Gcommaaccent;
lastChange = "2015-10-20 06:42:37 +0000";
layers = (
{
layerId = "308F4333-E380-49B7-B07F-C4D22ACB9582";
name = "Bold Italic";
paths = (
{
closed = 1;
nodes = (
"444 -10 OFFCURVE",
"534 -1 OFFCURVE",
"655 64 CURVE",
"691 242 LINE SMOOTH",
"703 301 OFFCURVE",
"718 318 OFFCURVE",
"772 318 CURVE",
"778 348 LINE",
"454 348 LINE",
"447 311 LINE",
"462 311 LINE SMOOTH",
"503 311 OFFCURVE",
"515 293 OFFCURVE",
"515 274 CURVE SMOOTH",
"515 270 OFFCURVE",
"514 265 OFFCURVE",
"513 261 CURVE SMOOTH",
"474 72 LINE",
"443 61 OFFCURVE",
"410 58 OFFCURVE",
"380 58 CURVE SMOOTH",
"290 58 OFFCURVE",
"242 120 OFFCURVE",
"242 233 CURVE SMOOTH",
"242 268 OFFCURVE",
"247 307 OFFCURVE",
"255 350 CURVE SMOOTH",
"293 534 OFFCURVE",
"399 642 OFFCURVE",
"520 642 CURVE SMOOTH",
"595 642 OFFCURVE",
"678 609 OFFCURVE",
"678 505 CURVE SMOOTH",
"678 500 OFFCURVE",
"678 494 OFFCURVE",
"677 488 CURVE",
"729 488 LINE",
"773 705 LINE",
"713 705 LINE",
"705 659 LINE",
"703 653 OFFCURVE",
"699 650 OFFCURVE",
"695 650 CURVE SMOOTH",
"691 650 OFFCURVE",
"687 652 OFFCURVE",
"686 653 CURVE",
"651 683 OFFCURVE",
"584 710 OFFCURVE",
"490 710 CURVE SMOOTH",
"255 710 OFFCURVE",
"107 563 OFFCURVE",
"63 350 CURVE SMOOTH",
"56 314 OFFCURVE",
"52 279 OFFCURVE",
"52 247 CURVE SMOOTH",
"52 91 OFFCURVE",
"143 -10 OFFCURVE",
"343 -10 CURVE SMOOTH"
);
},
{
closed = 1;
nodes = (
"298 -354 OFFCURVE",
"394 -268 OFFCURVE",
"411 -182 CURVE SMOOTH",
"413 -171 OFFCURVE",
"414 -161 OFFCURVE",
"414 -151 CURVE SMOOTH",
"414 -103 OFFCURVE",
"387 -76 OFFCURVE",
"348 -76 CURVE SMOOTH",
"297 -76 OFFCURVE",
"260 -116 OFFCURVE",
"260 -155 CURVE SMOOTH",
"260 -186 OFFCURVE",
"284 -205 OFFCURVE",
"284 -236 CURVE SMOOTH",
"284 -240 OFFCURVE",
"283 -245 OFFCURVE",
"282 -250 CURVE SMOOTH",
"274 -295 OFFCURVE",
"241 -335 OFFCURVE",
"201 -371 CURVE",
"223 -398 LINE"
);
}
);
width = 752;
}
);
leftKerningGroup = G;
note = Gcommaaccent;
rightKerningGroup = G;
unicode = 0122;
},
{
glyphname = Gdotaccent;
lastChange = "2015-10-20 06:42:37 +0000";
layers = (
{
layerId = "308F4333-E380-49B7-B07F-C4D22ACB9582";
name = "Bold Italic";
paths = (
{
closed = 1;
nodes = (
"444 -10 OFFCURVE",
"534 -1 OFFCURVE",
"655 64 CURVE",
"691 242 LINE SMOOTH",
"703 301 OFFCURVE",
"718 318 OFFCURVE",
"772 318 CURVE",
"778 348 LINE",
"454 348 LINE",
"447 311 LINE",
"462 311 LINE SMOOTH",
"503 311 OFFCURVE",
"515 293 OFFCURVE",
"515 274 CURVE SMOOTH",
"515 270 OFFCURVE",
"514 265 OFFCURVE",
"513 261 CURVE SMOOTH",
"474 72 LINE",
"443 61 OFFCURVE",
"410 58 OFFCURVE",
"380 58 CURVE SMOOTH",
"290 58 OFFCURVE",
"242 120 OFFCURVE",
"242 233 CURVE SMOOTH",
"242 268 OFFCURVE",
"247 307 OFFCURVE",
"255 350 CURVE SMOOTH",
"293 534 OFFCURVE",
"399 642 OFFCURVE",
"520 642 CURVE SMOOTH",
"595 642 OFFCURVE",
"678 609 OFFCURVE",
"678 505 CURVE SMOOTH",
"678 500 OFFCURVE",
"678 494 OFFCURVE",
"677 488 CURVE",
"729 488 LINE",
"773 705 LINE",
"713 705 LINE",
"705 659 LINE",
"703 653 OFFCURVE",
"699 650 OFFCURVE",
"695 650 CURVE SMOOTH",
"691 650 OFFCURVE",
"687 652 OFFCURVE",
"686 653 CURVE",
"651 683 OFFCURVE",
"584 710 OFFCURVE",
"490 710 CURVE SMOOTH",
"255 710 OFFCURVE",
"107 563 OFFCURVE",
"63 350 CURVE SMOOTH",
"56 314 OFFCURVE",
"52 279 OFFCURVE",
"52 247 CURVE SMOOTH",
"52 91 OFFCURVE",
"143 -10 OFFCURVE",
"343 -10 CURVE SMOOTH"
);
},
{
closed = 1;
nodes = (
"578 775 OFFCURVE",
"615 815 OFFCURVE",
"615 865 CURVE SMOOTH",
"615 896 OFFCURVE",
"595 920 OFFCURVE",
"559 920 CURVE SMOOTH",
"510 920 OFFCURVE",
"472 877 OFFCURVE",
"472 830 CURVE SMOOTH",
"472 798 OFFCURVE",
"492 775 OFFCURVE",
"529 775 CURVE SMOOTH"
);
}
);
width = 752;
}
);
leftKerningGroup = G;
note = Gdotaccent;
rightKerningGroup = G;
unicode = 0120;
},
{
glyphname = Gmacron;
lastChange = "2015-10-20 06:42:37 +0000";
layers = (
{
layerId = "308F4333-E380-49B7-B07F-C4D22ACB9582";
name = "Bold Italic";
paths = (
{
closed = 1;
nodes = (
"444 -10 OFFCURVE",
"534 -1 OFFCURVE",
"655 64 CURVE",
"691 242 LINE SMOOTH",
"703 301 OFFCURVE",
"718 318 OFFCURVE",
"772 318 CURVE",
"778 348 LINE",
"454 348 LINE",
"447 311 LINE",
"462 311 LINE SMOOTH",
"503 311 OFFCURVE",
"515 293 OFFCURVE",
"515 274 CURVE SMOOTH",
"515 270 OFFCURVE",
"514 265 OFFCURVE",
"513 261 CURVE SMOOTH",
"474 72 LINE",
"443 61 OFFCURVE",
"410 58 OFFCURVE",
"380 58 CURVE SMOOTH",
"290 58 OFFCURVE",
"242 120 OFFCURVE",
"242 233 CURVE SMOOTH",
"242 268 OFFCURVE",
"247 307 OFFCURVE",
"255 350 CURVE SMOOTH",
"293 534 OFFCURVE",
"399 642 OFFCURVE",
"520 642 CURVE SMOOTH",
"595 642 OFFCURVE",
"678 609 OFFCURVE",
"678 505 CURVE SMOOTH",
"678 500 OFFCURVE",
"678 494 OFFCURVE",
"677 488 CURVE",
"729 488 LINE",
"773 705 LINE",
"713 705 LINE",
"705 659 LINE",
"703 653 OFFCURVE",
"699 650 OFFCURVE",
"695 650 CURVE SMOOTH",
"691 650 OFFCURVE",
"687 652 OFFCURVE",
"686 653 CURVE",
"651 683 OFFCURVE",
"584 710 OFFCURVE",
"490 710 CURVE SMOOTH",
"255 710 OFFCURVE",
"107 563 OFFCURVE",
"63 350 CURVE SMOOTH",
"56 314 OFFCURVE",
"52 279 OFFCURVE",
"52 247 CURVE SMOOTH",
"52 91 OFFCURVE",
"143 -10 OFFCURVE",
"343 -10 CURVE SMOOTH"
);
},
{
closed = 1;
nodes = (
"703 801 LINE",
"718 873 LINE",
"316 873 LINE",
"300 801 LINE"
);
}
);
width = 752;
}
);
leftKerningGroup = G;
note = Gmacron;
rightKerningGroup = G;
unicode = 1E20;
},
{
glyphname = H;
lastChange = "2015-10-20 06:42:37 +0000";
layers = (
{
layerId = "308F4333-E380-49B7-B07F-C4D22ACB9582";
name = "Bold Italic";
paths = (
{
closed = 1;
nodes = (
"766 0 LINE",
"775 46 LINE",
"744 46 LINE SMOOTH",
"713 46 OFFCURVE",
"700 55 OFFCURVE",
"700 74 CURVE SMOOTH",
"700 77 OFFCURVE",
"700 81 OFFCURVE",
"701 85 CURVE SMOOTH",
"808 614 LINE SMOOTH",
"814 640 OFFCURVE",
"832 654 OFFCURVE",
"869 654 CURVE SMOOTH",
"900 654 LINE",
"908 700 LINE",
"554 700 LINE",
"545 654 LINE",
"575 654 LINE SMOOTH",
"607 654 OFFCURVE",
"620 644 OFFCURVE",
"620 625 CURVE SMOOTH",
"620 622 OFFCURVE",
"620 618 OFFCURVE",
"619 614 CURVE SMOOTH",
"512 85 LINE SMOOTH",
"506 59 OFFCURVE",
"488 46 OFFCURVE",
"450 46 CURVE SMOOTH",
"420 46 LINE",
"412 0 LINE"
);
},
{
closed = 1;
nodes = (
"326 0 LINE",
"335 46 LINE",
"304 46 LINE SMOOTH",
"274 46 OFFCURVE",
"260 55 OFFCURVE",
"260 74 CURVE SMOOTH",
"260 77 OFFCURVE",
"260 81 OFFCURVE",
"261 85 CURVE SMOOTH",
"369 614 LINE SMOOTH",
"374 640 OFFCURVE",
"393 654 OFFCURVE",
"429 654 CURVE SMOOTH",
"460 654 LINE",
"468 700 LINE",
"114 700 LINE",
"106 654 LINE",
"136 654 LINE SMOOTH",
"167 654 OFFCURVE",
"180 644 OFFCURVE",
"180 625 CURVE SMOOTH",
"180 622 OFFCURVE",
"180 618 OFFCURVE",
"180 614 CURVE SMOOTH",
"72 85 LINE SMOOTH",
"66 59 OFFCURVE",
"48 46 OFFCURVE",
"12 46 CURVE SMOOTH",
"-19 46 LINE",
"-28 0 LINE"
);
},
{
closed = 1;
nodes = (
"641 323 LINE",
"655 389 LINE",
"228 389 LINE",
"215 323 LINE"
);
}
);
width = 815;
}
);
note = H;
unicode = 0048;
},
{
glyphname = Hbar;
lastChange = "2015-10-20 06:42:38 +0000";
layers = (
{
layerId = "308F4333-E380-49B7-B07F-C4D22ACB9582";
name = "Bold Italic";
paths = (
{
closed = 1;
nodes = (
"766 0 LINE",
"775 46 LINE",
"744 46 LINE SMOOTH",
"713 46 OFFCURVE",
"700 55 OFFCURVE",
"700 74 CURVE SMOOTH",
"700 77 OFFCURVE",
"700 81 OFFCURVE",
"701 85 CURVE SMOOTH",
"808 614 LINE SMOOTH",
"814 640 OFFCURVE",
"832 654 OFFCURVE",
"869 654 CURVE SMOOTH",
"900 654 LINE",
"908 700 LINE",
"554 700 LINE",
"545 654 LINE",
"575 654 LINE SMOOTH",
"607 654 OFFCURVE",
"620 644 OFFCURVE",
"620 625 CURVE SMOOTH",
"620 622 OFFCURVE",
"620 618 OFFCURVE",
"619 614 CURVE SMOOTH",
"512 85 LINE SMOOTH",
"506 59 OFFCURVE",
"488 46 OFFCURVE",
"450 46 CURVE SMOOTH",
"420 46 LINE",
"412 0 LINE"
);
},
{
closed = 1;
nodes = (
"326 0 LINE",
"335 46 LINE",
"304 46 LINE SMOOTH",
"274 46 OFFCURVE",
"260 55 OFFCURVE",
"260 74 CURVE SMOOTH",
"260 77 OFFCURVE",
"260 81 OFFCURVE",
"261 85 CURVE SMOOTH",
"369 614 LINE SMOOTH",
"374 640 OFFCURVE",
"393 654 OFFCURVE",
"429 654 CURVE SMOOTH",
"460 654 LINE",
"468 700 LINE",
"114 700 LINE",
"106 654 LINE",
"136 654 LINE SMOOTH",
"167 654 OFFCURVE",
"180 644 OFFCURVE",
"180 625 CURVE SMOOTH",
"180 622 OFFCURVE",
"180 618 OFFCURVE",
"180 614 CURVE SMOOTH",
"72 85 LINE SMOOTH",
"66 59 OFFCURVE",
"48 46 OFFCURVE",
"12 46 CURVE SMOOTH",
"-19 46 LINE",
"-28 0 LINE"
);
},
{
closed = 1;
nodes = (
"641 323 LINE",
"655 389 LINE",
"228 389 LINE",
"215 323 LINE"
);
},
{
closed = 1;
nodes = (
"840 482 LINE",
"853 547 LINE",
"107 547 LINE",
"93 482 LINE"
);
}
);
width = 815;
}
);
note = Hbar;
unicode = 0126;
},
{
glyphname = Hbrevebelow;
lastChange = "2015-10-20 06:42:37 +0000";
layers = (
{
layerId = "308F4333-E380-49B7-B07F-C4D22ACB9582";
name = "Bold Italic";
paths = (
{
closed = 1;
nodes = (
"766 0 LINE",
"775 46 LINE",
"744 46 LINE SMOOTH",
"713 46 OFFCURVE",
"700 55 OFFCURVE",
"700 74 CURVE SMOOTH",
"700 77 OFFCURVE",
"700 81 OFFCURVE",
"701 85 CURVE SMOOTH",
"808 614 LINE SMOOTH",
"814 640 OFFCURVE",
"832 654 OFFCURVE",
"869 654 CURVE SMOOTH",
"900 654 LINE",
"908 700 LINE",
"554 700 LINE",
"545 654 LINE",
"575 654 LINE SMOOTH",
"607 654 OFFCURVE",
"620 644 OFFCURVE",
"620 625 CURVE SMOOTH",
"620 622 OFFCURVE",
"620 618 OFFCURVE",
"619 614 CURVE SMOOTH",
"512 85 LINE SMOOTH",
"506 59 OFFCURVE",
"488 46 OFFCURVE",
"450 46 CURVE SMOOTH",
"420 46 LINE",
"412 0 LINE"
);
},
{
closed = 1;
nodes = (
"459 -210 OFFCURVE",
"502 -124 OFFCURVE",
"516 -53 CURVE",
"473 -53 LINE",
"466 -81 OFFCURVE",
"435 -131 OFFCURVE",
"338 -131 CURVE SMOOTH",
"241 -131 OFFCURVE",
"228 -81 OFFCURVE",
"231 -53 CURVE",
"189 -53 LINE",
"186 -69 OFFCURVE",
"184 -85 OFFCURVE",
"184 -100 CURVE SMOOTH",
"184 -159 OFFCURVE",
"213 -210 OFFCURVE",
"323 -210 CURVE SMOOTH"
);
},
{
closed = 1;
nodes = (
"326 0 LINE",
"335 46 LINE",
"304 46 LINE SMOOTH",
"274 46 OFFCURVE",
"260 55 OFFCURVE",
"260 74 CURVE SMOOTH",
"260 77 OFFCURVE",
"260 81 OFFCURVE",
"261 85 CURVE SMOOTH",
"369 614 LINE SMOOTH",
"374 640 OFFCURVE",
"393 654 OFFCURVE",
"429 654 CURVE SMOOTH",
"460 654 LINE",
"468 700 LINE",
"114 700 LINE",
"106 654 LINE",
"136 654 LINE SMOOTH",
"167 654 OFFCURVE",
"180 644 OFFCURVE",
"180 625 CURVE SMOOTH",
"180 622 OFFCURVE",
"180 618 OFFCURVE",
"180 614 CURVE SMOOTH",
"72 85 LINE SMOOTH",
"66 59 OFFCURVE",
"48 46 OFFCURVE",
"12 46 CURVE SMOOTH",
"-19 46 LINE",
"-28 0 LINE"
);
},
{
closed = 1;
nodes = (
"641 323 LINE",
"655 389 LINE",
"228 389 LINE",
"215 323 LINE"
);
}
);
width = 815;
}
);
note = Hbrevebelow;
unicode = 1E2A;
},
{
glyphname = Hcircumflex;
lastChange = "2015-10-20 06:42:37 +0000";
layers = (
{
layerId = "308F4333-E380-49B7-B07F-C4D22ACB9582";
name = "Bold Italic";
paths = (
{
closed = 1;
nodes = (
"766 0 LINE",
"775 46 LINE",
"744 46 LINE SMOOTH",
"713 46 OFFCURVE",
"700 55 OFFCURVE",
"700 74 CURVE SMOOTH",
"700 77 OFFCURVE",
"700 81 OFFCURVE",
"701 85 CURVE SMOOTH",
"808 614 LINE SMOOTH",
"814 640 OFFCURVE",
"832 654 OFFCURVE",
"869 654 CURVE SMOOTH",
"900 654 LINE",
"908 700 LINE",
"554 700 LINE",
"545 654 LINE",
"575 654 LINE SMOOTH",
"607 654 OFFCURVE",
"620 644 OFFCURVE",
"620 625 CURVE SMOOTH",
"620 622 OFFCURVE",
"620 618 OFFCURVE",
"619 614 CURVE SMOOTH",
"512 85 LINE SMOOTH",
"506 59 OFFCURVE",
"488 46 OFFCURVE",
"450 46 CURVE SMOOTH",
"420 46 LINE",
"412 0 LINE"
);
},
{
closed = 1;
nodes = (
"326 0 LINE",
"335 46 LINE",
"304 46 LINE SMOOTH",
"274 46 OFFCURVE",
"260 55 OFFCURVE",
"260 74 CURVE SMOOTH",
"260 77 OFFCURVE",
"260 81 OFFCURVE",
"261 85 CURVE SMOOTH",
"369 614 LINE SMOOTH",
"374 640 OFFCURVE",
"393 654 OFFCURVE",
"429 654 CURVE SMOOTH",
"460 654 LINE",
"468 700 LINE",
"114 700 LINE",
"106 654 LINE",
"136 654 LINE SMOOTH",
"167 654 OFFCURVE",
"180 644 OFFCURVE",
"180 625 CURVE SMOOTH",
"180 622 OFFCURVE",
"180 618 OFFCURVE",
"180 614 CURVE SMOOTH",
"72 85 LINE SMOOTH",
"66 59 OFFCURVE",
"48 46 OFFCURVE",
"12 46 CURVE SMOOTH",
"-19 46 LINE",
"-28 0 LINE"
);
},
{
closed = 1;
nodes = (
"641 323 LINE",
"655 389 LINE",
"228 389 LINE",
"215 323 LINE"
);
},
{
closed = 1;
nodes = (
"506 877 LINE SMOOTH",
"524 889 OFFCURVE",
"540 897 OFFCURVE",
"550 897 CURVE SMOOTH",
"561 897 OFFCURVE",
"574 889 OFFCURVE",
"587 877 CURVE SMOOTH",
"698 775 LINE",
"730 804 LINE",
"613 984 LINE",
"523 984 LINE",
"332 804 LINE",
"352 775 LINE"
);
}
);
width = 815;
}
);
note = Hcircumflex;
unicode = 0124;
},
{
glyphname = Hdotbelow;
lastChange = "2015-10-20 06:42:37 +0000";
layers = (
{
layerId = "308F4333-E380-49B7-B07F-C4D22ACB9582";
name = "Bold Italic";
paths = (
{
closed = 1;
nodes = (
"766 0 LINE",
"775 46 LINE",
"744 46 LINE SMOOTH",
"713 46 OFFCURVE",
"700 55 OFFCURVE",
"700 74 CURVE SMOOTH",
"700 77 OFFCURVE",
"700 81 OFFCURVE",
"701 85 CURVE SMOOTH",
"808 614 LINE SMOOTH",
"814 640 OFFCURVE",
"832 654 OFFCURVE",
"869 654 CURVE SMOOTH",
"900 654 LINE",
"908 700 LINE",
"554 700 LINE",
"545 654 LINE",
"575 654 LINE SMOOTH",
"607 654 OFFCURVE",
"620 644 OFFCURVE",
"620 625 CURVE SMOOTH",
"620 622 OFFCURVE",
"620 618 OFFCURVE",
"619 614 CURVE SMOOTH",
"512 85 LINE SMOOTH",
"506 59 OFFCURVE",
"488 46 OFFCURVE",
"450 46 CURVE SMOOTH",
"420 46 LINE",
"412 0 LINE"
);
},
{
closed = 1;
nodes = (
"373 -211 OFFCURVE",
"411 -169 OFFCURVE",
"411 -120 CURVE SMOOTH",
"411 -88 OFFCURVE",
"391 -64 OFFCURVE",
"354 -64 CURVE SMOOTH",
"305 -64 OFFCURVE",
"267 -108 OFFCURVE",
"267 -156 CURVE SMOOTH",
"267 -188 OFFCURVE",
"288 -211 OFFCURVE",
"324 -211 CURVE SMOOTH"
);
},
{
closed = 1;
nodes = (
"326 0 LINE",
"335 46 LINE",
"304 46 LINE SMOOTH",
"274 46 OFFCURVE",
"260 55 OFFCURVE",
"260 74 CURVE SMOOTH",
"260 77 OFFCURVE",
"260 81 OFFCURVE",
"261 85 CURVE SMOOTH",
"369 614 LINE SMOOTH",
"374 640 OFFCURVE",
"393 654 OFFCURVE",
"429 654 CURVE SMOOTH",
"460 654 LINE",
"468 700 LINE",
"114 700 LINE",
"106 654 LINE",
"136 654 LINE SMOOTH",
"167 654 OFFCURVE",
"180 644 OFFCURVE",
"180 625 CURVE SMOOTH",
"180 622 OFFCURVE",
"180 618 OFFCURVE",
"180 614 CURVE SMOOTH",
"72 85 LINE SMOOTH",
"66 59 OFFCURVE",
"48 46 OFFCURVE",
"12 46 CURVE SMOOTH",
"-19 46 LINE",
"-28 0 LINE"
);
},
{
closed = 1;
nodes = (
"641 323 LINE",
"655 389 LINE",
"228 389 LINE",
"215 323 LINE"
);
}
);
width = 815;
}
);
note = Hdotbelow;
unicode = 1E24;
},
{
glyphname = I;
lastChange = "2015-10-20 06:42:37 +0000";
layers = (
{
layerId = "308F4333-E380-49B7-B07F-C4D22ACB9582";
name = "Bold Italic";
paths = (
{
closed = 1;
nodes = (
"332 0 LINE",
"341 46 LINE",
"310 46 LINE SMOOTH",
"279 46 OFFCURVE",
"266 55 OFFCURVE",
"266 74 CURVE SMOOTH",
"266 77 OFFCURVE",
"266 81 OFFCURVE",
"267 85 CURVE SMOOTH",
"374 614 LINE SMOOTH",
"380 640 OFFCURVE",
"398 654 OFFCURVE",
"435 654 CURVE SMOOTH",
"466 654 LINE",
"474 700 LINE",
"120 700 LINE",
"111 654 LINE",
"141 654 LINE SMOOTH",
"172 654 OFFCURVE",
"186 644 OFFCURVE",
"186 625 CURVE SMOOTH",
"186 621 OFFCURVE",
"186 618 OFFCURVE",
"185 614 CURVE SMOOTH",
"78 85 LINE SMOOTH",
"72 59 OFFCURVE",
"53 46 OFFCURVE",
"16 46 CURVE SMOOTH",
"-13 46 LINE",
"-22 0 LINE"
);
}
);
width = 387;
}
);
note = I;
unicode = 0049;
},
{
glyphname = IJ;
lastChange = "2015-10-20 06:42:38 +0000";
layers = (
{
layerId = "308F4333-E380-49B7-B07F-C4D22ACB9582";
name = "Bold Italic";
paths = (
{
closed = 1;
nodes = (
"537 -114 OFFCURVE",
"676 -40 OFFCURVE",
"712 137 CURVE SMOOTH",
"809 614 LINE SMOOTH",
"815 640 OFFCURVE",
"833 654 OFFCURVE",
"870 654 CURVE SMOOTH",
"900 654 LINE",
"909 700 LINE",
"555 700 LINE",
"546 654 LINE",
"577 654 LINE SMOOTH",
"608 654 OFFCURVE",
"621 644 OFFCURVE",
"621 625 CURVE SMOOTH",
"621 622 OFFCURVE",
"621 618 OFFCURVE",
"620 614 CURVE SMOOTH",
"523 140 LINE SMOOTH",
"502 35 OFFCURVE",
"472 -53 OFFCURVE",
"366 -84 CURVE",
"365 -114 LINE"
);
},
{
closed = 1;
nodes = (
"332 0 LINE",
"341 46 LINE",
"310 46 LINE SMOOTH",
"279 46 OFFCURVE",
"266 55 OFFCURVE",
"266 74 CURVE SMOOTH",
"266 77 OFFCURVE",
"266 81 OFFCURVE",
"267 85 CURVE SMOOTH",
"374 614 LINE SMOOTH",
"380 640 OFFCURVE",
"398 654 OFFCURVE",
"435 654 CURVE SMOOTH",
"466 654 LINE",
"474 700 LINE",
"120 700 LINE",
"111 654 LINE",
"141 654 LINE SMOOTH",
"172 654 OFFCURVE",
"186 644 OFFCURVE",
"186 625 CURVE SMOOTH",
"186 621 OFFCURVE",
"186 618 OFFCURVE",
"185 614 CURVE SMOOTH",
"78 85 LINE SMOOTH",
"72 59 OFFCURVE",
"53 46 OFFCURVE",
"16 46 CURVE SMOOTH",
"-13 46 LINE",
"-22 0 LINE"
);
}
);
width = 823;
}
);
note = IJ;
unicode = 0132;
},
{
glyphname = Iacute;
lastChange = "2015-10-20 06:42:37 +0000";
layers = (
{
layerId = "308F4333-E380-49B7-B07F-C4D22ACB9582";
name = "Bold Italic";
paths = (
{
closed = 1;
nodes = (
"332 0 LINE",
"341 46 LINE",
"310 46 LINE SMOOTH",
"279 46 OFFCURVE",
"266 55 OFFCURVE",
"266 74 CURVE SMOOTH",
"266 77 OFFCURVE",
"266 81 OFFCURVE",
"267 85 CURVE SMOOTH",
"374 614 LINE SMOOTH",
"380 640 OFFCURVE",
"398 654 OFFCURVE",
"435 654 CURVE SMOOTH",
"466 654 LINE",
"474 700 LINE",
"120 700 LINE",
"111 654 LINE",
"141 654 LINE SMOOTH",
"172 654 OFFCURVE",
"186 644 OFFCURVE",
"186 625 CURVE SMOOTH",
"186 621 OFFCURVE",
"186 618 OFFCURVE",
"185 614 CURVE SMOOTH",
"78 85 LINE SMOOTH",
"72 59 OFFCURVE",
"53 46 OFFCURVE",
"16 46 CURVE SMOOTH",
"-13 46 LINE",
"-22 0 LINE"
);
},
{
closed = 1;
nodes = (
"401 873 LINE SMOOTH",
"447 898 OFFCURVE",
"473 923 OFFCURVE",
"473 957 CURVE SMOOTH",
"473 978 OFFCURVE",
"460 998 OFFCURVE",
"424 998 CURVE SMOOTH",
"387 998 OFFCURVE",
"351 964 OFFCURVE",
"345 957 CURVE",
"196 821 LINE",
"219 774 LINE"
);
}
);
width = 387;
}
);
note = Iacute;
unicode = 00CD;
},
{
glyphname = Ibreve;
lastChange = "2015-10-20 06:42:37 +0000";
layers = (
{
layerId = "308F4333-E380-49B7-B07F-C4D22ACB9582";
name = "Bold Italic";
paths = (
{
closed = 1;
nodes = (
"332 0 LINE",
"341 46 LINE",
"310 46 LINE SMOOTH",
"279 46 OFFCURVE",
"266 55 OFFCURVE",
"266 74 CURVE SMOOTH",
"266 77 OFFCURVE",
"266 81 OFFCURVE",
"267 85 CURVE SMOOTH",
"374 614 LINE SMOOTH",
"380 640 OFFCURVE",
"398 654 OFFCURVE",
"435 654 CURVE SMOOTH",
"466 654 LINE",
"474 700 LINE",
"120 700 LINE",
"111 654 LINE",
"141 654 LINE SMOOTH",
"172 654 OFFCURVE",
"186 644 OFFCURVE",
"186 625 CURVE SMOOTH",
"186 621 OFFCURVE",
"186 618 OFFCURVE",
"185 614 CURVE SMOOTH",
"78 85 LINE SMOOTH",
"72 59 OFFCURVE",
"53 46 OFFCURVE",
"16 46 CURVE SMOOTH",
"-13 46 LINE",
"-22 0 LINE"
);
},
{
closed = 1;
nodes = (
"449 777 OFFCURVE",
"492 863 OFFCURVE",
"507 934 CURVE",
"464 934 LINE",
"456 906 OFFCURVE",
"425 856 OFFCURVE",
"327 856 CURVE SMOOTH",
"230 856 OFFCURVE",
"218 906 OFFCURVE",
"221 934 CURVE",
"180 934 LINE",
"177 918 OFFCURVE",
"175 902 OFFCURVE",
"175 887 CURVE SMOOTH",
"175 828 OFFCURVE",
"204 777 OFFCURVE",
"312 777 CURVE SMOOTH"
);
}
);
width = 387;
}
);
note = Ibreve;
unicode = 012C;
},
{
glyphname = Icaron;
lastChange = "2015-10-20 06:42:37 +0000";
layers = (
{
layerId = "308F4333-E380-49B7-B07F-C4D22ACB9582";
name = "Bold Italic";
paths = (
{
closed = 1;
nodes = (
"332 0 LINE",
"341 46 LINE",
"310 46 LINE SMOOTH",
"279 46 OFFCURVE",
"266 55 OFFCURVE",
"266 74 CURVE SMOOTH",
"266 77 OFFCURVE",
"266 81 OFFCURVE",
"267 85 CURVE SMOOTH",
"374 614 LINE SMOOTH",
"380 640 OFFCURVE",
"398 654 OFFCURVE",
"435 654 CURVE SMOOTH",
"466 654 LINE",
"474 700 LINE",
"120 700 LINE",
"111 654 LINE",
"141 654 LINE SMOOTH",
"172 654 OFFCURVE",
"186 644 OFFCURVE",
"186 625 CURVE SMOOTH",
"186 621 OFFCURVE",
"186 618 OFFCURVE",
"185 614 CURVE SMOOTH",
"78 85 LINE SMOOTH",
"72 59 OFFCURVE",
"53 46 OFFCURVE",
"16 46 CURVE SMOOTH",
"-13 46 LINE",
"-22 0 LINE"
);
},
{
closed = 1;
nodes = (
"356 775 LINE",
"547 955 LINE",
"527 984 LINE",
"373 882 LINE SMOOTH",
"355 870 OFFCURVE",
"340 862 OFFCURVE",
"329 862 CURVE SMOOTH",
"319 862 OFFCURVE",
"305 870 OFFCURVE",
"293 882 CURVE SMOOTH",
"181 984 LINE",
"150 955 LINE",
"266 775 LINE"
);
}
);
width = 387;
}
);
note = Icaron;
unicode = 01CF;
},
{
glyphname = Icircumflex;
lastChange = "2015-10-20 06:42:37 +0000";
layers = (
{
layerId = "308F4333-E380-49B7-B07F-C4D22ACB9582";
name = "Bold Italic";
paths = (
{
closed = 1;
nodes = (
"332 0 LINE",
"341 46 LINE",
"310 46 LINE SMOOTH",
"279 46 OFFCURVE",
"266 55 OFFCURVE",
"266 74 CURVE SMOOTH",
"266 77 OFFCURVE",
"266 81 OFFCURVE",
"267 85 CURVE SMOOTH",
"374 614 LINE SMOOTH",
"380 640 OFFCURVE",
"398 654 OFFCURVE",
"435 654 CURVE SMOOTH",
"466 654 LINE",
"474 700 LINE",
"120 700 LINE",
"111 654 LINE",
"141 654 LINE SMOOTH",
"172 654 OFFCURVE",
"186 644 OFFCURVE",
"186 625 CURVE SMOOTH",
"186 621 OFFCURVE",
"186 618 OFFCURVE",
"185 614 CURVE SMOOTH",
"78 85 LINE SMOOTH",
"72 59 OFFCURVE",
"53 46 OFFCURVE",
"16 46 CURVE SMOOTH",
"-13 46 LINE",
"-22 0 LINE"
);
},
{
closed = 1;
nodes = (
"292 877 LINE SMOOTH",
"310 889 OFFCURVE",
"325 897 OFFCURVE",
"336 897 CURVE SMOOTH",
"347 897 OFFCURVE",
"360 889 OFFCURVE",
"372 877 CURVE SMOOTH",
"484 775 LINE",
"516 804 LINE",
"399 984 LINE",
"309 984 LINE",
"118 804 LINE",
"138 775 LINE"
);
}
);
width = 387;
}
);
note = Icircumflex;
unicode = 00CE;
},
{
glyphname = Idieresis;
lastChange = "2015-10-20 06:42:37 +0000";
layers = (
{
layerId = "308F4333-E380-49B7-B07F-C4D22ACB9582";
name = "Bold Italic";
paths = (
{
closed = 1;
nodes = (
"332 0 LINE",
"341 46 LINE",
"310 46 LINE SMOOTH",
"279 46 OFFCURVE",
"266 55 OFFCURVE",
"266 74 CURVE SMOOTH",
"266 77 OFFCURVE",
"266 81 OFFCURVE",
"267 85 CURVE SMOOTH",
"374 614 LINE SMOOTH",
"380 640 OFFCURVE",
"398 654 OFFCURVE",
"435 654 CURVE SMOOTH",
"466 654 LINE",
"474 700 LINE",
"120 700 LINE",
"111 654 LINE",
"141 654 LINE SMOOTH",
"172 654 OFFCURVE",
"186 644 OFFCURVE",
"186 625 CURVE SMOOTH",
"186 621 OFFCURVE",
"186 618 OFFCURVE",
"185 614 CURVE SMOOTH",
"78 85 LINE SMOOTH",
"72 59 OFFCURVE",
"53 46 OFFCURVE",
"16 46 CURVE SMOOTH",
"-13 46 LINE",
"-22 0 LINE"
);
},
{
closed = 1;
nodes = (
"242 775 OFFCURVE",
"280 816 OFFCURVE",
"280 864 CURVE SMOOTH",
"280 897 OFFCURVE",
"260 921 OFFCURVE",
"222 921 CURVE SMOOTH",
"174 921 OFFCURVE",
"137 878 OFFCURVE",
"137 829 CURVE SMOOTH",
"137 798 OFFCURVE",
"156 775 OFFCURVE",
"193 775 CURVE SMOOTH"
);
},
{
closed = 1;
nodes = (
"477 775 OFFCURVE",
"516 816 OFFCURVE",
"516 864 CURVE SMOOTH",
"516 897 OFFCURVE",
"495 921 OFFCURVE",
"458 921 CURVE SMOOTH",
"407 921 OFFCURVE",
"372 878 OFFCURVE",
"372 829 CURVE SMOOTH",
"372 798 OFFCURVE",
"391 775 OFFCURVE",
"428 775 CURVE SMOOTH"
);
}
);
width = 387;
}
);
note = Idieresis;
unicode = 00CF;
},
{
glyphname = Idotaccent;
lastChange = "2015-10-20 06:42:37 +0000";
layers = (
{
layerId = "308F4333-E380-49B7-B07F-C4D22ACB9582";
name = "Bold Italic";
paths = (
{
closed = 1;
nodes = (
"332 0 LINE",
"341 46 LINE",
"310 46 LINE SMOOTH",
"279 46 OFFCURVE",
"266 55 OFFCURVE",
"266 74 CURVE SMOOTH",
"266 77 OFFCURVE",
"266 81 OFFCURVE",
"267 85 CURVE SMOOTH",
"374 614 LINE SMOOTH",
"380 640 OFFCURVE",
"398 654 OFFCURVE",
"435 654 CURVE SMOOTH",
"466 654 LINE",
"474 700 LINE",
"120 700 LINE",
"111 654 LINE",
"141 654 LINE SMOOTH",
"172 654 OFFCURVE",
"186 644 OFFCURVE",
"186 625 CURVE SMOOTH",
"186 621 OFFCURVE",
"186 618 OFFCURVE",
"185 614 CURVE SMOOTH",
"78 85 LINE SMOOTH",
"72 59 OFFCURVE",
"53 46 OFFCURVE",
"16 46 CURVE SMOOTH",
"-13 46 LINE",
"-22 0 LINE"
);
},
{
closed = 1;
nodes = (
"359 774 OFFCURVE",
"396 814 OFFCURVE",
"396 864 CURVE SMOOTH",
"396 895 OFFCURVE",
"376 919 OFFCURVE",
"340 919 CURVE SMOOTH",
"291 919 OFFCURVE",
"253 876 OFFCURVE",
"253 829 CURVE SMOOTH",
"253 797 OFFCURVE",
"273 774 OFFCURVE",
"310 774 CURVE SMOOTH"
);
}
);
width = 387;
}
);
note = Idotaccent;
unicode = 0130;
},
{
glyphname = Idotbelow;
lastChange = "2015-10-20 06:42:37 +0000";
layers = (
{
layerId = "308F4333-E380-49B7-B07F-C4D22ACB9582";
name = "Bold Italic";
paths = (
{
closed = 1;
nodes = (
"332 0 LINE",
"341 46 LINE",
"310 46 LINE SMOOTH",
"279 46 OFFCURVE",
"266 55 OFFCURVE",
"266 74 CURVE SMOOTH",
"266 77 OFFCURVE",
"266 81 OFFCURVE",
"267 85 CURVE SMOOTH",
"374 614 LINE SMOOTH",
"380 640 OFFCURVE",
"398 654 OFFCURVE",
"435 654 CURVE SMOOTH",
"466 654 LINE",
"474 700 LINE",
"120 700 LINE",
"111 654 LINE",
"141 654 LINE SMOOTH",
"172 654 OFFCURVE",
"186 644 OFFCURVE",
"186 625 CURVE SMOOTH",
"186 621 OFFCURVE",
"186 618 OFFCURVE",
"185 614 CURVE SMOOTH",
"78 85 LINE SMOOTH",
"72 59 OFFCURVE",
"53 46 OFFCURVE",
"16 46 CURVE SMOOTH",
"-13 46 LINE",
"-22 0 LINE"
);
},
{
closed = 1;
nodes = (
"161 -211 OFFCURVE",
"199 -169 OFFCURVE",
"199 -120 CURVE SMOOTH",
"199 -88 OFFCURVE",
"179 -64 OFFCURVE",
"142 -64 CURVE SMOOTH",
"93 -64 OFFCURVE",
"55 -108 OFFCURVE",
"55 -156 CURVE SMOOTH",
"55 -188 OFFCURVE",
"76 -211 OFFCURVE",
"112 -211 CURVE SMOOTH"
);
}
);
width = 387;
}
);
note = Idotbelow;
unicode = 1ECA;
},
{
glyphname = Igrave;
lastChange = "2015-10-20 06:42:37 +0000";
layers = (
{
layerId = "308F4333-E380-49B7-B07F-C4D22ACB9582";
name = "Bold Italic";
paths = (
{
closed = 1;
nodes = (
"332 0 LINE",
"341 46 LINE",
"310 46 LINE SMOOTH",
"279 46 OFFCURVE",
"266 55 OFFCURVE",
"266 74 CURVE SMOOTH",
"266 77 OFFCURVE",
"266 81 OFFCURVE",
"267 85 CURVE SMOOTH",
"374 614 LINE SMOOTH",
"380 640 OFFCURVE",
"398 654 OFFCURVE",
"435 654 CURVE SMOOTH",
"466 654 LINE",
"474 700 LINE",
"120 700 LINE",
"111 654 LINE",
"141 654 LINE SMOOTH",
"172 654 OFFCURVE",
"186 644 OFFCURVE",
"186 625 CURVE SMOOTH",
"186 621 OFFCURVE",
"186 618 OFFCURVE",
"185 614 CURVE SMOOTH",
"78 85 LINE SMOOTH",
"72 59 OFFCURVE",
"53 46 OFFCURVE",
"16 46 CURVE SMOOTH",
"-13 46 LINE",
"-22 0 LINE"
);
},
{
closed = 1;
nodes = (
"447 821 LINE",
"355 957 LINE",
"349 964 OFFCURVE",
"328 998 OFFCURVE",
"291 998 CURVE SMOOTH",
"240 998 OFFCURVE",
"220 956 OFFCURVE",
"220 933 CURVE SMOOTH",
"220 910 OFFCURVE",
"236 892 OFFCURVE",
"262 873 CURVE SMOOTH",
"405 774 LINE"
);
}
);
width = 387;
}
);
note = Igrave;
unicode = 00CC;
},
{
glyphname = Ihookabove;
lastChange = "2015-10-20 06:42:38 +0000";
layers = (
{
layerId = "308F4333-E380-49B7-B07F-C4D22ACB9582";
name = "Bold Italic";
paths = (
{
closed = 1;
nodes = (
"332 0 LINE",
"341 46 LINE",
"310 46 LINE SMOOTH",
"279 46 OFFCURVE",
"266 55 OFFCURVE",
"266 74 CURVE SMOOTH",
"266 77 OFFCURVE",
"266 81 OFFCURVE",
"267 85 CURVE SMOOTH",
"374 614 LINE SMOOTH",
"380 640 OFFCURVE",
"398 654 OFFCURVE",
"435 654 CURVE SMOOTH",
"466 654 LINE",
"474 700 LINE",
"120 700 LINE",
"111 654 LINE",
"141 654 LINE SMOOTH",
"172 654 OFFCURVE",
"186 644 OFFCURVE",
"186 625 CURVE SMOOTH",
"186 621 OFFCURVE",
"186 618 OFFCURVE",
"185 614 CURVE SMOOTH",
"78 85 LINE SMOOTH",
"72 59 OFFCURVE",
"53 46 OFFCURVE",
"16 46 CURVE SMOOTH",
"-13 46 LINE",
"-22 0 LINE"
);
},
{
closed = 1;
nodes = (
"348 801 LINE",
"337 802 OFFCURVE",
"324 804 OFFCURVE",
"324 819 CURVE SMOOTH",
"324 878 OFFCURVE",
"465 879 OFFCURVE",
"465 966 CURVE SMOOTH",
"465 1009 OFFCURVE",
"420 1030 OFFCURVE",
"364 1030 CURVE SMOOTH",
"276 1030 OFFCURVE",
"240 989 OFFCURVE",
"235 964 CURVE SMOOTH",
"234 960 OFFCURVE",
"234 957 OFFCURVE",
"234 954 CURVE SMOOTH",
"234 935 OFFCURVE",
"249 927 OFFCURVE",
"264 927 CURVE SMOOTH",
"284 927 OFFCURVE",
"302 940 OFFCURVE",
"306 958 CURVE SMOOTH",
"313 987 OFFCURVE",
"338 994 OFFCURVE",
"354 994 CURVE SMOOTH",
"376 994 OFFCURVE",
"382 977 OFFCURVE",
"379 960 CURVE",
"366 896 OFFCURVE",
"271 883 OFFCURVE",
"260 829 CURVE SMOOTH",
"259 826 OFFCURVE",
"259 823 OFFCURVE",
"259 821 CURVE SMOOTH",
"259 791 OFFCURVE",
"293 775 OFFCURVE",
"335 775 CURVE"
);
}
);
width = 387;
}
);
note = Ihookabove;
unicode = 1EC8;
},
{
glyphname = Imacron;
lastChange = "2015-10-20 06:42:37 +0000";
layers = (
{
layerId = "308F4333-E380-49B7-B07F-C4D22ACB9582";
name = "Bold Italic";
paths = (
{
closed = 1;
nodes = (
"332 0 LINE",
"341 46 LINE",
"310 46 LINE SMOOTH",
"279 46 OFFCURVE",
"266 55 OFFCURVE",
"266 74 CURVE SMOOTH",
"266 77 OFFCURVE",
"266 81 OFFCURVE",
"267 85 CURVE SMOOTH",
"374 614 LINE SMOOTH",
"380 640 OFFCURVE",
"398 654 OFFCURVE",
"435 654 CURVE SMOOTH",
"466 654 LINE",
"474 700 LINE",
"120 700 LINE",
"111 654 LINE",
"141 654 LINE SMOOTH",
"172 654 OFFCURVE",
"186 644 OFFCURVE",
"186 625 CURVE SMOOTH",
"186 621 OFFCURVE",
"186 618 OFFCURVE",
"185 614 CURVE SMOOTH",
"78 85 LINE SMOOTH",
"72 59 OFFCURVE",
"53 46 OFFCURVE",
"16 46 CURVE SMOOTH",
"-13 46 LINE",
"-22 0 LINE"
);
},
{
closed = 1;
nodes = (
"540 787 LINE",
"558 870 LINE",
"109 870 LINE",
"92 787 LINE"
);
}
);
width = 387;
}
);
note = Imacron;
unicode = 012A;
},
{
glyphname = Iogonek;
lastChange = "2015-10-20 06:42:37 +0000";
layers = (
{
layerId = "308F4333-E380-49B7-B07F-C4D22ACB9582";
name = "Bold Italic";
paths = (
{
closed = 1;
nodes = (
"332 0 LINE",
"341 46 LINE",
"310 46 LINE SMOOTH",
"279 46 OFFCURVE",
"266 55 OFFCURVE",
"266 74 CURVE SMOOTH",
"266 77 OFFCURVE",
"266 81 OFFCURVE",
"267 85 CURVE SMOOTH",
"374 614 LINE SMOOTH",
"380 640 OFFCURVE",
"398 654 OFFCURVE",
"435 654 CURVE SMOOTH",
"466 654 LINE",
"474 700 LINE",
"120 700 LINE",
"111 654 LINE",
"141 654 LINE SMOOTH",
"172 654 OFFCURVE",
"186 644 OFFCURVE",
"186 625 CURVE SMOOTH",
"186 621 OFFCURVE",
"186 618 OFFCURVE",
"185 614 CURVE SMOOTH",
"78 85 LINE SMOOTH",
"72 59 OFFCURVE",
"53 46 OFFCURVE",
"16 46 CURVE SMOOTH",
"-13 46 LINE",
"-22 0 LINE"
);
},
{
closed = 1;
nodes = (
"178 -239 OFFCURVE",
"221 -225 OFFCURVE",
"262 -195 CURVE",
"253 -168 LINE",
"239 -175 OFFCURVE",
"217 -181 OFFCURVE",
"203 -181 CURVE SMOOTH",
"176 -181 OFFCURVE",
"156 -166 OFFCURVE",
"156 -136 CURVE SMOOTH",
"156 -131 OFFCURVE",
"157 -125 OFFCURVE",
"158 -119 CURVE SMOOTH",
"167 -78 OFFCURVE",
"197 -33 OFFCURVE",
"258 12 CURVE",
"198 12 LINE",
"118 -27 OFFCURVE",
"46 -91 OFFCURVE",
"46 -159 CURVE SMOOTH",
"46 -195 OFFCURVE",
"65 -239 OFFCURVE",
"148 -239 CURVE SMOOTH"
);
}
);
width = 387;
}
);
note = Iogonek;
unicode = 012E;
},
{
glyphname = Itilde;
lastChange = "2015-10-20 06:42:37 +0000";
layers = (
{
layerId = "308F4333-E380-49B7-B07F-C4D22ACB9582";
name = "Bold Italic";
paths = (
{
closed = 1;
nodes = (
"332 0 LINE",
"341 46 LINE",
"310 46 LINE SMOOTH",
"279 46 OFFCURVE",
"266 55 OFFCURVE",
"266 74 CURVE SMOOTH",
"266 77 OFFCURVE",
"266 81 OFFCURVE",
"267 85 CURVE SMOOTH",
"374 614 LINE SMOOTH",
"380 640 OFFCURVE",
"398 654 OFFCURVE",
"435 654 CURVE SMOOTH",
"466 654 LINE",
"474 700 LINE",
"120 700 LINE",
"111 654 LINE",
"141 654 LINE SMOOTH",
"172 654 OFFCURVE",
"186 644 OFFCURVE",
"186 625 CURVE SMOOTH",
"186 621 OFFCURVE",
"186 618 OFFCURVE",
"185 614 CURVE SMOOTH",
"78 85 LINE SMOOTH",
"72 59 OFFCURVE",
"53 46 OFFCURVE",
"16 46 CURVE SMOOTH",
"-13 46 LINE",
"-22 0 LINE"
);
},
{
closed = 1;
nodes = (
"176 811 OFFCURVE",
"196 828 OFFCURVE",
"232 828 CURVE SMOOTH",
"295 828 OFFCURVE",
"341 783 OFFCURVE",
"401 783 CURVE SMOOTH",
"480 783 OFFCURVE",
"531 862 OFFCURVE",
"556 907 CURVE",
"529 925 LINE",
"500 885 OFFCURVE",
"482 868 OFFCURVE",
"444 868 CURVE SMOOTH",
"382 868 OFFCURVE",
"337 913 OFFCURVE",
"276 913 CURVE SMOOTH",
"197 913 OFFCURVE",
"146 834 OFFCURVE",
"118 789 CURVE",
"146 771 LINE"
);
}
);
width = 387;
}
);
note = Itilde;
unicode = 0128;
},
{
glyphname = J;
lastChange = "2015-10-20 06:42:37 +0000";
layers = (
{
layerId = "308F4333-E380-49B7-B07F-C4D22ACB9582";
name = "Bold Italic";
paths = (
{
closed = 1;
nodes = (
"160 -114 OFFCURVE",
"300 -40 OFFCURVE",
"336 137 CURVE SMOOTH",
"433 614 LINE SMOOTH",
"439 640 OFFCURVE",
"457 654 OFFCURVE",
"493 654 CURVE SMOOTH",
"524 654 LINE",
"533 700 LINE",
"179 700 LINE",
"170 654 LINE",
"201 654 LINE SMOOTH",
"231 654 OFFCURVE",
"245 644 OFFCURVE",
"245 625 CURVE SMOOTH",
"245 622 OFFCURVE",
"245 618 OFFCURVE",
"244 614 CURVE SMOOTH",
"147 140 LINE SMOOTH",
"126 35 OFFCURVE",
"96 -53 OFFCURVE",
"-11 -84 CURVE",
"-12 -114 LINE"
);
}
);
width = 445;
}
);
note = J;
unicode = 004A;
},
{
glyphname = Jcircumflex;
lastChange = "2015-10-20 06:42:37 +0000";
layers = (
{
layerId = "308F4333-E380-49B7-B07F-C4D22ACB9582";
name = "Bold Italic";
paths = (
{
closed = 1;
nodes = (
"160 -114 OFFCURVE",
"300 -40 OFFCURVE",
"336 137 CURVE SMOOTH",
"433 614 LINE SMOOTH",
"439 640 OFFCURVE",
"457 654 OFFCURVE",
"493 654 CURVE SMOOTH",
"524 654 LINE",
"533 700 LINE",
"179 700 LINE",
"170 654 LINE",
"201 654 LINE SMOOTH",
"231 654 OFFCURVE",
"245 644 OFFCURVE",
"245 625 CURVE SMOOTH",
"245 622 OFFCURVE",
"245 618 OFFCURVE",
"244 614 CURVE SMOOTH",
"147 140 LINE SMOOTH",
"126 35 OFFCURVE",
"96 -53 OFFCURVE",
"-11 -84 CURVE",
"-12 -114 LINE"
);
},
{
closed = 1;
nodes = (
"348 878 LINE SMOOTH",
"366 890 OFFCURVE",
"381 898 OFFCURVE",
"392 898 CURVE SMOOTH",
"402 898 OFFCURVE",
"416 890 OFFCURVE",
"428 878 CURVE SMOOTH",
"540 776 LINE",
"571 805 LINE",
"455 985 LINE",
"365 985 LINE",
"174 805 LINE",
"194 776 LINE"
);
}
);
width = 445;
}
);
note = Jcircumflex;
unicode = 0134;
},
{
glyphname = K;
lastChange = "2015-10-20 06:42:38 +0000";
layers = (
{
layerId = "308F4333-E380-49B7-B07F-C4D22ACB9582";
name = "Bold Italic";
paths = (
{
closed = 1;
nodes = (
"326 0 LINE",
"335 46 LINE",
"304 46 LINE SMOOTH",
"274 46 OFFCURVE",
"260 55 OFFCURVE",
"260 74 CURVE SMOOTH",
"260 77 OFFCURVE",
"260 81 OFFCURVE",
"261 85 CURVE SMOOTH",
"369 614 LINE SMOOTH",
"374 640 OFFCURVE",
"393 654 OFFCURVE",
"429 654 CURVE SMOOTH",
"460 654 LINE",
"468 700 LINE",
"114 700 LINE",
"106 654 LINE",
"136 654 LINE SMOOTH",
"167 654 OFFCURVE",
"180 644 OFFCURVE",
"180 625 CURVE SMOOTH",
"180 622 OFFCURVE",
"180 618 OFFCURVE",
"180 614 CURVE SMOOTH",
"72 85 LINE SMOOTH",
"66 59 OFFCURVE",
"48 46 OFFCURVE",
"12 46 CURVE SMOOTH",
"-19 46 LINE",
"-28 0 LINE"
);
},
{
closed = 1;
nodes = (
"748 0 LINE",
"756 46 LINE",
"726 46 LINE SMOOTH",
"694 46 OFFCURVE",
"663 68 OFFCURVE",
"644 97 CURVE SMOOTH",
"436 404 LINE",
"292 294 LINE",
"497 0 LINE"
);
},
{
closed = 1;
nodes = (
"741 635 LINE SMOOTH",
"756 646 OFFCURVE",
"777 654 OFFCURVE",
"797 654 CURVE SMOOTH",
"825 654 LINE",
"833 700 LINE",
"590 700 LINE",
"582 654 LINE",
"597 654 LINE SMOOTH",
"622 654 OFFCURVE",
"630 646 OFFCURVE",
"628 636 CURVE",
"626 629 OFFCURVE",
"621 623 OFFCURVE",
"614 617 CURVE",
"311 381 LINE",
"291 281 LINE"
);
}
);
width = 792;
}
);
note = K;
rightKerningGroup = K;
unicode = 004B;
},
{
glyphname = Kcommaaccent;
lastChange = "2015-10-20 06:42:38 +0000";
layers = (
{
layerId = "308F4333-E380-49B7-B07F-C4D22ACB9582";
name = "Bold Italic";
paths = (
{
closed = 1;
nodes = (
"326 0 LINE",
"335 46 LINE",
"304 46 LINE SMOOTH",
"274 46 OFFCURVE",
"260 55 OFFCURVE",
"260 74 CURVE SMOOTH",
"260 77 OFFCURVE",
"260 81 OFFCURVE",
"261 85 CURVE SMOOTH",
"369 614 LINE SMOOTH",
"374 640 OFFCURVE",
"393 654 OFFCURVE",
"429 654 CURVE SMOOTH",
"460 654 LINE",
"468 700 LINE",
"114 700 LINE",
"106 654 LINE",
"136 654 LINE SMOOTH",
"167 654 OFFCURVE",
"180 644 OFFCURVE",
"180 625 CURVE SMOOTH",
"180 622 OFFCURVE",
"180 618 OFFCURVE",
"180 614 CURVE SMOOTH",
"72 85 LINE SMOOTH",
"66 59 OFFCURVE",
"48 46 OFFCURVE",
"12 46 CURVE SMOOTH",
"-19 46 LINE",
"-28 0 LINE"
);
},
{
closed = 1;
nodes = (
"302 -354 OFFCURVE",
"398 -268 OFFCURVE",
"416 -182 CURVE SMOOTH",
"418 -171 OFFCURVE",
"419 -161 OFFCURVE",
"419 -151 CURVE SMOOTH",
"419 -103 OFFCURVE",
"392 -76 OFFCURVE",
"352 -76 CURVE SMOOTH",
"301 -76 OFFCURVE",
"265 -116 OFFCURVE",
"265 -155 CURVE SMOOTH",
"265 -186 OFFCURVE",
"289 -205 OFFCURVE",
"289 -236 CURVE SMOOTH",
"289 -240 OFFCURVE",
"288 -245 OFFCURVE",
"287 -250 CURVE SMOOTH",
"278 -295 OFFCURVE",
"246 -335 OFFCURVE",
"205 -371 CURVE",
"228 -398 LINE"
);
},
{
closed = 1;
nodes = (
"748 0 LINE",
"756 46 LINE",
"726 46 LINE SMOOTH",
"694 46 OFFCURVE",
"663 68 OFFCURVE",
"644 97 CURVE SMOOTH",
"436 404 LINE",
"292 294 LINE",
"497 0 LINE"
);
},
{
closed = 1;
nodes = (
"741 635 LINE SMOOTH",
"756 646 OFFCURVE",
"777 654 OFFCURVE",
"797 654 CURVE SMOOTH",
"825 654 LINE",
"833 700 LINE",
"590 700 LINE",
"582 654 LINE",
"597 654 LINE SMOOTH",
"622 654 OFFCURVE",
"630 646 OFFCURVE",
"628 636 CURVE",
"626 629 OFFCURVE",
"621 623 OFFCURVE",
"614 617 CURVE",
"311 381 LINE",
"291 281 LINE"
);
}
);
width = 792;
}
);
note = Kcommaaccent;
rightKerningGroup = K;
unicode = 0136;
},
{
glyphname = L;
lastChange = "2015-10-20 06:42:37 +0000";
layers = (
{
layerId = "308F4333-E380-49B7-B07F-C4D22ACB9582";
name = "Bold Italic";
paths = (
{
closed = 1;
nodes = (
"598 0 LINE",
"663 217 LINE",
"614 217 LINE",
"599 175 OFFCURVE",
"548 65 OFFCURVE",
"482 65 CURVE SMOOTH",
"319 65 LINE SMOOTH",
"289 65 OFFCURVE",
"272 76 OFFCURVE",
"272 102 CURVE SMOOTH",
"272 107 OFFCURVE",
"273 112 OFFCURVE",
"274 118 CURVE SMOOTH",
"374 614 LINE SMOOTH",
"380 640 OFFCURVE",
"398 654 OFFCURVE",
"435 654 CURVE SMOOTH",
"466 654 LINE",
"474 700 LINE",
"120 700 LINE",
"111 654 LINE",
"141 654 LINE SMOOTH",
"172 654 OFFCURVE",
"186 644 OFFCURVE",
"186 625 CURVE SMOOTH",
"186 621 OFFCURVE",
"186 618 OFFCURVE",
"185 614 CURVE SMOOTH",
"78 85 LINE SMOOTH",
"72 59 OFFCURVE",
"53 46 OFFCURVE",
"16 46 CURVE SMOOTH",
"-13 46 LINE",
"-22 0 LINE"
);
}
);
width = 677;
}
);
note = L;
rightKerningGroup = L;
unicode = 004C;
},
{
glyphname = Lacute;
lastChange = "2015-10-20 06:42:37 +0000";
layers = (
{
layerId = "308F4333-E380-49B7-B07F-C4D22ACB9582";
name = "Bold Italic";
paths = (
{
closed = 1;
nodes = (
"598 0 LINE",
"663 217 LINE",
"614 217 LINE",
"599 175 OFFCURVE",
"548 65 OFFCURVE",
"482 65 CURVE SMOOTH",
"319 65 LINE SMOOTH",
"289 65 OFFCURVE",
"272 76 OFFCURVE",
"272 102 CURVE SMOOTH",
"272 107 OFFCURVE",
"273 112 OFFCURVE",
"274 118 CURVE SMOOTH",
"374 614 LINE SMOOTH",
"380 640 OFFCURVE",
"398 654 OFFCURVE",
"435 654 CURVE SMOOTH",
"466 654 LINE",
"474 700 LINE",
"120 700 LINE",
"111 654 LINE",
"141 654 LINE SMOOTH",
"172 654 OFFCURVE",
"186 644 OFFCURVE",
"186 625 CURVE SMOOTH",
"186 621 OFFCURVE",
"186 618 OFFCURVE",
"185 614 CURVE SMOOTH",
"78 85 LINE SMOOTH",
"72 59 OFFCURVE",
"53 46 OFFCURVE",
"16 46 CURVE SMOOTH",
"-13 46 LINE",
"-22 0 LINE"
);
},
{
closed = 1;
nodes = (
"425 873 LINE SMOOTH",
"471 898 OFFCURVE",
"497 923 OFFCURVE",
"497 957 CURVE SMOOTH",
"497 978 OFFCURVE",
"484 998 OFFCURVE",
"448 998 CURVE SMOOTH",
"411 998 OFFCURVE",
"375 964 OFFCURVE",
"369 957 CURVE",
"220 821 LINE",
"243 774 LINE"
);
}
);
width = 677;
}
);
note = Lacute;
rightKerningGroup = L;
unicode = 0139;
},
{
glyphname = Lcaron;
lastChange = "2015-10-20 06:42:37 +0000";
layers = (
{
layerId = "308F4333-E380-49B7-B07F-C4D22ACB9582";
name = "Bold Italic";
paths = (
{
closed = 1;
nodes = (
"598 0 LINE",
"663 217 LINE",
"614 217 LINE",
"599 175 OFFCURVE",
"548 65 OFFCURVE",
"482 65 CURVE SMOOTH",
"319 65 LINE SMOOTH",
"289 65 OFFCURVE",
"272 76 OFFCURVE",
"272 102 CURVE SMOOTH",
"272 107 OFFCURVE",
"273 112 OFFCURVE",
"274 118 CURVE SMOOTH",
"374 614 LINE SMOOTH",
"380 640 OFFCURVE",
"398 654 OFFCURVE",
"435 654 CURVE SMOOTH",
"466 654 LINE",
"474 700 LINE",
"120 700 LINE",
"111 654 LINE",
"141 654 LINE SMOOTH",
"172 654 OFFCURVE",
"186 644 OFFCURVE",
"186 625 CURVE SMOOTH",
"186 621 OFFCURVE",
"186 618 OFFCURVE",
"185 614 CURVE SMOOTH",
"78 85 LINE SMOOTH",
"72 59 OFFCURVE",
"53 46 OFFCURVE",
"16 46 CURVE SMOOTH",
"-13 46 LINE",
"-22 0 LINE"
);
},
{
closed = 1;
nodes = (
"582 432 OFFCURVE",
"678 518 OFFCURVE",
"695 604 CURVE SMOOTH",
"697 615 OFFCURVE",
"698 626 OFFCURVE",
"698 635 CURVE SMOOTH",
"698 683 OFFCURVE",
"672 709 OFFCURVE",
"632 709 CURVE SMOOTH",
"581 709 OFFCURVE",
"545 670 OFFCURVE",
"545 630 CURVE SMOOTH",
"545 599 OFFCURVE",
"568 581 OFFCURVE",
"568 549 CURVE SMOOTH",
"568 545 OFFCURVE",
"567 540 OFFCURVE",
"566 535 CURVE SMOOTH",
"558 490 OFFCURVE",
"525 450 OFFCURVE",
"484 414 CURVE",
"508 387 LINE"
);
}
);
width = 677;
}
);
note = Lcaron;
rightKerningGroup = L;
unicode = 013D;
},
{
glyphname = Lcommaaccent;
lastChange = "2015-10-20 06:42:37 +0000";
layers = (
{
layerId = "308F4333-E380-49B7-B07F-C4D22ACB9582";
name = "Bold Italic";
paths = (
{
closed = 1;
nodes = (
"598 0 LINE",
"663 217 LINE",
"614 217 LINE",
"599 175 OFFCURVE",
"548 65 OFFCURVE",
"482 65 CURVE SMOOTH",
"319 65 LINE SMOOTH",
"289 65 OFFCURVE",
"272 76 OFFCURVE",
"272 102 CURVE SMOOTH",
"272 107 OFFCURVE",
"273 112 OFFCURVE",
"274 118 CURVE SMOOTH",
"374 614 LINE SMOOTH",
"380 640 OFFCURVE",
"398 654 OFFCURVE",
"435 654 CURVE SMOOTH",
"466 654 LINE",
"474 700 LINE",
"120 700 LINE",
"111 654 LINE",
"141 654 LINE SMOOTH",
"172 654 OFFCURVE",
"186 644 OFFCURVE",
"186 625 CURVE SMOOTH",
"186 621 OFFCURVE",
"186 618 OFFCURVE",
"185 614 CURVE SMOOTH",
"78 85 LINE SMOOTH",
"72 59 OFFCURVE",
"53 46 OFFCURVE",
"16 46 CURVE SMOOTH",
"-13 46 LINE",
"-22 0 LINE"
);
},
{
closed = 1;
nodes = (
"227 -354 OFFCURVE",
"323 -268 OFFCURVE",
"340 -182 CURVE SMOOTH",
"342 -171 OFFCURVE",
"343 -161 OFFCURVE",
"343 -151 CURVE SMOOTH",
"343 -103 OFFCURVE",
"316 -76 OFFCURVE",
"276 -76 CURVE SMOOTH",
"226 -76 OFFCURVE",
"189 -116 OFFCURVE",
"189 -155 CURVE SMOOTH",
"189 -186 OFFCURVE",
"213 -205 OFFCURVE",
"213 -236 CURVE SMOOTH",
"213 -240 OFFCURVE",
"212 -245 OFFCURVE",
"211 -250 CURVE SMOOTH",
"203 -295 OFFCURVE",
"170 -335 OFFCURVE",
"130 -371 CURVE",
"152 -398 LINE"
);
}
);
width = 677;
}
);
note = Lcommaaccent;
rightKerningGroup = L;
unicode = 013B;
},
{
glyphname = Ldot;
lastChange = "2015-10-20 06:42:37 +0000";
layers = (
{
layerId = "308F4333-E380-49B7-B07F-C4D22ACB9582";
name = "Bold Italic";
paths = (
{
closed = 1;
nodes = (
"598 0 LINE",
"663 217 LINE",
"614 217 LINE",
"599 175 OFFCURVE",
"548 65 OFFCURVE",
"482 65 CURVE SMOOTH",
"319 65 LINE SMOOTH",
"289 65 OFFCURVE",
"272 76 OFFCURVE",
"272 102 CURVE SMOOTH",
"272 107 OFFCURVE",
"273 112 OFFCURVE",
"274 118 CURVE SMOOTH",
"374 614 LINE SMOOTH",
"380 640 OFFCURVE",
"398 654 OFFCURVE",
"435 654 CURVE SMOOTH",
"466 654 LINE",
"474 700 LINE",
"120 700 LINE",
"111 654 LINE",
"141 654 LINE SMOOTH",
"172 654 OFFCURVE",
"186 644 OFFCURVE",
"186 625 CURVE SMOOTH",
"186 621 OFFCURVE",
"186 618 OFFCURVE",
"185 614 CURVE SMOOTH",
"78 85 LINE SMOOTH",
"72 59 OFFCURVE",
"53 46 OFFCURVE",
"16 46 CURVE SMOOTH",
"-13 46 LINE",
"-22 0 LINE"
);
},
{
closed = 1;
nodes = (
"549 319 OFFCURVE",
"588 360 OFFCURVE",
"588 408 CURVE SMOOTH",
"588 440 OFFCURVE",
"567 464 OFFCURVE",
"529 464 CURVE SMOOTH",
"480 464 OFFCURVE",
"444 422 OFFCURVE",
"444 373 CURVE SMOOTH",
"444 342 OFFCURVE",
"463 319 OFFCURVE",
"499 319 CURVE SMOOTH"
);
}
);
width = 677;
}
);
note = Ldot;
rightKerningGroup = L;
unicode = 013F;
},
{
glyphname = Ldotbelow;
lastChange = "2015-10-20 06:42:37 +0000";
layers = (
{
layerId = "308F4333-E380-49B7-B07F-C4D22ACB9582";
name = "Bold Italic";
paths = (
{
closed = 1;
nodes = (
"598 0 LINE",
"663 217 LINE",
"614 217 LINE",
"599 175 OFFCURVE",
"548 65 OFFCURVE",
"482 65 CURVE SMOOTH",
"319 65 LINE SMOOTH",
"289 65 OFFCURVE",
"272 76 OFFCURVE",
"272 102 CURVE SMOOTH",
"272 107 OFFCURVE",
"273 112 OFFCURVE",
"274 118 CURVE SMOOTH",
"374 614 LINE SMOOTH",
"380 640 OFFCURVE",
"398 654 OFFCURVE",
"435 654 CURVE SMOOTH",
"466 654 LINE",
"474 700 LINE",
"120 700 LINE",
"111 654 LINE",
"141 654 LINE SMOOTH",
"172 654 OFFCURVE",
"186 644 OFFCURVE",
"186 625 CURVE SMOOTH",
"186 621 OFFCURVE",
"186 618 OFFCURVE",
"185 614 CURVE SMOOTH",
"78 85 LINE SMOOTH",
"72 59 OFFCURVE",
"53 46 OFFCURVE",
"16 46 CURVE SMOOTH",
"-13 46 LINE",
"-22 0 LINE"
);
},
{
closed = 1;
nodes = (
"308 -211 OFFCURVE",
"346 -169 OFFCURVE",
"346 -120 CURVE SMOOTH",
"346 -88 OFFCURVE",
"325 -64 OFFCURVE",
"289 -64 CURVE SMOOTH",
"240 -64 OFFCURVE",
"202 -108 OFFCURVE",
"202 -156 CURVE SMOOTH",
"202 -188 OFFCURVE",
"223 -211 OFFCURVE",
"259 -211 CURVE SMOOTH"
);
}
);
width = 677;
}
);
note = Ldotbelow;
rightKerningGroup = L;
unicode = 1E36;
},
{
glyphname = Ldotbelowmacron;
lastChange = "2015-10-20 06:42:38 +0000";
layers = (
{
layerId = "308F4333-E380-49B7-B07F-C4D22ACB9582";
name = "Bold Italic";
paths = (
{
closed = 1;
nodes = (
"598 0 LINE",
"663 217 LINE",
"614 217 LINE",
"599 175 OFFCURVE",
"548 65 OFFCURVE",
"482 65 CURVE SMOOTH",
"319 65 LINE SMOOTH",
"289 65 OFFCURVE",
"272 76 OFFCURVE",
"272 102 CURVE SMOOTH",
"272 107 OFFCURVE",
"273 112 OFFCURVE",
"274 118 CURVE SMOOTH",
"374 614 LINE SMOOTH",
"380 640 OFFCURVE",
"398 654 OFFCURVE",
"435 654 CURVE SMOOTH",
"466 654 LINE",
"474 700 LINE",
"120 700 LINE",
"111 654 LINE",
"141 654 LINE SMOOTH",
"172 654 OFFCURVE",
"186 644 OFFCURVE",
"186 625 CURVE SMOOTH",
"186 621 OFFCURVE",
"186 618 OFFCURVE",
"185 614 CURVE SMOOTH",
"78 85 LINE SMOOTH",
"72 59 OFFCURVE",
"53 46 OFFCURVE",
"16 46 CURVE SMOOTH",
"-13 46 LINE",
"-22 0 LINE"
);
},
{
closed = 1;
nodes = (
"308 -211 OFFCURVE",
"346 -169 OFFCURVE",
"346 -120 CURVE SMOOTH",
"346 -88 OFFCURVE",
"325 -64 OFFCURVE",
"289 -64 CURVE SMOOTH",
"240 -64 OFFCURVE",
"202 -108 OFFCURVE",
"202 -156 CURVE SMOOTH",
"202 -188 OFFCURVE",
"223 -211 OFFCURVE",
"259 -211 CURVE SMOOTH"
);
},
{
closed = 1;
nodes = (
"537 774 LINE",
"552 846 LINE",
"150 846 LINE",
"134 774 LINE"
);
}
);
width = 677;
}
);
note = Ldotbelowmacron;
rightKerningGroup = L;
unicode = 1E38;
},
{
glyphname = Llinebelow;
lastChange = "2015-10-20 06:42:37 +0000";
layers = (
{
layerId = "308F4333-E380-49B7-B07F-C4D22ACB9582";
name = "Bold Italic";
paths = (
{
closed = 1;
nodes = (
"598 0 LINE",
"663 217 LINE",
"614 217 LINE",
"599 175 OFFCURVE",
"548 65 OFFCURVE",
"482 65 CURVE SMOOTH",
"319 65 LINE SMOOTH",
"289 65 OFFCURVE",
"272 76 OFFCURVE",
"272 102 CURVE SMOOTH",
"272 107 OFFCURVE",
"273 112 OFFCURVE",
"274 118 CURVE SMOOTH",
"374 614 LINE SMOOTH",
"380 640 OFFCURVE",
"398 654 OFFCURVE",
"435 654 CURVE SMOOTH",
"466 654 LINE",
"474 700 LINE",
"120 700 LINE",
"111 654 LINE",
"141 654 LINE SMOOTH",
"172 654 OFFCURVE",
"186 644 OFFCURVE",
"186 625 CURVE SMOOTH",
"186 621 OFFCURVE",
"186 618 OFFCURVE",
"185 614 CURVE SMOOTH",
"78 85 LINE SMOOTH",
"72 59 OFFCURVE",
"53 46 OFFCURVE",
"16 46 CURVE SMOOTH",
"-13 46 LINE",
"-22 0 LINE"
);
},
{
closed = 1;
nodes = (
"458 -128 LINE",
"471 -65 LINE",
"69 -65 LINE",
"56 -128 LINE"
);
}
);
width = 677;
}
);
note = Llinebelow;
rightKerningGroup = L;
unicode = 1E3A;
},
{
glyphname = Lslash;
lastChange = "2015-10-20 06:42:38 +0000";
layers = (
{
layerId = "308F4333-E380-49B7-B07F-C4D22ACB9582";
name = "Bold Italic";
paths = (
{
closed = 1;
nodes = (
"598 0 LINE",
"663 217 LINE",
"614 217 LINE",
"599 175 OFFCURVE",
"548 65 OFFCURVE",
"482 65 CURVE SMOOTH",
"319 65 LINE SMOOTH",
"289 65 OFFCURVE",
"272 76 OFFCURVE",
"272 102 CURVE SMOOTH",
"272 107 OFFCURVE",
"273 112 OFFCURVE",
"274 118 CURVE SMOOTH",
"374 614 LINE SMOOTH",
"380 640 OFFCURVE",
"398 654 OFFCURVE",
"435 654 CURVE SMOOTH",
"466 654 LINE",
"474 700 LINE",
"120 700 LINE",
"111 654 LINE",
"141 654 LINE SMOOTH",
"172 654 OFFCURVE",
"186 644 OFFCURVE",
"186 625 CURVE SMOOTH",
"186 621 OFFCURVE",
"186 618 OFFCURVE",
"185 614 CURVE SMOOTH",
"78 85 LINE SMOOTH",
"72 59 OFFCURVE",
"53 46 OFFCURVE",
"16 46 CURVE SMOOTH",
"-13 46 LINE",
"-22 0 LINE"
);
},
{
closed = 1;
nodes = (
"509 371 LINE",
"527 457 LINE",
"55 295 LINE",
"37 208 LINE"
);
}
);
width = 677;
}
);
note = Lslash;
rightKerningGroup = L;
unicode = 0141;
},
{
glyphname = M;
lastChange = "2015-10-20 06:42:37 +0000";
layers = (
{
layerId = "308F4333-E380-49B7-B07F-C4D22ACB9582";
name = "Bold Italic";
paths = (
{
closed = 1;
nodes = (
"211 0 LINE",
"220 46 LINE",
"189 46 LINE SMOOTH",
"158 46 OFFCURVE",
"145 55 OFFCURVE",
"145 74 CURVE SMOOTH",
"145 77 OFFCURVE",
"145 81 OFFCURVE",
"146 85 CURVE SMOOTH",
"239 544 LINE",
"334 74 LINE",
"446 74 LINE",
"741 547 LINE",
"647 85 LINE SMOOTH",
"641 59 OFFCURVE",
"622 46 OFFCURVE",
"586 46 CURVE SMOOTH",
"556 46 LINE",
"547 0 LINE",
"901 0 LINE",
"910 46 LINE",
"879 46 LINE SMOOTH",
"849 46 OFFCURVE",
"835 55 OFFCURVE",
"835 74 CURVE SMOOTH",
"835 77 OFFCURVE",
"835 81 OFFCURVE",
"836 85 CURVE SMOOTH",
"944 614 LINE SMOOTH",
"949 640 OFFCURVE",
"968 654 OFFCURVE",
"1004 654 CURVE SMOOTH",
"1035 654 LINE",
"1044 700 LINE",
"759 700 LINE",
"662 541 OFFCURVE",
"565 385 OFFCURVE",
"469 228 CURVE",
"377 700 LINE",
"114 700 LINE",
"106 654 LINE",
"136 654 LINE SMOOTH",
"167 654 OFFCURVE",
"180 644 OFFCURVE",
"180 625 CURVE SMOOTH",
"180 622 OFFCURVE",
"180 618 OFFCURVE",
"180 614 CURVE SMOOTH",
"72 85 LINE SMOOTH",
"66 59 OFFCURVE",
"48 46 OFFCURVE",
"12 46 CURVE SMOOTH",
"-19 46 LINE",
"-28 0 LINE"
);
}
);
width = 950;
}
);
note = M;
unicode = 004D;
},
{
glyphname = Mdotbelow;
lastChange = "2015-10-20 06:42:37 +0000";
layers = (
{
layerId = "308F4333-E380-49B7-B07F-C4D22ACB9582";
name = "Bold Italic";
paths = (
{
closed = 1;
nodes = (
"211 0 LINE",
"220 46 LINE",
"189 46 LINE SMOOTH",
"158 46 OFFCURVE",
"145 55 OFFCURVE",
"145 74 CURVE SMOOTH",
"145 77 OFFCURVE",
"145 81 OFFCURVE",
"146 85 CURVE SMOOTH",
"239 544 LINE",
"334 74 LINE",
"446 74 LINE",
"741 547 LINE",
"647 85 LINE SMOOTH",
"641 59 OFFCURVE",
"622 46 OFFCURVE",
"586 46 CURVE SMOOTH",
"556 46 LINE",
"547 0 LINE",
"901 0 LINE",
"910 46 LINE",
"879 46 LINE SMOOTH",
"849 46 OFFCURVE",
"835 55 OFFCURVE",
"835 74 CURVE SMOOTH",
"835 77 OFFCURVE",
"835 81 OFFCURVE",
"836 85 CURVE SMOOTH",
"944 614 LINE SMOOTH",
"949 640 OFFCURVE",
"968 654 OFFCURVE",
"1004 654 CURVE SMOOTH",
"1035 654 LINE",
"1044 700 LINE",
"759 700 LINE",
"662 541 OFFCURVE",
"565 385 OFFCURVE",
"469 228 CURVE",
"377 700 LINE",
"114 700 LINE",
"106 654 LINE",
"136 654 LINE SMOOTH",
"167 654 OFFCURVE",
"180 644 OFFCURVE",
"180 625 CURVE SMOOTH",
"180 622 OFFCURVE",
"180 618 OFFCURVE",
"180 614 CURVE SMOOTH",
"72 85 LINE SMOOTH",
"66 59 OFFCURVE",
"48 46 OFFCURVE",
"12 46 CURVE SMOOTH",
"-19 46 LINE",
"-28 0 LINE"
);
},
{
closed = 1;
nodes = (
"443 -211 OFFCURVE",
"480 -169 OFFCURVE",
"480 -120 CURVE SMOOTH",
"480 -88 OFFCURVE",
"460 -64 OFFCURVE",
"423 -64 CURVE SMOOTH",
"374 -64 OFFCURVE",
"336 -108 OFFCURVE",
"336 -156 CURVE SMOOTH",
"336 -188 OFFCURVE",
"357 -211 OFFCURVE",
"394 -211 CURVE SMOOTH"
);
}
);
width = 950;
}
);
note = Mdotbelow;
unicode = 1E42;
},
{
glyphname = N;
lastChange = "2015-10-20 06:42:37 +0000";
layers = (
{
layerId = "308F4333-E380-49B7-B07F-C4D22ACB9582";
name = "Bold Italic";
paths = (
{
closed = 1;
nodes = (
"211 0 LINE",
"220 46 LINE",
"189 46 LINE SMOOTH",
"158 46 OFFCURVE",
"145 55 OFFCURVE",
"145 74 CURVE SMOOTH",
"145 77 OFFCURVE",
"145 81 OFFCURVE",
"146 85 CURVE SMOOTH",
"248 587 LINE",
"539 0 LINE",
"635 0 LINE",
"759 614 LINE SMOOTH",
"765 640 OFFCURVE",
"783 654 OFFCURVE",
"820 654 CURVE SMOOTH",
"851 654 LINE",
"859 700 LINE",
"619 700 LINE",
"611 654 LINE",
"641 654 LINE SMOOTH",
"672 654 OFFCURVE",
"686 644 OFFCURVE",
"686 625 CURVE SMOOTH",
"686 621 OFFCURVE",
"686 618 OFFCURVE",
"685 614 CURVE SMOOTH",
"609 238 LINE",
"377 700 LINE",
"114 700 LINE",
"106 654 LINE",
"136 654 LINE SMOOTH",
"167 654 OFFCURVE",
"180 644 OFFCURVE",
"180 625 CURVE SMOOTH",
"180 622 OFFCURVE",
"180 618 OFFCURVE",
"180 614 CURVE SMOOTH",
"72 85 LINE SMOOTH",
"66 59 OFFCURVE",
"48 46 OFFCURVE",
"12 46 CURVE SMOOTH",
"-19 46 LINE",
"-28 0 LINE"
);
}
);
width = 766;
}
);
note = N;
unicode = 004E;
},
{
glyphname = Nacute;
lastChange = "2015-10-20 06:42:37 +0000";
layers = (
{
layerId = "308F4333-E380-49B7-B07F-C4D22ACB9582";
name = "Bold Italic";
paths = (
{
closed = 1;
nodes = (
"211 0 LINE",
"220 46 LINE",
"189 46 LINE SMOOTH",
"158 46 OFFCURVE",
"145 55 OFFCURVE",
"145 74 CURVE SMOOTH",
"145 77 OFFCURVE",
"145 81 OFFCURVE",
"146 85 CURVE SMOOTH",
"248 587 LINE",
"539 0 LINE",
"635 0 LINE",
"759 614 LINE SMOOTH",
"765 640 OFFCURVE",
"783 654 OFFCURVE",
"820 654 CURVE SMOOTH",
"851 654 LINE",
"859 700 LINE",
"619 700 LINE",
"611 654 LINE",
"641 654 LINE SMOOTH",
"672 654 OFFCURVE",
"686 644 OFFCURVE",
"686 625 CURVE SMOOTH",
"686 621 OFFCURVE",
"686 618 OFFCURVE",
"685 614 CURVE SMOOTH",
"609 238 LINE",
"377 700 LINE",
"114 700 LINE",
"106 654 LINE",
"136 654 LINE SMOOTH",
"167 654 OFFCURVE",
"180 644 OFFCURVE",
"180 625 CURVE SMOOTH",
"180 622 OFFCURVE",
"180 618 OFFCURVE",
"180 614 CURVE SMOOTH",
"72 85 LINE SMOOTH",
"66 59 OFFCURVE",
"48 46 OFFCURVE",
"12 46 CURVE SMOOTH",
"-19 46 LINE",
"-28 0 LINE"
);
},
{
closed = 1;
nodes = (
"624 873 LINE SMOOTH",
"670 898 OFFCURVE",
"696 923 OFFCURVE",
"696 957 CURVE SMOOTH",
"696 978 OFFCURVE",
"683 998 OFFCURVE",
"647 998 CURVE SMOOTH",
"610 998 OFFCURVE",
"574 964 OFFCURVE",
"567 957 CURVE",
"419 821 LINE",
"442 774 LINE"
);
}
);
width = 766;
}
);
note = Nacute;
unicode = 0143;
},
{
glyphname = Ncaron;
lastChange = "2015-10-20 06:42:38 +0000";
layers = (
{
layerId = "308F4333-E380-49B7-B07F-C4D22ACB9582";
name = "Bold Italic";
paths = (
{
closed = 1;
nodes = (
"211 0 LINE",
"220 46 LINE",
"189 46 LINE SMOOTH",
"158 46 OFFCURVE",
"145 55 OFFCURVE",
"145 74 CURVE SMOOTH",
"145 77 OFFCURVE",
"145 81 OFFCURVE",
"146 85 CURVE SMOOTH",
"248 587 LINE",
"539 0 LINE",
"635 0 LINE",
"759 614 LINE SMOOTH",
"765 640 OFFCURVE",
"783 654 OFFCURVE",
"820 654 CURVE SMOOTH",
"851 654 LINE",
"859 700 LINE",
"619 700 LINE",
"611 654 LINE",
"641 654 LINE SMOOTH",
"672 654 OFFCURVE",
"686 644 OFFCURVE",
"686 625 CURVE SMOOTH",
"686 621 OFFCURVE",
"686 618 OFFCURVE",
"685 614 CURVE SMOOTH",
"609 238 LINE",
"377 700 LINE",
"114 700 LINE",
"106 654 LINE",
"136 654 LINE SMOOTH",
"167 654 OFFCURVE",
"180 644 OFFCURVE",
"180 625 CURVE SMOOTH",
"180 622 OFFCURVE",
"180 618 OFFCURVE",
"180 614 CURVE SMOOTH",
"72 85 LINE SMOOTH",
"66 59 OFFCURVE",
"48 46 OFFCURVE",
"12 46 CURVE SMOOTH",
"-19 46 LINE",
"-28 0 LINE"
);
},
{
closed = 1;
nodes = (
"536 775 LINE",
"727 955 LINE",
"707 984 LINE",
"553 882 LINE SMOOTH",
"535 870 OFFCURVE",
"519 862 OFFCURVE",
"509 862 CURVE SMOOTH",
"498 862 OFFCURVE",
"485 870 OFFCURVE",
"472 882 CURVE SMOOTH",
"361 984 LINE",
"329 955 LINE",
"445 775 LINE"
);
}
);
width = 766;
}
);
note = Ncaron;
unicode = 0147;
},
{
glyphname = Ncommaaccent;
lastChange = "2015-10-20 06:42:38 +0000";
layers = (
{
layerId = "308F4333-E380-49B7-B07F-C4D22ACB9582";
name = "Bold Italic";
paths = (
{
closed = 1;
nodes = (
"211 0 LINE",
"220 46 LINE",
"189 46 LINE SMOOTH",
"158 46 OFFCURVE",
"145 55 OFFCURVE",
"145 74 CURVE SMOOTH",
"145 77 OFFCURVE",
"145 81 OFFCURVE",
"146 85 CURVE SMOOTH",
"248 587 LINE",
"539 0 LINE",
"635 0 LINE",
"759 614 LINE SMOOTH",
"765 640 OFFCURVE",
"783 654 OFFCURVE",
"820 654 CURVE SMOOTH",
"851 654 LINE",
"859 700 LINE",
"619 700 LINE",
"611 654 LINE",
"641 654 LINE SMOOTH",
"672 654 OFFCURVE",
"686 644 OFFCURVE",
"686 625 CURVE SMOOTH",
"686 621 OFFCURVE",
"686 618 OFFCURVE",
"685 614 CURVE SMOOTH",
"609 238 LINE",
"377 700 LINE",
"114 700 LINE",
"106 654 LINE",
"136 654 LINE SMOOTH",
"167 654 OFFCURVE",
"180 644 OFFCURVE",
"180 625 CURVE SMOOTH",
"180 622 OFFCURVE",
"180 618 OFFCURVE",
"180 614 CURVE SMOOTH",
"72 85 LINE SMOOTH",
"66 59 OFFCURVE",
"48 46 OFFCURVE",
"12 46 CURVE SMOOTH",
"-19 46 LINE",
"-28 0 LINE"
);
},
{
closed = 1;
nodes = (
"272 -354 OFFCURVE",
"368 -268 OFFCURVE",
"385 -182 CURVE SMOOTH",
"387 -171 OFFCURVE",
"388 -161 OFFCURVE",
"388 -151 CURVE SMOOTH",
"388 -103 OFFCURVE",
"361 -76 OFFCURVE",
"322 -76 CURVE SMOOTH",
"271 -76 OFFCURVE",
"234 -116 OFFCURVE",
"234 -155 CURVE SMOOTH",
"234 -186 OFFCURVE",
"258 -205 OFFCURVE",
"258 -236 CURVE SMOOTH",
"258 -240 OFFCURVE",
"257 -245 OFFCURVE",
"256 -250 CURVE SMOOTH",
"248 -295 OFFCURVE",
"215 -335 OFFCURVE",
"175 -371 CURVE",
"197 -398 LINE"
);
}
);
width = 766;
}
);
note = Ncommaaccent;
unicode = 0145;
},
{
glyphname = Ndotaccent;
lastChange = "2015-10-20 06:42:37 +0000";
layers = (
{
layerId = "308F4333-E380-49B7-B07F-C4D22ACB9582";
name = "Bold Italic";
paths = (
{
closed = 1;
nodes = (
"211 0 LINE",
"220 46 LINE",
"189 46 LINE SMOOTH",
"158 46 OFFCURVE",
"145 55 OFFCURVE",
"145 74 CURVE SMOOTH",
"145 77 OFFCURVE",
"145 81 OFFCURVE",
"146 85 CURVE SMOOTH",
"248 587 LINE",
"539 0 LINE",
"635 0 LINE",
"759 614 LINE SMOOTH",
"765 640 OFFCURVE",
"783 654 OFFCURVE",
"820 654 CURVE SMOOTH",
"851 654 LINE",
"859 700 LINE",
"619 700 LINE",
"611 654 LINE",
"641 654 LINE SMOOTH",
"672 654 OFFCURVE",
"686 644 OFFCURVE",
"686 625 CURVE SMOOTH",
"686 621 OFFCURVE",
"686 618 OFFCURVE",
"685 614 CURVE SMOOTH",
"609 238 LINE",
"377 700 LINE",
"114 700 LINE",
"106 654 LINE",
"136 654 LINE SMOOTH",
"167 654 OFFCURVE",
"180 644 OFFCURVE",
"180 625 CURVE SMOOTH",
"180 622 OFFCURVE",
"180 618 OFFCURVE",
"180 614 CURVE SMOOTH",
"72 85 LINE SMOOTH",
"66 59 OFFCURVE",
"48 46 OFFCURVE",
"12 46 CURVE SMOOTH",
"-19 46 LINE",
"-28 0 LINE"
);
},
{
closed = 1;
nodes = (
"549 774 OFFCURVE",
"587 814 OFFCURVE",
"587 864 CURVE SMOOTH",
"587 895 OFFCURVE",
"566 919 OFFCURVE",
"530 919 CURVE SMOOTH",
"481 919 OFFCURVE",
"444 876 OFFCURVE",
"444 829 CURVE SMOOTH",
"444 797 OFFCURVE",
"463 774 OFFCURVE",
"500 774 CURVE SMOOTH"
);
}
);
width = 766;
}
);
note = Ndotaccent;
unicode = 1E44;
},
{
glyphname = Ndotbelow;
lastChange = "2015-10-20 06:42:37 +0000";
layers = (
{
layerId = "308F4333-E380-49B7-B07F-C4D22ACB9582";
name = "Bold Italic";
paths = (
{
closed = 1;
nodes = (
"211 0 LINE",
"220 46 LINE",
"189 46 LINE SMOOTH",
"158 46 OFFCURVE",
"145 55 OFFCURVE",
"145 74 CURVE SMOOTH",
"145 77 OFFCURVE",
"145 81 OFFCURVE",
"146 85 CURVE SMOOTH",
"248 587 LINE",
"539 0 LINE",
"635 0 LINE",
"759 614 LINE SMOOTH",
"765 640 OFFCURVE",
"783 654 OFFCURVE",
"820 654 CURVE SMOOTH",
"851 654 LINE",
"859 700 LINE",
"619 700 LINE",
"611 654 LINE",
"641 654 LINE SMOOTH",
"672 654 OFFCURVE",
"686 644 OFFCURVE",
"686 625 CURVE SMOOTH",
"686 621 OFFCURVE",
"686 618 OFFCURVE",
"685 614 CURVE SMOOTH",
"609 238 LINE",
"377 700 LINE",
"114 700 LINE",
"106 654 LINE",
"136 654 LINE SMOOTH",
"167 654 OFFCURVE",
"180 644 OFFCURVE",
"180 625 CURVE SMOOTH",
"180 622 OFFCURVE",
"180 618 OFFCURVE",
"180 614 CURVE SMOOTH",
"72 85 LINE SMOOTH",
"66 59 OFFCURVE",
"48 46 OFFCURVE",
"12 46 CURVE SMOOTH",
"-19 46 LINE",
"-28 0 LINE"
);
},
{
closed = 1;
nodes = (
"351 -211 OFFCURVE",
"389 -169 OFFCURVE",
"389 -120 CURVE SMOOTH",
"389 -88 OFFCURVE",
"369 -64 OFFCURVE",
"332 -64 CURVE SMOOTH",
"283 -64 OFFCURVE",
"245 -108 OFFCURVE",
"245 -156 CURVE SMOOTH",
"245 -188 OFFCURVE",
"266 -211 OFFCURVE",
"302 -211 CURVE SMOOTH"
);
}
);
width = 771;
}
);
note = uni1E46;
unicode = 1E46;
},
{
glyphname = Eng;
lastChange = "2015-10-20 06:42:37 +0000";
layers = (
{
layerId = "308F4333-E380-49B7-B07F-C4D22ACB9582";
name = "Bold Italic";
paths = (
{
closed = 1;
nodes = (
"445 -316 OFFCURVE",
"585 -240 OFFCURVE",
"621 -62 CURVE SMOOTH",
"759 614 LINE SMOOTH",
"765 640 OFFCURVE",
"783 654 OFFCURVE",
"820 654 CURVE SMOOTH",
"851 654 LINE",
"859 700 LINE",
"619 700 LINE",
"611 654 LINE",
"641 654 LINE SMOOTH",
"672 654 OFFCURVE",
"686 644 OFFCURVE",
"686 625 CURVE SMOOTH",
"686 621 OFFCURVE",
"686 618 OFFCURVE",
"685 614 CURVE SMOOTH",
"609 238 LINE",
"377 700 LINE",
"114 700 LINE",
"106 654 LINE",
"136 654 LINE SMOOTH",
"167 654 OFFCURVE",
"180 644 OFFCURVE",
"180 625 CURVE SMOOTH",
"180 622 OFFCURVE",
"180 618 OFFCURVE",
"180 614 CURVE SMOOTH",
"72 89 LINE SMOOTH",
"67 62 OFFCURVE",
"50 46 OFFCURVE",
"12 46 CURVE SMOOTH",
"-19 46 LINE",
"-28 0 LINE",
"211 0 LINE",
"220 46 LINE",
"189 46 LINE SMOOTH",
"158 46 OFFCURVE",
"145 55 OFFCURVE",
"145 74 CURVE SMOOTH",
"145 77 OFFCURVE",
"145 81 OFFCURVE",
"146 85 CURVE SMOOTH",
"248 587 LINE",
"539 0 LINE",
"519 -94 LINE SMOOTH",
"497 -199 OFFCURVE",
"380 -280 OFFCURVE",
"276 -280 CURVE",
"274 -318 LINE"
);
}
);
width = 766;
}
);
note = Eng;
unicode = 014A;
},
{
glyphname = Nlinebelow;
lastChange = "2015-10-20 06:42:37 +0000";
layers = (
{
layerId = "308F4333-E380-49B7-B07F-C4D22ACB9582";
name = "Bold Italic";
paths = (
{
closed = 1;
nodes = (
"211 0 LINE",
"220 46 LINE",
"189 46 LINE SMOOTH",
"158 46 OFFCURVE",
"145 55 OFFCURVE",
"145 74 CURVE SMOOTH",
"145 77 OFFCURVE",
"145 81 OFFCURVE",
"146 85 CURVE SMOOTH",
"248 587 LINE",
"539 0 LINE",
"635 0 LINE",
"759 614 LINE SMOOTH",
"765 640 OFFCURVE",
"783 654 OFFCURVE",
"820 654 CURVE SMOOTH",
"851 654 LINE",
"859 700 LINE",
"619 700 LINE",
"611 654 LINE",
"641 654 LINE SMOOTH",
"672 654 OFFCURVE",
"686 644 OFFCURVE",
"686 625 CURVE SMOOTH",
"686 621 OFFCURVE",
"686 618 OFFCURVE",
"685 614 CURVE SMOOTH",
"609 238 LINE",
"377 700 LINE",
"114 700 LINE",
"106 654 LINE",
"136 654 LINE SMOOTH",
"167 654 OFFCURVE",
"180 644 OFFCURVE",
"180 625 CURVE SMOOTH",
"180 622 OFFCURVE",
"180 618 OFFCURVE",
"180 614 CURVE SMOOTH",
"72 85 LINE SMOOTH",
"66 59 OFFCURVE",
"48 46 OFFCURVE",
"12 46 CURVE SMOOTH",
"-19 46 LINE",
"-28 0 LINE"
);
},
{
closed = 1;
nodes = (
"518 -128 LINE",
"532 -65 LINE",
"130 -65 LINE",
"116 -128 LINE"
);
}
);
width = 766;
}
);
note = Nlinebelow;
unicode = 1E48;
},
{
glyphname = Ntilde;
lastChange = "2015-10-20 06:42:37 +0000";
layers = (
{
layerId = "308F4333-E380-49B7-B07F-C4D22ACB9582";
name = "Bold Italic";
paths = (
{
closed = 1;
nodes = (
"211 0 LINE",
"220 46 LINE",
"189 46 LINE SMOOTH",
"158 46 OFFCURVE",
"145 55 OFFCURVE",
"145 74 CURVE SMOOTH",
"145 77 OFFCURVE",
"145 81 OFFCURVE",
"146 85 CURVE SMOOTH",
"248 587 LINE",
"539 0 LINE",
"635 0 LINE",
"759 614 LINE SMOOTH",
"765 640 OFFCURVE",
"783 654 OFFCURVE",
"820 654 CURVE SMOOTH",
"851 654 LINE",
"859 700 LINE",
"619 700 LINE",
"611 654 LINE",
"641 654 LINE SMOOTH",
"672 654 OFFCURVE",
"686 644 OFFCURVE",
"686 625 CURVE SMOOTH",
"686 621 OFFCURVE",
"686 618 OFFCURVE",
"685 614 CURVE SMOOTH",
"609 238 LINE",
"377 700 LINE",
"114 700 LINE",
"106 654 LINE",
"136 654 LINE SMOOTH",
"167 654 OFFCURVE",
"180 644 OFFCURVE",
"180 625 CURVE SMOOTH",
"180 622 OFFCURVE",
"180 618 OFFCURVE",
"180 614 CURVE SMOOTH",
"72 85 LINE SMOOTH",
"66 59 OFFCURVE",
"48 46 OFFCURVE",
"12 46 CURVE SMOOTH",
"-19 46 LINE",
"-28 0 LINE"
);
},
{
closed = 1;
nodes = (
"369 811 OFFCURVE",
"389 828 OFFCURVE",
"425 828 CURVE SMOOTH",
"488 828 OFFCURVE",
"534 783 OFFCURVE",
"594 783 CURVE SMOOTH",
"673 783 OFFCURVE",
"724 862 OFFCURVE",
"749 907 CURVE",
"722 925 LINE",
"693 885 OFFCURVE",
"675 868 OFFCURVE",
"637 868 CURVE SMOOTH",
"575 868 OFFCURVE",
"530 913 OFFCURVE",
"468 913 CURVE SMOOTH",
"390 913 OFFCURVE",
"339 834 OFFCURVE",
"311 789 CURVE",
"339 771 LINE"
);
}
);
width = 766;
}
);
note = Ntilde;
unicode = 00D1;
},
{
glyphname = O;
lastChange = "2015-10-20 06:42:37 +0000";
layers = (
{
layerId = "308F4333-E380-49B7-B07F-C4D22ACB9582";
name = "Bold Italic";
paths = (
{
closed = 1;
nodes = (
"616 -10 OFFCURVE",
"757 136 OFFCURVE",
"802 350 CURVE SMOOTH",
"809 386 OFFCURVE",
"812 419 OFFCURVE",
"812 451 CURVE SMOOTH",
"812 608 OFFCURVE",
"720 710 OFFCURVE",
"504 710 CURVE SMOOTH",
"246 710 OFFCURVE",
"105 563 OFFCURVE",
"61 350 CURVE SMOOTH",
"54 314 OFFCURVE",
"50 279 OFFCURVE",
"50 247 CURVE SMOOTH",
"50 91 OFFCURVE",
"143 -10 OFFCURVE",
"357 -10 CURVE SMOOTH"
);
},
{
closed = 1;
nodes = (
"285 59 OFFCURVE",
"240 120 OFFCURVE",
"240 232 CURVE SMOOTH",
"240 266 OFFCURVE",
"245 306 OFFCURVE",
"253 350 CURVE SMOOTH",
"291 534 OFFCURVE",
"377 643 OFFCURVE",
"490 643 CURVE SMOOTH",
"577 643 OFFCURVE",
"623 579 OFFCURVE",
"623 467 CURVE SMOOTH",
"623 432 OFFCURVE",
"618 393 OFFCURVE",
"610 350 CURVE SMOOTH",
"572 165 OFFCURVE",
"485 59 OFFCURVE",
"371 59 CURVE SMOOTH"
);
}
);
width = 798;
}
);
leftKerningGroup = O;
note = O;
rightKerningGroup = O;
unicode = 004F;
},
{
glyphname = Oacute;
lastChange = "2015-10-20 06:42:37 +0000";
layers = (
{
layerId = "308F4333-E380-49B7-B07F-C4D22ACB9582";
name = "Bold Italic";
paths = (
{
closed = 1;
nodes = (
"616 -10 OFFCURVE",
"757 136 OFFCURVE",
"802 350 CURVE SMOOTH",
"809 386 OFFCURVE",
"812 419 OFFCURVE",
"812 451 CURVE SMOOTH",
"812 608 OFFCURVE",
"720 710 OFFCURVE",
"504 710 CURVE SMOOTH",
"246 710 OFFCURVE",
"105 563 OFFCURVE",
"61 350 CURVE SMOOTH",
"54 314 OFFCURVE",
"50 279 OFFCURVE",
"50 247 CURVE SMOOTH",
"50 91 OFFCURVE",
"143 -10 OFFCURVE",
"357 -10 CURVE SMOOTH"
);
},
{
closed = 1;
nodes = (
"285 59 OFFCURVE",
"240 120 OFFCURVE",
"240 232 CURVE SMOOTH",
"240 266 OFFCURVE",
"245 306 OFFCURVE",
"253 350 CURVE SMOOTH",
"291 534 OFFCURVE",
"377 643 OFFCURVE",
"490 643 CURVE SMOOTH",
"577 643 OFFCURVE",
"623 579 OFFCURVE",
"623 467 CURVE SMOOTH",
"623 432 OFFCURVE",
"618 393 OFFCURVE",
"610 350 CURVE SMOOTH",
"572 165 OFFCURVE",
"485 59 OFFCURVE",
"371 59 CURVE SMOOTH"
);
},
{
closed = 1;
nodes = (
"607 873 LINE SMOOTH",
"653 898 OFFCURVE",
"679 923 OFFCURVE",
"679 957 CURVE SMOOTH",
"679 978 OFFCURVE",
"665 998 OFFCURVE",
"630 998 CURVE SMOOTH",
"592 998 OFFCURVE",
"557 964 OFFCURVE",
"550 957 CURVE",
"401 821 LINE",
"424 774 LINE"
);
}
);
width = 798;
}
);
leftKerningGroup = O;
note = Oacute;
rightKerningGroup = O;
unicode = 00D3;
},
{
glyphname = Obreve;
lastChange = "2015-10-20 06:42:37 +0000";
layers = (
{
layerId = "308F4333-E380-49B7-B07F-C4D22ACB9582";
name = "Bold Italic";
paths = (
{
closed = 1;
nodes = (
"616 -10 OFFCURVE",
"757 136 OFFCURVE",
"802 350 CURVE SMOOTH",
"809 386 OFFCURVE",
"812 419 OFFCURVE",
"812 451 CURVE SMOOTH",
"812 608 OFFCURVE",
"720 710 OFFCURVE",
"504 710 CURVE SMOOTH",
"246 710 OFFCURVE",
"105 563 OFFCURVE",
"61 350 CURVE SMOOTH",
"54 314 OFFCURVE",
"50 279 OFFCURVE",
"50 247 CURVE SMOOTH",
"50 91 OFFCURVE",
"143 -10 OFFCURVE",
"357 -10 CURVE SMOOTH"
);
},
{
closed = 1;
nodes = (
"285 59 OFFCURVE",
"240 120 OFFCURVE",
"240 232 CURVE SMOOTH",
"240 266 OFFCURVE",
"245 306 OFFCURVE",
"253 350 CURVE SMOOTH",
"291 534 OFFCURVE",
"377 643 OFFCURVE",
"490 643 CURVE SMOOTH",
"577 643 OFFCURVE",
"623 579 OFFCURVE",
"623 467 CURVE SMOOTH",
"623 432 OFFCURVE",
"618 393 OFFCURVE",
"610 350 CURVE SMOOTH",
"572 165 OFFCURVE",
"485 59 OFFCURVE",
"371 59 CURVE SMOOTH"
);
},
{
closed = 1;
nodes = (
"655 777 OFFCURVE",
"698 863 OFFCURVE",
"712 934 CURVE",
"669 934 LINE",
"661 906 OFFCURVE",
"631 856 OFFCURVE",
"533 856 CURVE SMOOTH",
"436 856 OFFCURVE",
"423 906 OFFCURVE",
"426 934 CURVE",
"385 934 LINE",
"382 918 OFFCURVE",
"380 902 OFFCURVE",
"380 887 CURVE SMOOTH",
"380 828 OFFCURVE",
"409 777 OFFCURVE",
"517 777 CURVE SMOOTH"
);
}
);
width = 798;
}
);
leftKerningGroup = O;
note = Obreve;
rightKerningGroup = O;
unicode = 014E;
},
{
glyphname = Ocaron;
lastChange = "2015-10-20 06:42:37 +0000";
layers = (
{
layerId = "308F4333-E380-49B7-B07F-C4D22ACB9582";
name = "Bold Italic";
paths = (
{
closed = 1;
nodes = (
"616 -10 OFFCURVE",
"757 136 OFFCURVE",
"802 350 CURVE SMOOTH",
"809 386 OFFCURVE",
"812 419 OFFCURVE",
"812 451 CURVE SMOOTH",
"812 608 OFFCURVE",
"720 710 OFFCURVE",
"504 710 CURVE SMOOTH",
"246 710 OFFCURVE",
"105 563 OFFCURVE",
"61 350 CURVE SMOOTH",
"54 314 OFFCURVE",
"50 279 OFFCURVE",
"50 247 CURVE SMOOTH",
"50 91 OFFCURVE",
"143 -10 OFFCURVE",
"357 -10 CURVE SMOOTH"
);
},
{
closed = 1;
nodes = (
"285 59 OFFCURVE",
"240 120 OFFCURVE",
"240 232 CURVE SMOOTH",
"240 266 OFFCURVE",
"245 306 OFFCURVE",
"253 350 CURVE SMOOTH",
"291 534 OFFCURVE",
"377 643 OFFCURVE",
"490 643 CURVE SMOOTH",
"577 643 OFFCURVE",
"623 579 OFFCURVE",
"623 467 CURVE SMOOTH",
"623 432 OFFCURVE",
"618 393 OFFCURVE",
"610 350 CURVE SMOOTH",
"572 165 OFFCURVE",
"485 59 OFFCURVE",
"371 59 CURVE SMOOTH"
);
},
{
closed = 1;
nodes = (
"562 775 LINE",
"753 955 LINE",
"732 984 LINE",
"579 882 LINE SMOOTH",
"561 870 OFFCURVE",
"545 862 OFFCURVE",
"535 862 CURVE SMOOTH",
"524 862 OFFCURVE",
"511 870 OFFCURVE",
"498 882 CURVE SMOOTH",
"387 984 LINE",
"355 955 LINE",
"471 775 LINE"
);
}
);
width = 798;
}
);
leftKerningGroup = O;
note = Ocaron;
rightKerningGroup = O;
unicode = 01D1;
},
{
glyphname = Ocircumflex;
lastChange = "2015-10-20 06:42:37 +0000";
layers = (
{
layerId = "308F4333-E380-49B7-B07F-C4D22ACB9582";
name = "Bold Italic";
paths = (
{
closed = 1;
nodes = (
"616 -10 OFFCURVE",
"757 136 OFFCURVE",
"802 350 CURVE SMOOTH",
"809 386 OFFCURVE",
"812 419 OFFCURVE",
"812 451 CURVE SMOOTH",
"812 608 OFFCURVE",
"720 710 OFFCURVE",
"504 710 CURVE SMOOTH",
"246 710 OFFCURVE",
"105 563 OFFCURVE",
"61 350 CURVE SMOOTH",
"54 314 OFFCURVE",
"50 279 OFFCURVE",
"50 247 CURVE SMOOTH",
"50 91 OFFCURVE",
"143 -10 OFFCURVE",
"357 -10 CURVE SMOOTH"
);
},
{
closed = 1;
nodes = (
"285 59 OFFCURVE",
"240 120 OFFCURVE",
"240 232 CURVE SMOOTH",
"240 266 OFFCURVE",
"245 306 OFFCURVE",
"253 350 CURVE SMOOTH",
"291 534 OFFCURVE",
"377 643 OFFCURVE",
"490 643 CURVE SMOOTH",
"577 643 OFFCURVE",
"623 579 OFFCURVE",
"623 467 CURVE SMOOTH",
"623 432 OFFCURVE",
"618 393 OFFCURVE",
"610 350 CURVE SMOOTH",
"572 165 OFFCURVE",
"485 59 OFFCURVE",
"371 59 CURVE SMOOTH"
);
},
{
closed = 1;
nodes = (
"497 877 LINE SMOOTH",
"516 889 OFFCURVE",
"531 897 OFFCURVE",
"541 897 CURVE SMOOTH",
"552 897 OFFCURVE",
"565 889 OFFCURVE",
"578 877 CURVE SMOOTH",
"689 775 LINE",
"721 804 LINE",
"605 984 LINE",
"515 984 LINE",
"324 804 LINE",
"344 775 LINE"
);
}
);
width = 798;
}
);
leftKerningGroup = O;
note = Ocircumflex;
rightKerningGroup = O;
unicode = 00D4;
},
{
glyphname = Ocircumflexacute;
lastChange = "2015-10-20 06:42:38 +0000";
layers = (
{
layerId = "308F4333-E380-49B7-B07F-C4D22ACB9582";
name = "Bold Italic";
paths = (
{
closed = 1;
nodes = (
"616 -10 OFFCURVE",
"757 136 OFFCURVE",
"802 350 CURVE SMOOTH",
"809 386 OFFCURVE",
"812 419 OFFCURVE",
"812 451 CURVE SMOOTH",
"812 608 OFFCURVE",
"720 710 OFFCURVE",
"504 710 CURVE SMOOTH",
"246 710 OFFCURVE",
"105 563 OFFCURVE",
"61 350 CURVE SMOOTH",
"54 314 OFFCURVE",
"50 279 OFFCURVE",
"50 247 CURVE SMOOTH",
"50 91 OFFCURVE",
"143 -10 OFFCURVE",
"357 -10 CURVE SMOOTH"
);
},
{
closed = 1;
nodes = (
"285 59 OFFCURVE",
"240 120 OFFCURVE",
"240 232 CURVE SMOOTH",
"240 266 OFFCURVE",
"245 306 OFFCURVE",
"253 350 CURVE SMOOTH",
"291 534 OFFCURVE",
"377 643 OFFCURVE",
"490 643 CURVE SMOOTH",
"577 643 OFFCURVE",
"623 579 OFFCURVE",
"623 467 CURVE SMOOTH",
"623 432 OFFCURVE",
"618 393 OFFCURVE",
"610 350 CURVE SMOOTH",
"572 165 OFFCURVE",
"485 59 OFFCURVE",
"371 59 CURVE SMOOTH"
);
},
{
closed = 1;
nodes = (
"499 874 LINE",
"516 886 OFFCURVE",
"532 895 OFFCURVE",
"542 895 CURVE SMOOTH",
"553 895 OFFCURVE",
"564 886 OFFCURVE",
"578 874 CURVE SMOOTH",
"684 773 LINE",
"713 803 LINE",
"605 982 LINE",
"516 982 LINE",
"331 803 LINE",
"350 773 LINE"
);
},
{
closed = 1;
nodes = (
"812 971 LINE SMOOTH",
"859 993 OFFCURVE",
"895 1023 OFFCURVE",
"895 1057 CURVE SMOOTH",
"895 1079 OFFCURVE",
"882 1102 OFFCURVE",
"847 1102 CURVE SMOOTH",
"812 1102 OFFCURVE",
"780 1072 OFFCURVE",
"762 1053 CURVE SMOOTH",
"668 956 LINE",
"689 915 LINE"
);
}
);
width = 798;
}
);
leftKerningGroup = O;
note = Ocircumflexacute;
rightKerningGroup = O;
unicode = 1ED0;
},
{
glyphname = Ocircumflexdotbelow;
lastChange = "2015-10-20 06:42:37 +0000";
layers = (
{
layerId = "308F4333-E380-49B7-B07F-C4D22ACB9582";
name = "Bold Italic";
paths = (
{
closed = 1;
nodes = (
"616 -10 OFFCURVE",
"757 136 OFFCURVE",
"802 350 CURVE SMOOTH",
"809 386 OFFCURVE",
"812 419 OFFCURVE",
"812 451 CURVE SMOOTH",
"812 608 OFFCURVE",
"720 710 OFFCURVE",
"504 710 CURVE SMOOTH",
"246 710 OFFCURVE",
"105 563 OFFCURVE",
"61 350 CURVE SMOOTH",
"54 314 OFFCURVE",
"50 279 OFFCURVE",
"50 247 CURVE SMOOTH",
"50 91 OFFCURVE",
"143 -10 OFFCURVE",
"357 -10 CURVE SMOOTH"
);
},
{
closed = 1;
nodes = (
"347 -211 OFFCURVE",
"384 -169 OFFCURVE",
"384 -120 CURVE SMOOTH",
"384 -88 OFFCURVE",
"364 -64 OFFCURVE",
"327 -64 CURVE SMOOTH",
"278 -64 OFFCURVE",
"240 -108 OFFCURVE",
"240 -156 CURVE SMOOTH",
"240 -188 OFFCURVE",
"261 -211 OFFCURVE",
"298 -211 CURVE SMOOTH"
);
},
{
closed = 1;
nodes = (
"285 59 OFFCURVE",
"240 120 OFFCURVE",
"240 232 CURVE SMOOTH",
"240 266 OFFCURVE",
"245 306 OFFCURVE",
"253 350 CURVE SMOOTH",
"291 534 OFFCURVE",
"377 643 OFFCURVE",
"490 643 CURVE SMOOTH",
"577 643 OFFCURVE",
"623 579 OFFCURVE",
"623 467 CURVE SMOOTH",
"623 432 OFFCURVE",
"618 393 OFFCURVE",
"610 350 CURVE SMOOTH",
"572 165 OFFCURVE",
"485 59 OFFCURVE",
"371 59 CURVE SMOOTH"
);
},
{
closed = 1;
nodes = (
"497 877 LINE SMOOTH",
"516 889 OFFCURVE",
"531 897 OFFCURVE",
"541 897 CURVE SMOOTH",
"552 897 OFFCURVE",
"565 889 OFFCURVE",
"578 877 CURVE SMOOTH",
"689 775 LINE",
"721 804 LINE",
"605 984 LINE",
"515 984 LINE",
"324 804 LINE",
"344 775 LINE"
);
}
);
width = 798;
}
);
leftKerningGroup = O;
note = Ocircumflexdotbelow;
rightKerningGroup = O;
unicode = 1ED8;
},
{
glyphname = Ocircumflexgrave;
lastChange = "2015-10-20 06:42:37 +0000";
layers = (
{
layerId = "308F4333-E380-49B7-B07F-C4D22ACB9582";
name = "Bold Italic";
paths = (
{
closed = 1;
nodes = (
"616 -10 OFFCURVE",
"757 136 OFFCURVE",
"802 350 CURVE SMOOTH",
"809 386 OFFCURVE",
"812 419 OFFCURVE",
"812 451 CURVE SMOOTH",
"812 608 OFFCURVE",
"720 710 OFFCURVE",
"504 710 CURVE SMOOTH",
"246 710 OFFCURVE",
"105 563 OFFCURVE",
"61 350 CURVE SMOOTH",
"54 314 OFFCURVE",
"50 279 OFFCURVE",
"50 247 CURVE SMOOTH",
"50 91 OFFCURVE",
"143 -10 OFFCURVE",
"357 -10 CURVE SMOOTH"
);
},
{
closed = 1;
nodes = (
"285 59 OFFCURVE",
"240 120 OFFCURVE",
"240 232 CURVE SMOOTH",
"240 266 OFFCURVE",
"245 306 OFFCURVE",
"253 350 CURVE SMOOTH",
"291 534 OFFCURVE",
"377 643 OFFCURVE",
"490 643 CURVE SMOOTH",
"577 643 OFFCURVE",
"623 579 OFFCURVE",
"623 467 CURVE SMOOTH",
"623 432 OFFCURVE",
"618 393 OFFCURVE",
"610 350 CURVE SMOOTH",
"572 165 OFFCURVE",
"485 59 OFFCURVE",
"371 59 CURVE SMOOTH"
);
},
{
closed = 1;
nodes = (
"442 956 LINE",
"385 1055 LINE SMOOTH",
"374 1073 OFFCURVE",
"355 1103 OFFCURVE",
"323 1103 CURVE SMOOTH",
"272 1103 OFFCURVE",
"251 1057 OFFCURVE",
"251 1037 CURVE SMOOTH",
"251 1012 OFFCURVE",
"270 991 OFFCURVE",
"301 973 CURVE SMOOTH",
"402 915 LINE"
);
},
{
closed = 1;
nodes = (
"499 874 LINE",
"516 886 OFFCURVE",
"532 895 OFFCURVE",
"542 895 CURVE SMOOTH",
"553 895 OFFCURVE",
"564 886 OFFCURVE",
"578 874 CURVE SMOOTH",
"684 773 LINE",
"713 803 LINE",
"605 982 LINE",
"516 982 LINE",
"331 803 LINE",
"350 773 LINE"
);
}
);
width = 798;
}
);
leftKerningGroup = O;
note = Ocircumflexgrave;
rightKerningGroup = O;
unicode = 1ED2;
},
{
glyphname = Ocircumflexhookabove;
lastChange = "2015-10-20 06:42:38 +0000";
layers = (
{
layerId = "308F4333-E380-49B7-B07F-C4D22ACB9582";
name = "Bold Italic";
paths = (
{
closed = 1;
nodes = (
"616 -10 OFFCURVE",
"757 136 OFFCURVE",
"802 350 CURVE SMOOTH",
"809 386 OFFCURVE",
"812 419 OFFCURVE",
"812 451 CURVE SMOOTH",
"812 608 OFFCURVE",
"720 710 OFFCURVE",
"504 710 CURVE SMOOTH",
"246 710 OFFCURVE",
"105 563 OFFCURVE",
"61 350 CURVE SMOOTH",
"54 314 OFFCURVE",
"50 279 OFFCURVE",
"50 247 CURVE SMOOTH",
"50 91 OFFCURVE",
"143 -10 OFFCURVE",
"357 -10 CURVE SMOOTH"
);
},
{
closed = 1;
nodes = (
"285 59 OFFCURVE",
"240 120 OFFCURVE",
"240 232 CURVE SMOOTH",
"240 266 OFFCURVE",
"245 306 OFFCURVE",
"253 350 CURVE SMOOTH",
"291 534 OFFCURVE",
"377 643 OFFCURVE",
"490 643 CURVE SMOOTH",
"577 643 OFFCURVE",
"623 579 OFFCURVE",
"623 467 CURVE SMOOTH",
"623 432 OFFCURVE",
"618 393 OFFCURVE",
"610 350 CURVE SMOOTH",
"572 165 OFFCURVE",
"485 59 OFFCURVE",
"371 59 CURVE SMOOTH"
);
},
{
closed = 1;
nodes = (
"498 874 LINE SMOOTH",
"516 886 OFFCURVE",
"532 895 OFFCURVE",
"542 895 CURVE SMOOTH",
"553 895 OFFCURVE",
"564 886 OFFCURVE",
"577 874 CURVE SMOOTH",
"684 774 LINE",
"713 803 LINE",
"605 983 LINE",
"516 983 LINE",
"331 803 LINE",
"350 774 LINE"
);
},
{
closed = 1;
nodes = (
"752 941 LINE",
"742 942 OFFCURVE",
"731 944 OFFCURVE",
"731 958 CURVE SMOOTH",
"731 959 OFFCURVE",
"731 962 OFFCURVE",
"732 964 CURVE SMOOTH",
"741 1009 OFFCURVE",
"853 1013 OFFCURVE",
"853 1084 CURVE SMOOTH",
"853 1121 OFFCURVE",
"812 1138 OFFCURVE",
"763 1138 CURVE SMOOTH",
"689 1138 OFFCURVE",
"659 1104 OFFCURVE",
"655 1083 CURVE SMOOTH",
"654 1080 OFFCURVE",
"654 1077 OFFCURVE",
"654 1074 CURVE SMOOTH",
"654 1057 OFFCURVE",
"666 1050 OFFCURVE",
"679 1050 CURVE SMOOTH",
"721 1050 OFFCURVE",
"713 1109 OFFCURVE",
"756 1109 CURVE SMOOTH",
"776 1109 OFFCURVE",
"781 1092 OFFCURVE",
"779 1079 CURVE SMOOTH",
"767 1023 OFFCURVE",
"684 1012 OFFCURVE",
"675 965 CURVE SMOOTH",
"669 935 OFFCURVE",
"700 918 OFFCURVE",
"740 918 CURVE"
);
}
);
width = 798;
}
);
leftKerningGroup = O;
note = Ocircumflexhookabove;
rightKerningGroup = O;
unicode = 1ED4;
},
{
glyphname = Ocircumflextilde;
lastChange = "2015-10-20 06:42:37 +0000";
layers = (
{
layerId = "308F4333-E380-49B7-B07F-C4D22ACB9582";
name = "Bold Italic";
paths = (
{
closed = 1;
nodes = (
"616 -10 OFFCURVE",
"757 136 OFFCURVE",
"802 350 CURVE SMOOTH",
"809 386 OFFCURVE",
"812 419 OFFCURVE",
"812 451 CURVE SMOOTH",
"812 608 OFFCURVE",
"720 710 OFFCURVE",
"504 710 CURVE SMOOTH",
"246 710 OFFCURVE",
"105 563 OFFCURVE",
"61 350 CURVE SMOOTH",
"54 314 OFFCURVE",
"50 279 OFFCURVE",
"50 247 CURVE SMOOTH",
"50 91 OFFCURVE",
"143 -10 OFFCURVE",
"357 -10 CURVE SMOOTH"
);
},
{
closed = 1;
nodes = (
"285 59 OFFCURVE",
"240 120 OFFCURVE",
"240 232 CURVE SMOOTH",
"240 266 OFFCURVE",
"245 306 OFFCURVE",
"253 350 CURVE SMOOTH",
"291 534 OFFCURVE",
"377 643 OFFCURVE",
"490 643 CURVE SMOOTH",
"577 643 OFFCURVE",
"623 579 OFFCURVE",
"623 467 CURVE SMOOTH",
"623 432 OFFCURVE",
"618 393 OFFCURVE",
"610 350 CURVE SMOOTH",
"572 165 OFFCURVE",
"485 59 OFFCURVE",
"371 59 CURVE SMOOTH"
);
},
{
closed = 1;
nodes = (
"498 874 LINE SMOOTH",
"516 886 OFFCURVE",
"532 895 OFFCURVE",
"542 895 CURVE SMOOTH",
"553 895 OFFCURVE",
"564 886 OFFCURVE",
"577 874 CURVE SMOOTH",
"684 774 LINE",
"713 803 LINE",
"605 983 LINE",
"516 983 LINE",
"331 803 LINE",
"350 774 LINE"
);
},
{
closed = 1;
nodes = (
"430 1037 OFFCURVE",
"448 1055 OFFCURVE",
"482 1055 CURVE SMOOTH",
"539 1055 OFFCURVE",
"579 1010 OFFCURVE",
"634 1010 CURVE SMOOTH",
"704 1010 OFFCURVE",
"752 1089 OFFCURVE",
"777 1134 CURVE",
"752 1152 LINE",
"725 1111 OFFCURVE",
"708 1095 OFFCURVE",
"674 1095 CURVE SMOOTH",
"618 1095 OFFCURVE",
"577 1139 OFFCURVE",
"522 1139 CURVE SMOOTH",
"451 1139 OFFCURVE",
"403 1060 OFFCURVE",
"379 1016 CURVE",
"403 997 LINE"
);
}
);
width = 798;
}
);
leftKerningGroup = O;
note = Ocircumflextilde;
rightKerningGroup = O;
unicode = 1ED6;
},
{
glyphname = Odieresis;
lastChange = "2015-10-20 06:42:38 +0000";
layers = (
{
layerId = "308F4333-E380-49B7-B07F-C4D22ACB9582";
name = "Bold Italic";
paths = (
{
closed = 1;
nodes = (
"616 -10 OFFCURVE",
"757 136 OFFCURVE",
"802 350 CURVE SMOOTH",
"809 386 OFFCURVE",
"812 419 OFFCURVE",
"812 451 CURVE SMOOTH",
"812 608 OFFCURVE",
"720 710 OFFCURVE",
"504 710 CURVE SMOOTH",
"246 710 OFFCURVE",
"105 563 OFFCURVE",
"61 350 CURVE SMOOTH",
"54 314 OFFCURVE",
"50 279 OFFCURVE",
"50 247 CURVE SMOOTH",
"50 91 OFFCURVE",
"143 -10 OFFCURVE",
"357 -10 CURVE SMOOTH"
);
},
{
closed = 1;
nodes = (
"285 59 OFFCURVE",
"240 120 OFFCURVE",
"240 232 CURVE SMOOTH",
"240 266 OFFCURVE",
"245 306 OFFCURVE",
"253 350 CURVE SMOOTH",
"291 534 OFFCURVE",
"377 643 OFFCURVE",
"490 643 CURVE SMOOTH",
"577 643 OFFCURVE",
"623 579 OFFCURVE",
"623 467 CURVE SMOOTH",
"623 432 OFFCURVE",
"618 393 OFFCURVE",
"610 350 CURVE SMOOTH",
"572 165 OFFCURVE",
"485 59 OFFCURVE",
"371 59 CURVE SMOOTH"
);
},
{
closed = 1;
nodes = (
"447 775 OFFCURVE",
"486 816 OFFCURVE",
"486 864 CURVE SMOOTH",
"486 897 OFFCURVE",
"466 921 OFFCURVE",
"427 921 CURVE SMOOTH",
"379 921 OFFCURVE",
"343 878 OFFCURVE",
"343 829 CURVE SMOOTH",
"343 798 OFFCURVE",
"362 775 OFFCURVE",
"398 775 CURVE SMOOTH"
);
},
{
closed = 1;
nodes = (
"683 775 OFFCURVE",
"721 816 OFFCURVE",
"721 864 CURVE SMOOTH",
"721 897 OFFCURVE",
"701 921 OFFCURVE",
"663 921 CURVE SMOOTH",
"612 921 OFFCURVE",
"577 878 OFFCURVE",
"577 829 CURVE SMOOTH",
"577 798 OFFCURVE",
"596 775 OFFCURVE",
"634 775 CURVE SMOOTH"
);
}
);
width = 798;
}
);
leftKerningGroup = O;
note = Odieresis;
rightKerningGroup = O;
unicode = 00D6;
},
{
glyphname = Odotbelow;
lastChange = "2015-10-20 06:42:37 +0000";
layers = (
{
layerId = "308F4333-E380-49B7-B07F-C4D22ACB9582";
name = "Bold Italic";
paths = (
{
closed = 1;
nodes = (
"616 -10 OFFCURVE",
"757 136 OFFCURVE",
"802 350 CURVE SMOOTH",
"809 386 OFFCURVE",
"812 419 OFFCURVE",
"812 451 CURVE SMOOTH",
"812 608 OFFCURVE",
"720 710 OFFCURVE",
"504 710 CURVE SMOOTH",
"246 710 OFFCURVE",
"105 563 OFFCURVE",
"61 350 CURVE SMOOTH",
"54 314 OFFCURVE",
"50 279 OFFCURVE",
"50 247 CURVE SMOOTH",
"50 91 OFFCURVE",
"143 -10 OFFCURVE",
"357 -10 CURVE SMOOTH"
);
},
{
closed = 1;
nodes = (
"367 -211 OFFCURVE",
"404 -169 OFFCURVE",
"404 -120 CURVE SMOOTH",
"404 -88 OFFCURVE",
"384 -64 OFFCURVE",
"348 -64 CURVE SMOOTH",
"299 -64 OFFCURVE",
"260 -108 OFFCURVE",
"260 -156 CURVE SMOOTH",
"260 -188 OFFCURVE",
"281 -211 OFFCURVE",
"318 -211 CURVE SMOOTH"
);
},
{
closed = 1;
nodes = (
"285 59 OFFCURVE",
"240 120 OFFCURVE",
"240 232 CURVE SMOOTH",
"240 266 OFFCURVE",
"245 306 OFFCURVE",
"253 350 CURVE SMOOTH",
"291 534 OFFCURVE",
"377 643 OFFCURVE",
"490 643 CURVE SMOOTH",
"577 643 OFFCURVE",
"623 579 OFFCURVE",
"623 467 CURVE SMOOTH",
"623 432 OFFCURVE",
"618 393 OFFCURVE",
"610 350 CURVE SMOOTH",
"572 165 OFFCURVE",
"485 59 OFFCURVE",
"371 59 CURVE SMOOTH"
);
}
);
width = 798;
}
);
leftKerningGroup = O;
note = Odotbelow;
rightKerningGroup = O;
unicode = 1ECC;
},
{
glyphname = Ograve;
lastChange = "2015-10-20 06:42:37 +0000";
layers = (
{
layerId = "308F4333-E380-49B7-B07F-C4D22ACB9582";
name = "Bold Italic";
paths = (
{
closed = 1;
nodes = (
"616 -10 OFFCURVE",
"757 136 OFFCURVE",
"802 350 CURVE SMOOTH",
"809 386 OFFCURVE",
"812 419 OFFCURVE",
"812 451 CURVE SMOOTH",
"812 608 OFFCURVE",
"720 710 OFFCURVE",
"504 710 CURVE SMOOTH",
"246 710 OFFCURVE",
"105 563 OFFCURVE",
"61 350 CURVE SMOOTH",
"54 314 OFFCURVE",
"50 279 OFFCURVE",
"50 247 CURVE SMOOTH",
"50 91 OFFCURVE",
"143 -10 OFFCURVE",
"357 -10 CURVE SMOOTH"
);
},
{
closed = 1;
nodes = (
"285 59 OFFCURVE",
"240 120 OFFCURVE",
"240 232 CURVE SMOOTH",
"240 266 OFFCURVE",
"245 306 OFFCURVE",
"253 350 CURVE SMOOTH",
"291 534 OFFCURVE",
"377 643 OFFCURVE",
"490 643 CURVE SMOOTH",
"577 643 OFFCURVE",
"623 579 OFFCURVE",
"623 467 CURVE SMOOTH",
"623 432 OFFCURVE",
"618 393 OFFCURVE",
"610 350 CURVE SMOOTH",
"572 165 OFFCURVE",
"485 59 OFFCURVE",
"371 59 CURVE SMOOTH"
);
},
{
closed = 1;
nodes = (
"651 821 LINE",
"559 957 LINE",
"553 964 OFFCURVE",
"532 998 OFFCURVE",
"494 998 CURVE SMOOTH",
"444 998 OFFCURVE",
"423 956 OFFCURVE",
"423 933 CURVE SMOOTH",
"423 910 OFFCURVE",
"440 892 OFFCURVE",
"466 873 CURVE SMOOTH",
"609 774 LINE"
);
}
);
width = 798;
}
);
leftKerningGroup = O;
note = Ograve;
rightKerningGroup = O;
unicode = 00D2;
},
{
glyphname = Ohookabove;
lastChange = "2015-10-20 06:42:37 +0000";
layers = (
{
layerId = "308F4333-E380-49B7-B07F-C4D22ACB9582";
name = "Bold Italic";
paths = (
{
closed = 1;
nodes = (
"616 -10 OFFCURVE",
"757 136 OFFCURVE",
"802 350 CURVE SMOOTH",
"809 386 OFFCURVE",
"812 419 OFFCURVE",
"812 451 CURVE SMOOTH",
"812 608 OFFCURVE",
"720 710 OFFCURVE",
"504 710 CURVE SMOOTH",
"246 710 OFFCURVE",
"105 563 OFFCURVE",
"61 350 CURVE SMOOTH",
"54 314 OFFCURVE",
"50 279 OFFCURVE",
"50 247 CURVE SMOOTH",
"50 91 OFFCURVE",
"143 -10 OFFCURVE",
"357 -10 CURVE SMOOTH"
);
},
{
closed = 1;
nodes = (
"285 59 OFFCURVE",
"240 120 OFFCURVE",
"240 232 CURVE SMOOTH",
"240 266 OFFCURVE",
"245 306 OFFCURVE",
"253 350 CURVE SMOOTH",
"291 534 OFFCURVE",
"377 643 OFFCURVE",
"490 643 CURVE SMOOTH",
"577 643 OFFCURVE",
"623 579 OFFCURVE",
"623 467 CURVE SMOOTH",
"623 432 OFFCURVE",
"618 393 OFFCURVE",
"610 350 CURVE SMOOTH",
"572 165 OFFCURVE",
"485 59 OFFCURVE",
"371 59 CURVE SMOOTH"
);
},
{
closed = 1;
nodes = (
"553 801 LINE",
"542 802 OFFCURVE",
"530 804 OFFCURVE",
"530 819 CURVE SMOOTH",
"530 878 OFFCURVE",
"670 879 OFFCURVE",
"670 966 CURVE SMOOTH",
"670 1009 OFFCURVE",
"625 1030 OFFCURVE",
"569 1030 CURVE SMOOTH",
"481 1030 OFFCURVE",
"445 989 OFFCURVE",
"441 964 CURVE SMOOTH",
"440 960 OFFCURVE",
"440 957 OFFCURVE",
"440 954 CURVE SMOOTH",
"440 935 OFFCURVE",
"454 927 OFFCURVE",
"469 927 CURVE SMOOTH",
"490 927 OFFCURVE",
"508 940 OFFCURVE",
"512 958 CURVE SMOOTH",
"518 987 OFFCURVE",
"543 994 OFFCURVE",
"560 994 CURVE SMOOTH",
"582 994 OFFCURVE",
"588 977 OFFCURVE",
"585 960 CURVE",
"571 896 OFFCURVE",
"476 883 OFFCURVE",
"466 829 CURVE SMOOTH",
"465 826 OFFCURVE",
"465 823 OFFCURVE",
"465 821 CURVE SMOOTH",
"465 791 OFFCURVE",
"498 775 OFFCURVE",
"540 775 CURVE"
);
}
);
width = 798;
}
);
leftKerningGroup = O;
note = Ohookabove;
rightKerningGroup = O;
unicode = 1ECE;
},
{
glyphname = Ohorn;
lastChange = "2015-10-20 06:42:38 +0000";
layers = (
{
layerId = "308F4333-E380-49B7-B07F-C4D22ACB9582";
name = "Bold Italic";
paths = (
{
closed = 1;
nodes = (
"620 -10 OFFCURVE",
"761 136 OFFCURVE",
"805 350 CURVE SMOOTH",
"813 386 OFFCURVE",
"816 419 OFFCURVE",
"816 451 CURVE SMOOTH",
"816 608 OFFCURVE",
"724 710 OFFCURVE",
"508 710 CURVE SMOOTH",
"250 710 OFFCURVE",
"108 563 OFFCURVE",
"65 350 CURVE SMOOTH",
"58 314 OFFCURVE",
"54 279 OFFCURVE",
"54 247 CURVE SMOOTH",
"54 91 OFFCURVE",
"147 -10 OFFCURVE",
"361 -10 CURVE SMOOTH"
);
},
{
closed = 1;
nodes = (
"289 59 OFFCURVE",
"244 120 OFFCURVE",
"244 232 CURVE SMOOTH",
"244 266 OFFCURVE",
"249 306 OFFCURVE",
"257 350 CURVE SMOOTH",
"295 534 OFFCURVE",
"381 643 OFFCURVE",
"493 643 CURVE SMOOTH",
"581 643 OFFCURVE",
"627 579 OFFCURVE",
"627 467 CURVE SMOOTH",
"627 432 OFFCURVE",
"622 393 OFFCURVE",
"613 350 CURVE SMOOTH",
"576 165 OFFCURVE",
"489 59 OFFCURVE",
"374 59 CURVE SMOOTH"
);
},
{
closed = 1;
nodes = (
"832 517 OFFCURVE",
"966 605 OFFCURVE",
"988 715 CURVE SMOOTH",
"991 727 OFFCURVE",
"992 737 OFFCURVE",
"992 747 CURVE SMOOTH",
"992 794 OFFCURVE",
"965 820 OFFCURVE",
"925 820 CURVE SMOOTH",
"875 820 OFFCURVE",
"837 780 OFFCURVE",
"837 740 CURVE SMOOTH",
"837 709 OFFCURVE",
"861 691 OFFCURVE",
"861 660 CURVE SMOOTH",
"861 656 OFFCURVE",
"861 651 OFFCURVE",
"860 647 CURVE SMOOTH",
"851 602 OFFCURVE",
"814 569 OFFCURVE",
"754 541 CURVE",
"746 502 LINE"
);
}
);
width = 818;
}
);
leftKerningGroup = O;
note = Ohorn;
rightKerningGroup = O;
unicode = 01A0;
},
{
glyphname = Ohornacute;
lastChange = "2015-10-20 06:42:37 +0000";
layers = (
{
layerId = "308F4333-E380-49B7-B07F-C4D22ACB9582";
name = "Bold Italic";
paths = (
{
closed = 1;
nodes = (
"620 -10 OFFCURVE",
"761 136 OFFCURVE",
"805 350 CURVE SMOOTH",
"813 386 OFFCURVE",
"816 419 OFFCURVE",
"816 451 CURVE SMOOTH",
"816 608 OFFCURVE",
"724 710 OFFCURVE",
"508 710 CURVE SMOOTH",
"250 710 OFFCURVE",
"108 563 OFFCURVE",
"65 350 CURVE SMOOTH",
"58 314 OFFCURVE",
"54 279 OFFCURVE",
"54 247 CURVE SMOOTH",
"54 91 OFFCURVE",
"147 -10 OFFCURVE",
"361 -10 CURVE SMOOTH"
);
},
{
closed = 1;
nodes = (
"289 59 OFFCURVE",
"244 120 OFFCURVE",
"244 232 CURVE SMOOTH",
"244 266 OFFCURVE",
"249 306 OFFCURVE",
"257 350 CURVE SMOOTH",
"295 534 OFFCURVE",
"381 643 OFFCURVE",
"493 643 CURVE SMOOTH",
"581 643 OFFCURVE",
"627 579 OFFCURVE",
"627 467 CURVE SMOOTH",
"627 432 OFFCURVE",
"622 393 OFFCURVE",
"613 350 CURVE SMOOTH",
"576 165 OFFCURVE",
"489 59 OFFCURVE",
"374 59 CURVE SMOOTH"
);
},
{
closed = 1;
nodes = (
"599 872 LINE SMOOTH",
"645 897 OFFCURVE",
"671 922 OFFCURVE",
"671 956 CURVE SMOOTH",
"671 977 OFFCURVE",
"658 997 OFFCURVE",
"622 997 CURVE SMOOTH",
"585 997 OFFCURVE",
"549 963 OFFCURVE",
"542 956 CURVE",
"394 820 LINE",
"417 773 LINE"
);
},
{
closed = 1;
nodes = (
"828 515 OFFCURVE",
"962 603 OFFCURVE",
"984 713 CURVE SMOOTH",
"987 725 OFFCURVE",
"988 735 OFFCURVE",
"988 745 CURVE SMOOTH",
"988 792 OFFCURVE",
"961 818 OFFCURVE",
"922 818 CURVE SMOOTH",
"871 818 OFFCURVE",
"833 778 OFFCURVE",
"833 738 CURVE SMOOTH",
"833 707 OFFCURVE",
"857 689 OFFCURVE",
"857 658 CURVE SMOOTH",
"857 654 OFFCURVE",
"857 649 OFFCURVE",
"856 645 CURVE SMOOTH",
"847 600 OFFCURVE",
"810 567 OFFCURVE",
"750 539 CURVE",
"742 500 LINE"
);
}
);
width = 818;
}
);
leftKerningGroup = O;
note = Ohornacute;
rightKerningGroup = O;
unicode = 1EDA;
},
{
glyphname = Ohorndotbelow;
lastChange = "2015-10-20 06:42:37 +0000";
layers = (
{
layerId = "308F4333-E380-49B7-B07F-C4D22ACB9582";
name = "Bold Italic";
paths = (
{
closed = 1;
nodes = (
"620 -10 OFFCURVE",
"761 136 OFFCURVE",
"805 350 CURVE SMOOTH",
"813 386 OFFCURVE",
"816 419 OFFCURVE",
"816 451 CURVE SMOOTH",
"816 608 OFFCURVE",
"724 710 OFFCURVE",
"508 710 CURVE SMOOTH",
"250 710 OFFCURVE",
"108 563 OFFCURVE",
"65 350 CURVE SMOOTH",
"58 314 OFFCURVE",
"54 279 OFFCURVE",
"54 247 CURVE SMOOTH",
"54 91 OFFCURVE",
"147 -10 OFFCURVE",
"361 -10 CURVE SMOOTH"
);
},
{
closed = 1;
nodes = (
"375 -211 OFFCURVE",
"413 -169 OFFCURVE",
"413 -120 CURVE SMOOTH",
"413 -88 OFFCURVE",
"393 -64 OFFCURVE",
"356 -64 CURVE SMOOTH",
"307 -64 OFFCURVE",
"269 -108 OFFCURVE",
"269 -156 CURVE SMOOTH",
"269 -188 OFFCURVE",
"290 -211 OFFCURVE",
"326 -211 CURVE SMOOTH"
);
},
{
closed = 1;
nodes = (
"289 59 OFFCURVE",
"244 120 OFFCURVE",
"244 232 CURVE SMOOTH",
"244 266 OFFCURVE",
"249 306 OFFCURVE",
"257 350 CURVE SMOOTH",
"295 534 OFFCURVE",
"381 643 OFFCURVE",
"493 643 CURVE SMOOTH",
"581 643 OFFCURVE",
"627 579 OFFCURVE",
"627 467 CURVE SMOOTH",
"627 432 OFFCURVE",
"622 393 OFFCURVE",
"613 350 CURVE SMOOTH",
"576 165 OFFCURVE",
"489 59 OFFCURVE",
"374 59 CURVE SMOOTH"
);
},
{
closed = 1;
nodes = (
"828 515 OFFCURVE",
"962 603 OFFCURVE",
"984 713 CURVE SMOOTH",
"987 725 OFFCURVE",
"988 735 OFFCURVE",
"988 745 CURVE SMOOTH",
"988 792 OFFCURVE",
"961 818 OFFCURVE",
"922 818 CURVE SMOOTH",
"871 818 OFFCURVE",
"833 778 OFFCURVE",
"833 738 CURVE SMOOTH",
"833 707 OFFCURVE",
"857 689 OFFCURVE",
"857 658 CURVE SMOOTH",
"857 654 OFFCURVE",
"857 649 OFFCURVE",
"856 645 CURVE SMOOTH",
"847 600 OFFCURVE",
"810 567 OFFCURVE",
"750 539 CURVE",
"742 500 LINE"
);
}
);
width = 818;
}
);
leftKerningGroup = O;
note = Ohorndotbelow;
rightKerningGroup = O;
unicode = 1EE2;
},
{
glyphname = Ohorngrave;
lastChange = "2015-10-20 06:42:37 +0000";
layers = (
{
layerId = "308F4333-E380-49B7-B07F-C4D22ACB9582";
name = "Bold Italic";
paths = (
{
closed = 1;
nodes = (
"620 -10 OFFCURVE",
"761 136 OFFCURVE",
"805 350 CURVE SMOOTH",
"813 386 OFFCURVE",
"816 419 OFFCURVE",
"816 451 CURVE SMOOTH",
"816 608 OFFCURVE",
"724 710 OFFCURVE",
"508 710 CURVE SMOOTH",
"250 710 OFFCURVE",
"108 563 OFFCURVE",
"65 350 CURVE SMOOTH",
"58 314 OFFCURVE",
"54 279 OFFCURVE",
"54 247 CURVE SMOOTH",
"54 91 OFFCURVE",
"147 -10 OFFCURVE",
"361 -10 CURVE SMOOTH"
);
},
{
closed = 1;
nodes = (
"289 59 OFFCURVE",
"244 120 OFFCURVE",
"244 232 CURVE SMOOTH",
"244 266 OFFCURVE",
"249 306 OFFCURVE",
"257 350 CURVE SMOOTH",
"295 534 OFFCURVE",
"381 643 OFFCURVE",
"493 643 CURVE SMOOTH",
"581 643 OFFCURVE",
"627 579 OFFCURVE",
"627 467 CURVE SMOOTH",
"627 432 OFFCURVE",
"622 393 OFFCURVE",
"613 350 CURVE SMOOTH",
"576 165 OFFCURVE",
"489 59 OFFCURVE",
"374 59 CURVE SMOOTH"
);
},
{
closed = 1;
nodes = (
"667 847 LINE",
"575 983 LINE",
"569 990 OFFCURVE",
"548 1024 OFFCURVE",
"511 1024 CURVE SMOOTH",
"460 1024 OFFCURVE",
"440 982 OFFCURVE",
"440 959 CURVE SMOOTH",
"440 936 OFFCURVE",
"456 918 OFFCURVE",
"482 899 CURVE SMOOTH",
"625 800 LINE"
);
},
{
closed = 1;
nodes = (
"828 515 OFFCURVE",
"962 603 OFFCURVE",
"984 713 CURVE SMOOTH",
"987 725 OFFCURVE",
"988 735 OFFCURVE",
"988 745 CURVE SMOOTH",
"988 792 OFFCURVE",
"961 818 OFFCURVE",
"922 818 CURVE SMOOTH",
"871 818 OFFCURVE",
"833 778 OFFCURVE",
"833 738 CURVE SMOOTH",
"833 707 OFFCURVE",
"857 689 OFFCURVE",
"857 658 CURVE SMOOTH",
"857 654 OFFCURVE",
"857 649 OFFCURVE",
"856 645 CURVE SMOOTH",
"847 600 OFFCURVE",
"810 567 OFFCURVE",
"750 539 CURVE",
"742 500 LINE"
);
}
);
width = 818;
}
);
leftKerningGroup = O;
note = Ohorngrave;
rightKerningGroup = O;
unicode = 1EDC;
},
{
glyphname = Ohornhookabove;
lastChange = "2015-10-20 06:42:37 +0000";
layers = (
{
layerId = "308F4333-E380-49B7-B07F-C4D22ACB9582";
name = "Bold Italic";
paths = (
{
closed = 1;
nodes = (
"620 -10 OFFCURVE",
"761 136 OFFCURVE",
"805 350 CURVE SMOOTH",
"813 386 OFFCURVE",
"816 419 OFFCURVE",
"816 451 CURVE SMOOTH",
"816 608 OFFCURVE",
"724 710 OFFCURVE",
"508 710 CURVE SMOOTH",
"250 710 OFFCURVE",
"108 563 OFFCURVE",
"65 350 CURVE SMOOTH",
"58 314 OFFCURVE",
"54 279 OFFCURVE",
"54 247 CURVE SMOOTH",
"54 91 OFFCURVE",
"147 -10 OFFCURVE",
"361 -10 CURVE SMOOTH"
);
},
{
closed = 1;
nodes = (
"289 59 OFFCURVE",
"244 120 OFFCURVE",
"244 232 CURVE SMOOTH",
"244 266 OFFCURVE",
"249 306 OFFCURVE",
"257 350 CURVE SMOOTH",
"295 534 OFFCURVE",
"381 643 OFFCURVE",
"493 643 CURVE SMOOTH",
"581 643 OFFCURVE",
"627 579 OFFCURVE",
"627 467 CURVE SMOOTH",
"627 432 OFFCURVE",
"622 393 OFFCURVE",
"613 350 CURVE SMOOTH",
"576 165 OFFCURVE",
"489 59 OFFCURVE",
"374 59 CURVE SMOOTH"
);
},
{
closed = 1;
nodes = (
"568 828 LINE",
"558 829 OFFCURVE",
"545 831 OFFCURVE",
"545 846 CURVE SMOOTH",
"545 905 OFFCURVE",
"685 906 OFFCURVE",
"685 993 CURVE SMOOTH",
"685 1036 OFFCURVE",
"640 1057 OFFCURVE",
"585 1057 CURVE SMOOTH",
"496 1057 OFFCURVE",
"461 1016 OFFCURVE",
"456 991 CURVE SMOOTH",
"455 987 OFFCURVE",
"455 984 OFFCURVE",
"455 981 CURVE SMOOTH",
"455 962 OFFCURVE",
"469 954 OFFCURVE",
"485 954 CURVE SMOOTH",
"505 954 OFFCURVE",
"523 967 OFFCURVE",
"527 985 CURVE SMOOTH",
"534 1014 OFFCURVE",
"559 1021 OFFCURVE",
"575 1021 CURVE SMOOTH",
"597 1021 OFFCURVE",
"603 1004 OFFCURVE",
"600 987 CURVE",
"587 923 OFFCURVE",
"492 910 OFFCURVE",
"481 856 CURVE SMOOTH",
"480 853 OFFCURVE",
"480 850 OFFCURVE",
"480 848 CURVE SMOOTH",
"480 818 OFFCURVE",
"514 802 OFFCURVE",
"556 802 CURVE"
);
},
{
closed = 1;
nodes = (
"828 515 OFFCURVE",
"962 603 OFFCURVE",
"984 713 CURVE SMOOTH",
"987 725 OFFCURVE",
"988 735 OFFCURVE",
"988 745 CURVE SMOOTH",
"988 792 OFFCURVE",
"961 818 OFFCURVE",
"922 818 CURVE SMOOTH",
"871 818 OFFCURVE",
"833 778 OFFCURVE",
"833 738 CURVE SMOOTH",
"833 707 OFFCURVE",
"857 689 OFFCURVE",
"857 658 CURVE SMOOTH",
"857 654 OFFCURVE",
"857 649 OFFCURVE",
"856 645 CURVE SMOOTH",
"847 600 OFFCURVE",
"810 567 OFFCURVE",
"750 539 CURVE",
"742 500 LINE"
);
}
);
width = 818;
}
);
leftKerningGroup = O;
note = Ohornhookabove;
rightKerningGroup = O;
unicode = 1EDE;
},
{
glyphname = Ohorntilde;
lastChange = "2015-10-20 06:42:37 +0000";
layers = (
{
layerId = "308F4333-E380-49B7-B07F-C4D22ACB9582";
name = "Bold Italic";
paths = (
{
closed = 1;
nodes = (
"620 -10 OFFCURVE",
"761 136 OFFCURVE",
"805 350 CURVE SMOOTH",
"813 386 OFFCURVE",
"816 419 OFFCURVE",
"816 451 CURVE SMOOTH",
"816 608 OFFCURVE",
"724 710 OFFCURVE",
"508 710 CURVE SMOOTH",
"250 710 OFFCURVE",
"108 563 OFFCURVE",
"65 350 CURVE SMOOTH",
"58 314 OFFCURVE",
"54 279 OFFCURVE",
"54 247 CURVE SMOOTH",
"54 91 OFFCURVE",
"147 -10 OFFCURVE",
"361 -10 CURVE SMOOTH"
);
},
{
closed = 1;
nodes = (
"289 59 OFFCURVE",
"244 120 OFFCURVE",
"244 232 CURVE SMOOTH",
"244 266 OFFCURVE",
"249 306 OFFCURVE",
"257 350 CURVE SMOOTH",
"295 534 OFFCURVE",
"381 643 OFFCURVE",
"493 643 CURVE SMOOTH",
"581 643 OFFCURVE",
"627 579 OFFCURVE",
"627 467 CURVE SMOOTH",
"627 432 OFFCURVE",
"622 393 OFFCURVE",
"613 350 CURVE SMOOTH",
"576 165 OFFCURVE",
"489 59 OFFCURVE",
"374 59 CURVE SMOOTH"
);
},
{
closed = 1;
nodes = (
"385 837 OFFCURVE",
"405 854 OFFCURVE",
"442 854 CURVE SMOOTH",
"504 854 OFFCURVE",
"550 809 OFFCURVE",
"611 809 CURVE SMOOTH",
"689 809 OFFCURVE",
"740 888 OFFCURVE",
"765 933 CURVE",
"738 951 LINE",
"709 911 OFFCURVE",
"691 894 OFFCURVE",
"654 894 CURVE SMOOTH",
"591 894 OFFCURVE",
"546 939 OFFCURVE",
"485 939 CURVE SMOOTH",
"406 939 OFFCURVE",
"355 860 OFFCURVE",
"327 815 CURVE",
"355 797 LINE"
);
},
{
closed = 1;
nodes = (
"828 515 OFFCURVE",
"962 603 OFFCURVE",
"984 713 CURVE SMOOTH",
"987 725 OFFCURVE",
"988 735 OFFCURVE",
"988 745 CURVE SMOOTH",
"988 792 OFFCURVE",
"961 818 OFFCURVE",
"922 818 CURVE SMOOTH",
"871 818 OFFCURVE",
"833 778 OFFCURVE",
"833 738 CURVE SMOOTH",
"833 707 OFFCURVE",
"857 689 OFFCURVE",
"857 658 CURVE SMOOTH",
"857 654 OFFCURVE",
"857 649 OFFCURVE",
"856 645 CURVE SMOOTH",
"847 600 OFFCURVE",
"810 567 OFFCURVE",
"750 539 CURVE",
"742 500 LINE"
);
}
);
width = 818;
}
);
leftKerningGroup = O;
note = Ohorntilde;
rightKerningGroup = O;
unicode = 1EE0;
},
{
glyphname = Ohungarumlaut;
lastChange = "2015-10-20 06:42:37 +0000";
layers = (
{
layerId = "308F4333-E380-49B7-B07F-C4D22ACB9582";
name = "Bold Italic";
paths = (
{
closed = 1;
nodes = (
"616 -10 OFFCURVE",
"757 136 OFFCURVE",
"802 350 CURVE SMOOTH",
"809 386 OFFCURVE",
"812 419 OFFCURVE",
"812 451 CURVE SMOOTH",
"812 608 OFFCURVE",
"720 710 OFFCURVE",
"504 710 CURVE SMOOTH",
"246 710 OFFCURVE",
"105 563 OFFCURVE",
"61 350 CURVE SMOOTH",
"54 314 OFFCURVE",
"50 279 OFFCURVE",
"50 247 CURVE SMOOTH",
"50 91 OFFCURVE",
"143 -10 OFFCURVE",
"357 -10 CURVE SMOOTH"
);
},
{
closed = 1;
nodes = (
"285 59 OFFCURVE",
"240 120 OFFCURVE",
"240 232 CURVE SMOOTH",
"240 266 OFFCURVE",
"245 306 OFFCURVE",
"253 350 CURVE SMOOTH",
"291 534 OFFCURVE",
"377 643 OFFCURVE",
"490 643 CURVE SMOOTH",
"577 643 OFFCURVE",
"623 579 OFFCURVE",
"623 467 CURVE SMOOTH",
"623 432 OFFCURVE",
"618 393 OFFCURVE",
"610 350 CURVE SMOOTH",
"572 165 OFFCURVE",
"485 59 OFFCURVE",
"371 59 CURVE SMOOTH"
);
},
{
closed = 1;
nodes = (
"540 871 LINE SMOOTH",
"585 896 OFFCURVE",
"612 920 OFFCURVE",
"612 955 CURVE SMOOTH",
"612 975 OFFCURVE",
"599 996 OFFCURVE",
"563 996 CURVE SMOOTH",
"526 996 OFFCURVE",
"490 962 OFFCURVE",
"483 955 CURVE",
"336 819 LINE",
"358 772 LINE"
);
},
{
closed = 1;
nodes = (
"754 871 LINE SMOOTH",
"798 896 OFFCURVE",
"826 920 OFFCURVE",
"826 955 CURVE SMOOTH",
"826 975 OFFCURVE",
"813 996 OFFCURVE",
"778 996 CURVE SMOOTH",
"740 996 OFFCURVE",
"703 962 OFFCURVE",
"696 955 CURVE",
"548 819 LINE",
"570 772 LINE"
);
}
);
width = 798;
}
);
leftKerningGroup = O;
note = Ohungarumlaut;
rightKerningGroup = O;
unicode = 0150;
},
{
glyphname = Omacron;
lastChange = "2015-10-20 06:42:38 +0000";
layers = (
{
layerId = "308F4333-E380-49B7-B07F-C4D22ACB9582";
name = "Bold Italic";
paths = (
{
closed = 1;
nodes = (
"616 -10 OFFCURVE",
"757 136 OFFCURVE",
"802 350 CURVE SMOOTH",
"809 386 OFFCURVE",
"812 419 OFFCURVE",
"812 451 CURVE SMOOTH",
"812 608 OFFCURVE",
"720 710 OFFCURVE",
"504 710 CURVE SMOOTH",
"246 710 OFFCURVE",
"105 563 OFFCURVE",
"61 350 CURVE SMOOTH",
"54 314 OFFCURVE",
"50 279 OFFCURVE",
"50 247 CURVE SMOOTH",
"50 91 OFFCURVE",
"143 -10 OFFCURVE",
"357 -10 CURVE SMOOTH"
);
},
{
closed = 1;
nodes = (
"285 59 OFFCURVE",
"240 120 OFFCURVE",
"240 232 CURVE SMOOTH",
"240 266 OFFCURVE",
"245 306 OFFCURVE",
"253 350 CURVE SMOOTH",
"291 534 OFFCURVE",
"377 643 OFFCURVE",
"490 643 CURVE SMOOTH",
"577 643 OFFCURVE",
"623 579 OFFCURVE",
"623 467 CURVE SMOOTH",
"623 432 OFFCURVE",
"618 393 OFFCURVE",
"610 350 CURVE SMOOTH",
"572 165 OFFCURVE",
"485 59 OFFCURVE",
"371 59 CURVE SMOOTH"
);
},
{
closed = 1;
nodes = (
"719 776 LINE",
"734 848 LINE",
"332 848 LINE",
"317 776 LINE"
);
}
);
width = 798;
}
);
leftKerningGroup = O;
note = Omacron;
rightKerningGroup = O;
unicode = 014C;
},
{
glyphname = Oslash;
lastChange = "2015-10-20 06:42:38 +0000";
layers = (
{
layerId = "308F4333-E380-49B7-B07F-C4D22ACB9582";
name = "Bold Italic";
paths = (
{
closed = 1;
nodes = (
"801 685 LINE",
"756 729 LINE",
"3 5 LINE",
"44 -38 LINE"
);
},
{
closed = 1;
nodes = (
"616 -10 OFFCURVE",
"757 136 OFFCURVE",
"802 350 CURVE SMOOTH",
"809 386 OFFCURVE",
"812 419 OFFCURVE",
"812 451 CURVE SMOOTH",
"812 608 OFFCURVE",
"720 710 OFFCURVE",
"504 710 CURVE SMOOTH",
"246 710 OFFCURVE",
"105 563 OFFCURVE",
"61 350 CURVE SMOOTH",
"54 314 OFFCURVE",
"50 279 OFFCURVE",
"50 247 CURVE SMOOTH",
"50 91 OFFCURVE",
"143 -10 OFFCURVE",
"357 -10 CURVE SMOOTH"
);
},
{
closed = 1;
nodes = (
"285 59 OFFCURVE",
"240 120 OFFCURVE",
"240 232 CURVE SMOOTH",
"240 266 OFFCURVE",
"245 306 OFFCURVE",
"253 350 CURVE SMOOTH",
"291 534 OFFCURVE",
"377 643 OFFCURVE",
"490 643 CURVE SMOOTH",
"577 643 OFFCURVE",
"623 579 OFFCURVE",
"623 467 CURVE SMOOTH",
"623 432 OFFCURVE",
"618 393 OFFCURVE",
"610 350 CURVE SMOOTH",
"572 165 OFFCURVE",
"485 59 OFFCURVE",
"371 59 CURVE SMOOTH"
);
}
);
width = 798;
}
);
leftKerningGroup = O;
note = Oslash;
rightKerningGroup = O;
unicode = 00D8;
},
{
glyphname = Oslashacute;
lastChange = "2015-10-20 06:42:38 +0000";
layers = (
{
layerId = "308F4333-E380-49B7-B07F-C4D22ACB9582";
name = "Bold Italic";
paths = (
{
closed = 1;
nodes = (
"801 685 LINE",
"756 729 LINE",
"3 5 LINE",
"44 -38 LINE"
);
},
{
closed = 1;
nodes = (
"616 -10 OFFCURVE",
"757 136 OFFCURVE",
"802 350 CURVE SMOOTH",
"809 386 OFFCURVE",
"812 419 OFFCURVE",
"812 451 CURVE SMOOTH",
"812 608 OFFCURVE",
"720 710 OFFCURVE",
"504 710 CURVE SMOOTH",
"246 710 OFFCURVE",
"105 563 OFFCURVE",
"61 350 CURVE SMOOTH",
"54 314 OFFCURVE",
"50 279 OFFCURVE",
"50 247 CURVE SMOOTH",
"50 91 OFFCURVE",
"143 -10 OFFCURVE",
"357 -10 CURVE SMOOTH"
);
},
{
closed = 1;
nodes = (
"285 59 OFFCURVE",
"240 120 OFFCURVE",
"240 232 CURVE SMOOTH",
"240 266 OFFCURVE",
"245 306 OFFCURVE",
"253 350 CURVE SMOOTH",
"291 534 OFFCURVE",
"377 643 OFFCURVE",
"490 643 CURVE SMOOTH",
"577 643 OFFCURVE",
"623 579 OFFCURVE",
"623 467 CURVE SMOOTH",
"623 432 OFFCURVE",
"618 393 OFFCURVE",
"610 350 CURVE SMOOTH",
"572 165 OFFCURVE",
"485 59 OFFCURVE",
"371 59 CURVE SMOOTH"
);
},
{
closed = 1;
nodes = (
"608 873 LINE SMOOTH",
"654 898 OFFCURVE",
"680 923 OFFCURVE",
"680 957 CURVE SMOOTH",
"680 978 OFFCURVE",
"666 998 OFFCURVE",
"631 998 CURVE SMOOTH",
"593 998 OFFCURVE",
"558 964 OFFCURVE",
"551 957 CURVE",
"402 821 LINE",
"425 774 LINE"
);
}
);
width = 798;
}
);
leftKerningGroup = O;
note = Oslashacute;
rightKerningGroup = O;
unicode = 01FE;
},
{
glyphname = Otilde;
lastChange = "2015-10-20 06:42:38 +0000";
layers = (
{
layerId = "308F4333-E380-49B7-B07F-C4D22ACB9582";
name = "Bold Italic";
paths = (
{
closed = 1;
nodes = (
"616 -10 OFFCURVE",
"757 136 OFFCURVE",
"802 350 CURVE SMOOTH",
"809 386 OFFCURVE",
"812 419 OFFCURVE",
"812 451 CURVE SMOOTH",
"812 608 OFFCURVE",
"720 710 OFFCURVE",
"504 710 CURVE SMOOTH",
"246 710 OFFCURVE",
"105 563 OFFCURVE",
"61 350 CURVE SMOOTH",
"54 314 OFFCURVE",
"50 279 OFFCURVE",
"50 247 CURVE SMOOTH",
"50 91 OFFCURVE",
"143 -10 OFFCURVE",
"357 -10 CURVE SMOOTH"
);
},
{
closed = 1;
nodes = (
"285 59 OFFCURVE",
"240 120 OFFCURVE",
"240 232 CURVE SMOOTH",
"240 266 OFFCURVE",
"245 306 OFFCURVE",
"253 350 CURVE SMOOTH",
"291 534 OFFCURVE",
"377 643 OFFCURVE",
"490 643 CURVE SMOOTH",
"577 643 OFFCURVE",
"623 579 OFFCURVE",
"623 467 CURVE SMOOTH",
"623 432 OFFCURVE",
"618 393 OFFCURVE",
"610 350 CURVE SMOOTH",
"572 165 OFFCURVE",
"485 59 OFFCURVE",
"371 59 CURVE SMOOTH"
);
},
{
closed = 1;
nodes = (
"362 811 OFFCURVE",
"382 828 OFFCURVE",
"419 828 CURVE SMOOTH",
"481 828 OFFCURVE",
"527 783 OFFCURVE",
"588 783 CURVE SMOOTH",
"666 783 OFFCURVE",
"717 862 OFFCURVE",
"742 907 CURVE",
"715 925 LINE",
"686 885 OFFCURVE",
"668 868 OFFCURVE",
"631 868 CURVE SMOOTH",
"568 868 OFFCURVE",
"523 913 OFFCURVE",
"462 913 CURVE SMOOTH",
"383 913 OFFCURVE",
"332 834 OFFCURVE",
"304 789 CURVE",
"332 771 LINE"
);
}
);
width = 798;
}
);
leftKerningGroup = O;
note = Otilde;
rightKerningGroup = O;
unicode = 00D5;
},
{
glyphname = OE;
lastChange = "2015-10-20 06:42:37 +0000";
layers = (
{
layerId = "308F4333-E380-49B7-B07F-C4D22ACB9582";
name = "Bold Italic";
paths = (
{
closed = 1;
nodes = (
"462 -10 OFFCURVE",
"557 53 OFFCURVE",
"618 142 CURVE",
"560 199 LINE",
"514 108 OFFCURVE",
"449 57 OFFCURVE",
"372 57 CURVE SMOOTH",
"286 57 OFFCURVE",
"241 120 OFFCURVE",
"241 231 CURVE SMOOTH",
"241 266 OFFCURVE",
"246 306 OFFCURVE",
"254 350 CURVE SMOOTH",
"292 534 OFFCURVE",
"378 643 OFFCURVE",
"491 643 CURVE SMOOTH",
"568 643 OFFCURVE",
"612 592 OFFCURVE",
"621 500 CURVE",
"703 558 LINE",
"678 646 OFFCURVE",
"609 710 OFFCURVE",
"483 710 CURVE SMOOTH",
"247 710 OFFCURVE",
"106 563 OFFCURVE",
"62 350 CURVE SMOOTH",
"55 313 OFFCURVE",
"51 278 OFFCURVE",
"51 246 CURVE SMOOTH",
"51 90 OFFCURVE",
"140 -10 OFFCURVE",
"336 -10 CURVE SMOOTH"
);
},
{
closed = 1;
nodes = (
"1013 0 LINE",
"1073 200 LINE",
"1028 200 LINE",
"1002 127 OFFCURVE",
"970 65 OFFCURVE",
"900 65 CURVE SMOOTH",
"704 65 LINE",
"820 634 LINE",
"989 634 LINE SMOOTH",
"1061 634 OFFCURVE",
"1072 573 OFFCURVE",
"1072 530 CURVE SMOOTH",
"1072 518 OFFCURVE",
"1071 507 OFFCURVE",
"1070 499 CURVE",
"1116 499 LINE",
"1156 700 LINE",
"644 700 LINE",
"502 0 LINE"
);
},
{
closed = 1;
nodes = (
"980 241 LINE",
"1029 482 LINE",
"993 482 LINE",
"980 439 OFFCURVE",
"965 394 OFFCURVE",
"922 394 CURVE SMOOTH",
"728 394 LINE",
"714 329 LINE",
"908 329 LINE SMOOTH",
"939 329 OFFCURVE",
"947 306 OFFCURVE",
"947 278 CURVE SMOOTH",
"947 266 OFFCURVE",
"945 253 OFFCURVE",
"944 241 CURVE"
);
}
);
width = 1101;
}
);
leftKerningGroup = O;
note = OE;
rightKerningGroup = E;
unicode = 0152;
},
{
glyphname = P;
lastChange = "2015-10-20 06:42:37 +0000";
layers = (
{
layerId = "308F4333-E380-49B7-B07F-C4D22ACB9582";
name = "Bold Italic";
paths = (
{
closed = 1;
nodes = (
"326 0 LINE",
"335 46 LINE",
"304 46 LINE SMOOTH",
"274 46 OFFCURVE",
"260 55 OFFCURVE",
"260 74 CURVE SMOOTH",
"260 77 OFFCURVE",
"260 81 OFFCURVE",
"261 85 CURVE SMOOTH",
"298 264 LINE",
"415 264 LINE SMOOTH",
"594 264 OFFCURVE",
"665 355 OFFCURVE",
"691 482 CURVE SMOOTH",
"696 506 OFFCURVE",
"699 529 OFFCURVE",
"699 550 CURVE SMOOTH",
"699 641 OFFCURVE",
"649 700 OFFCURVE",
"503 700 CURVE SMOOTH",
"114 700 LINE",
"106 654 LINE",
"136 654 LINE SMOOTH",
"167 654 OFFCURVE",
"180 644 OFFCURVE",
"180 625 CURVE SMOOTH",
"180 622 OFFCURVE",
"180 618 OFFCURVE",
"180 614 CURVE SMOOTH",
"72 85 LINE SMOOTH",
"66 59 OFFCURVE",
"48 46 OFFCURVE",
"12 46 CURVE SMOOTH",
"-19 46 LINE",
"-28 0 LINE"
);
},
{
closed = 1;
nodes = (
"372 634 LINE",
"443 634 LINE SMOOTH",
"491 634 OFFCURVE",
"513 606 OFFCURVE",
"513 550 CURVE SMOOTH",
"513 531 OFFCURVE",
"510 508 OFFCURVE",
"505 482 CURVE SMOOTH",
"485 383 OFFCURVE",
"445 329 OFFCURVE",
"380 329 CURVE SMOOTH",
"310 329 LINE"
);
}
);
width = 651;
}
);
note = P;
unicode = 0050;
},
